<svg width="275" height="34" viewBox="0 0 275 34" fill="none" xmlns="http://www.w3.org/2000/svg">
<path fill-rule="evenodd" clip-rule="evenodd" d="M68.8796 0.679688H82.0539C87.3884 0.679688 91.7308 5.00455 91.7301 10.3188V23.4406C91.7301 28.7542 87.3877 33.0797 82.0532 33.0797H68.8796C63.5403 33.0797 59.2 28.7542 59.2 23.4406V10.3188C59.2 5.00455 63.5403 0.679688 68.8796 0.679688ZM85.723 21.006L85.7351 20.8616H88.0286V21.8924C88.0286 23.5909 87.8353 24.6237 87.3614 25.4558C86.8264 26.3937 85.7849 26.9773 84.6411 26.9773C83.5425 26.9773 82.521 26.4439 81.839 25.5127C81.4175 24.9358 81.0652 24.1651 80.7155 23.0374C79.8825 24.1798 79.0014 25.0595 78.0356 25.6945C76.5407 26.6792 74.9287 27.1791 73.2393 27.1791C70.3398 27.1791 68.1263 26.2467 66.2753 24.2446C64.5007 22.3288 63.6007 19.7861 63.6007 16.6904C63.6007 13.911 64.5484 11.4116 66.3424 9.46373C68.1452 7.50394 70.4264 6.51061 73.1232 6.51061C75.077 6.51061 76.6951 7.13822 78.0711 8.42639C78.8604 9.16633 79.5712 10.2192 80.0161 11.1664C80.0396 11.2151 80.0624 11.266 80.0847 11.3174C80.5295 9.21047 81.0229 6.89428 81.0229 6.89428H86.3634C86.3634 6.89428 83.5491 16.772 82.637 19.8556C82.9592 20.7387 83.2773 21.2259 83.631 21.6317C83.9257 21.9712 84.2868 22.137 84.7358 22.137C85.323 22.137 85.6768 21.5681 85.723 21.006ZM73.726 24.6398C74.9166 24.6398 75.9736 24.0167 76.7831 22.8362C77.579 21.6772 78.2341 19.665 78.904 16.3369C78.3704 13.8749 77.6254 11.9598 76.7442 10.8006C75.922 9.7205 74.9764 9.21911 73.7649 9.21911C72.4037 9.21911 71.3943 9.81676 70.5888 11.0968C69.7318 12.4605 69.2969 14.3703 69.2969 16.7733C69.2969 19.3943 69.707 21.4018 70.5171 22.7413C71.2896 24.0208 72.3386 24.6398 73.726 24.6398ZM108.017 7.3634C107.648 5.70763 106.599 4.55122 104.299 4.55122C102.134 4.55122 100.948 5.70763 100.579 7.3634L98.9085 14.8582H100.694C101.102 14.8582 101.507 14.5346 101.594 14.1382L101.932 12.6134H106.665L107.003 14.1382C107.09 14.5339 107.495 14.8582 107.902 14.8582H109.689L108.017 7.3634ZM102.4 10.5012L102.988 7.8467C103.083 7.41754 103.419 6.76184 104.299 6.76184C105.179 6.76184 105.514 7.41686 105.61 7.8467L106.198 10.5012H102.4ZM118.075 7.05466H114.091V11.4812C114.091 13.6082 112.871 14.8589 111.183 14.8589H110.714L110.257 12.6971L110.762 12.5768C111.309 12.4679 111.624 12.0347 111.624 11.3541V6.26855C111.624 5.45774 112.291 4.79462 113.104 4.79462H120.541V14.8582H118.075V7.05466ZM141.976 4.79449H141.077V3.62471H139.351C138.944 3.62471 138.611 3.95425 138.611 4.3606V4.79449H137.712C134.663 4.79449 132.758 6.86404 132.758 9.82594C132.758 12.7885 134.663 14.8581 137.712 14.8581H138.611V16.0779H140.337C140.744 16.0779 141.077 15.7464 141.077 15.3427V14.8581H141.976C145.024 14.8581 146.929 12.7885 146.929 9.82594C146.929 6.86404 145.024 4.79449 141.976 4.79449ZM137.712 12.6354C136.023 12.6354 135.225 11.5712 135.225 9.82594C135.225 8.08187 136.023 7.0178 137.712 7.0178H138.611V12.6354H137.712ZM141.976 12.6354H141.077V7.0178H141.976C143.665 7.0178 144.461 8.08187 144.461 9.82594C144.461 11.5712 143.665 12.6354 141.976 12.6354ZM124.655 7.34653H128.195C130.606 7.34653 131.964 8.96086 131.964 11.1026C131.964 13.2449 130.345 14.8586 128.195 14.8586H122.929C122.522 14.8586 122.189 14.527 122.189 14.122V4.7957H124.655V7.34653ZM124.655 12.5992H128.195C128.796 12.5992 129.498 12.0611 129.498 11.102C129.498 10.142 128.796 9.60589 128.195 9.60589H124.655V12.5992ZM156.128 7.3634C155.758 5.70763 154.71 4.55122 152.408 4.55122C150.246 4.55122 149.059 5.70763 148.689 7.3634L147.018 14.8582H148.806C149.212 14.8582 149.618 14.5346 149.704 14.1382L150.042 12.6134H154.775L155.112 14.1382C155.199 14.5339 155.604 14.8582 156.011 14.8582H157.798L156.128 7.3634ZM150.511 10.5012L151.097 7.8467C151.195 7.41754 151.53 6.76184 152.408 6.76184C153.289 6.76184 153.623 7.41686 153.72 7.8467L154.307 10.5012H150.511ZM171.142 21.9453C171.142 22.7508 170.862 23.3317 170.427 23.7582C171.058 24.2488 171.487 24.952 171.487 25.8498C171.487 27.6332 170.233 28.9795 168.343 28.9795L161.932 28.9781C161.525 28.9781 161.193 28.6466 161.193 28.2416V19.6512C161.193 19.2454 161.525 18.9145 161.932 18.9145H167.962C169.754 18.9145 171.142 20.1619 171.142 21.9453ZM168.736 21.9955C168.736 21.3698 168.288 21.0035 167.96 21.0035V21.0029H163.61V22.9868H167.96C168.288 22.9474 168.736 22.6258 168.736 21.9955ZM163.609 26.8912H168.158C168.486 26.8912 168.934 26.5229 168.934 25.898C168.934 25.2668 168.486 24.9461 168.158 24.9058H163.609V26.8912ZM154.134 18.6833C151.084 18.6833 148.953 20.8459 148.953 23.9468C148.953 27.0464 151.084 29.2109 154.134 29.2109H154.978C158.028 29.2109 160.159 27.0464 160.159 23.9468C160.159 20.8459 158.028 18.6833 154.978 18.6833H154.134ZM151.617 23.9468C151.617 22.142 152.583 20.7623 154.283 20.7623H154.83C156.529 20.7623 157.494 22.142 157.494 23.9468C157.494 25.7516 156.529 27.1327 154.83 27.1327H154.283C152.582 27.132 151.617 25.7516 151.617 23.9468ZM108.102 18.9152L108.102 18.9145V18.9152H108.102ZM108.427 20.4367L108.102 18.9152H117.538L117.213 20.4373C117.127 20.843 116.724 21.1739 116.318 21.1739H114.091V28.9774H111.623V21.1732H109.324C108.917 21.1732 108.513 20.8423 108.427 20.4367ZM191.19 18.9145V22.9105H186.39V18.9145H183.923V28.9781H186.39V25.0691H191.19V28.9781H193.657V18.9145H191.19ZM133.091 18.6733C135.393 18.6733 136.44 19.8284 136.809 21.4848L138.48 28.9781H136.694C136.287 28.9781 135.881 28.656 135.794 28.2596L135.456 26.7341H130.725L130.388 28.2596C130.3 28.656 129.896 28.9781 129.488 28.9781H127.702L129.374 21.4848C129.742 19.829 130.929 18.6733 133.091 18.6733ZM131.194 24.6206L131.781 21.9668C131.876 21.5383 132.211 20.8819 133.092 20.8819C133.972 20.8819 134.307 21.5383 134.403 21.9681L134.991 24.6206H131.194ZM181.163 21.4848C180.792 19.8284 179.746 18.6733 177.443 18.6733C175.279 18.6733 174.095 19.829 173.724 21.4848L172.055 28.9781H173.841C174.248 28.9781 174.653 28.656 174.74 28.2596L175.079 26.7341H179.811L180.149 28.2596C180.238 28.656 180.641 28.9781 181.047 28.9781H182.836L181.163 21.4848ZM175.545 24.6206L176.133 21.9668C176.231 21.5383 176.564 20.8819 177.443 20.8819C178.322 20.8819 178.658 21.5383 178.755 21.9681L179.342 24.6206H175.545ZM108.869 28.9795V28.9507L108.518 27.438C108.427 27.0424 108.018 26.7201 107.612 26.7201H104.05C102.491 26.7201 101.562 25.5603 101.562 23.9473C101.562 22.3337 102.491 21.1746 104.05 21.1746H106.442C106.849 21.1746 107.257 20.8531 107.349 20.4573L107.706 18.9152H104.05C101.134 18.9152 99.0951 20.9841 99.0951 23.9467C99.0951 26.9106 101.133 28.9795 104.05 28.9795H108.869ZM124.151 18.9145L118.885 18.9152C118.477 18.9152 118.145 19.2468 118.145 19.6519V28.9788H120.612V26.4259H124.151C126.564 26.4259 127.922 24.8116 127.922 22.6713C127.922 20.5302 126.301 18.9145 124.151 18.9145ZM124.151 24.1673H120.612V21.1766H124.151C124.753 21.1766 125.455 21.712 125.455 22.672C125.455 23.6305 124.753 24.1673 124.151 24.1673ZM209.253 26.8538H214.566C215.006 26.8538 215.35 27.0463 215.471 27.5724L215.8 28.9788H207.527C207.121 28.9788 206.787 28.6459 206.787 28.2407V19.6504C206.787 19.2448 207.121 18.9139 207.527 18.9139H215.8L215.471 20.3203C215.35 20.8469 215.004 21.0382 214.566 21.0382H209.253V22.9801H215.03V24.9212H209.253V26.8538ZM195.348 28.9781V18.9145H197.815V25.5542L202.089 19.5081C202.329 19.182 202.858 18.9145 203.269 18.9145H205.097V28.9781H202.629V22.3391L198.355 28.3845C198.115 28.7108 197.585 28.9781 197.177 28.9781H195.348ZM149.364 18.9152L145.921 23.8932L149.438 28.9781H147.099C146.609 28.9781 146.265 28.8311 145.962 28.3573L144.128 25.4876H143.8L141.964 28.3573C141.663 28.8311 141.318 28.9781 140.827 28.9781H138.562L142.005 23.9996L138.488 18.9152H140.827C141.319 18.9152 141.663 19.063 141.964 19.5362L143.8 22.4052H144.128L145.962 19.5362C146.265 19.0637 146.609 18.9152 147.099 18.9152H149.364Z" fill="#961842"/>
</svg>
