<svg width="18" height="35" viewBox="0 0 18 35" fill="none" xmlns="http://www.w3.org/2000/svg">
<path d="M16.2929 34.2071C16.6834 34.5976 17.3166 34.5976 17.7071 34.2071C18.0976 33.8166 18.0976 33.1834 17.7071 32.7929L16.2929 34.2071ZM1 17.5L0.292893 16.7929C-0.0976311 17.1834 -0.0976311 17.8166 0.292893 18.2071L1 17.5ZM17.7071 2.20711C18.0976 1.81658 18.0976 1.18342 17.7071 0.792893C17.3166 0.402369 16.6834 0.402369 16.2929 0.792893L17.7071 2.20711ZM17.7071 32.7929L1.70711 16.7929L0.292893 18.2071L16.2929 34.2071L17.7071 32.7929ZM1.70711 18.2071L17.7071 2.20711L16.2929 0.792893L0.292893 16.7929L1.70711 18.2071Z" fill="#961842"/>
</svg>
