<svg width="18" height="35" viewBox="0 0 18 35" fill="none" xmlns="http://www.w3.org/2000/svg">
<path d="M1.70711 0.792891C1.31658 0.402365 0.683419 0.402365 0.292895 0.792891C-0.0976286 1.18341 -0.0976287 1.81658 0.292895 2.2071L1.70711 0.792891ZM17 17.5L17.7071 18.2071C18.0976 17.8166 18.0976 17.1834 17.7071 16.7929L17 17.5ZM0.292893 32.7929C-0.0976314 33.1834 -0.0976315 33.8166 0.292892 34.2071C0.683416 34.5976 1.31658 34.5976 1.70711 34.2071L0.292893 32.7929ZM0.292895 2.2071L16.2929 18.2071L17.7071 16.7929L1.70711 0.792891L0.292895 2.2071ZM16.2929 16.7929L0.292893 32.7929L1.70711 34.2071L17.7071 18.2071L16.2929 16.7929Z" fill="#961842"/>
</svg>
