<svg width="48" height="48" viewBox="0 0 48 48" fill="none" xmlns="http://www.w3.org/2000/svg">
<path d="M24.0119 43.5021C16.5959 43.5029 9.75742 39.2534 6.48217 32.5649C3.16792 25.7946 4.17142 17.3511 8.98042 11.5544C13.7842 5.76365 21.5939 3.2369 28.8749 5.11715C29.6767 5.32415 30.1589 6.1424 29.9527 6.9449C29.7457 7.7474 28.9267 8.2289 28.1249 8.02265C21.9659 6.4319 15.3554 8.5694 11.2897 13.4706C7.22167 18.3749 6.37267 25.5186 9.17692 31.2471C11.9707 36.9531 18.1334 40.6702 24.4589 40.4977C30.7837 40.3251 36.5234 36.4784 39.0817 30.6981C40.5839 27.3036 40.9019 23.4599 39.9757 19.8741C39.7687 19.0724 40.2509 18.2541 41.0534 18.0464C41.8537 17.8386 42.6734 18.3216 42.8812 19.1241C43.9747 23.3609 43.6004 27.9029 41.8259 31.9124C38.8019 38.7449 32.0167 43.2921 24.5414 43.4961C24.3644 43.4999 24.1874 43.5021 24.0119 43.5021Z" fill="#961842"/>
<path d="M23.9998 28.68C23.6158 28.68 23.2318 28.5337 22.9393 28.2405C22.3536 27.6547 22.3536 26.7052 22.9393 26.1195L40.9393 8.11949C41.5243 7.53374 42.4753 7.53374 43.0603 8.11949C43.6461 8.70524 43.6461 9.65474 43.0603 10.2405L25.0603 28.2405C24.7678 28.533 24.3838 28.68 23.9998 28.68Z" fill="#961842"/>
<path d="M24 28.68C23.616 28.68 23.232 28.5337 22.9395 28.2405L16.5758 21.8767C15.99 21.291 15.99 20.3415 16.5758 19.7557C17.1608 19.17 18.1118 19.17 18.6968 19.7557L25.0605 26.1195C25.6463 26.7052 25.6463 27.6547 25.0605 28.2405C24.768 28.533 24.384 28.68 24 28.68Z" fill="#961842"/>
</svg>
