<svg width="275" height="21" viewBox="0 0 275 21" fill="none" xmlns="http://www.w3.org/2000/svg">
<path fill-rule="evenodd" clip-rule="evenodd" d="M135.351 0.921905C130.839 1.38941 127.319 4.28291 126.287 8.36728C125.934 9.76991 125.881 11.3313 126.133 12.7295C126.75 16.1082 128.973 18.7768 132.259 20.0823C134.963 21.1542 138.32 21.1365 140.993 20.0338C144.217 18.7018 146.392 16.02 146.969 12.6722C147.212 11.2828 147.146 9.71704 146.793 8.30991C146.493 7.12341 145.898 5.88841 145.139 4.87841C144.76 4.37116 143.754 3.37866 143.225 2.98616C141.654 1.82166 139.802 1.12916 137.694 0.917406C137.16 0.864531 135.89 0.868905 135.351 0.921905ZM137.535 6.18841C139.259 6.51916 140.446 7.81154 140.794 9.74341C141.002 10.899 140.874 12.262 140.464 13.2324C140.031 14.2469 139.264 15.0275 138.32 15.4158C137.755 15.645 137.363 15.7113 136.564 15.7113C135.92 15.7113 135.757 15.698 135.418 15.6098C133.715 15.1687 132.621 13.9028 132.282 11.9753C132.184 11.4328 132.184 10.383 132.282 9.83166C132.67 7.67041 133.993 6.36041 136.035 6.12216C136.414 6.07804 137.12 6.10891 137.535 6.18841ZM96.0293 0.89978C95.9587 0.908655 95.7073 0.939529 95.4779 0.966029C92.4257 1.3144 89.7041 2.91991 88.1206 5.30616C86.7048 7.43666 86.1888 10.1317 86.6784 12.8045C87.4766 17.1403 90.895 20.2279 95.5264 20.7924C96.2277 20.8807 97.6965 20.8895 98.4067 20.8145C100.502 20.5895 102.098 19.9544 103.576 18.7547C104.026 18.3885 104.688 17.749 105.018 17.3477C106.121 16.0244 105.733 14.0043 104.22 13.2103C103.395 12.7737 102.548 12.7693 101.697 13.1839C101.388 13.3383 101.238 13.4529 100.793 13.8852C99.8754 14.7762 99.1653 15.2217 98.2743 15.4598C97.8818 15.5657 97.7583 15.5745 97.0437 15.5789C96.0954 15.5833 95.7204 15.5039 95.0148 15.1643C94.062 14.7012 93.396 13.916 93.0343 12.8265C92.8049 12.1429 92.7299 11.64 92.7299 10.8418C92.7299 9.85816 92.8888 9.09954 93.2372 8.39379C93.9562 6.94704 95.2573 6.18841 96.9995 6.19716C98.4552 6.20603 99.7519 6.88091 100.678 8.11141C101.715 9.49203 103.669 9.63754 104.873 8.42016C105.455 7.83804 105.689 7.26016 105.684 6.43091C105.676 5.49591 105.411 4.98866 104.295 3.81091C102.994 2.43916 101.468 1.54815 99.7432 1.16453C98.8477 0.961529 98.3845 0.91303 97.2422 0.895405C96.6468 0.88653 96.1042 0.89103 96.0293 0.89978ZM153.291 3.74041C154.913 2.18341 156.968 1.25266 159.478 0.939531C159.841 0.895406 160.303 0.882155 161.088 0.895405C162.314 0.91303 162.954 0.988031 163.854 1.22178C165.799 1.72466 167.361 2.78328 168.843 4.59603C169.346 5.21353 169.553 5.76491 169.548 6.49716C169.539 7.56454 168.971 8.47316 168.013 8.94954C167.202 9.35091 166.354 9.35091 165.539 8.94516C165.111 8.73779 164.811 8.47753 164.463 8.02328C163.312 6.51028 161.428 5.86191 159.584 6.34716C158.018 6.75741 156.942 8.02329 156.651 9.80516C156.567 10.308 156.581 11.4725 156.673 11.9885C156.951 13.5323 157.781 14.7012 158.976 15.2304C159.712 15.5569 160.779 15.6804 161.671 15.5437C162.778 15.376 163.541 14.9482 164.688 13.8587C165.447 13.1353 165.839 12.9413 166.624 12.8883C167.814 12.8045 168.962 13.5632 169.358 14.6924C169.637 15.4863 169.531 16.3597 169.072 17.0918C168.847 17.4447 167.713 18.565 167.176 18.962C165.561 20.1573 163.973 20.7043 161.662 20.8542C159.968 20.9689 158.124 20.6954 156.633 20.1177C155.658 19.7383 154.569 19.1032 153.797 18.4592C152.139 17.0742 151.006 15.1423 150.573 12.9722C149.876 9.47441 150.886 6.04278 153.291 3.74041ZM179.416 0.904281C178.004 1.03653 177.047 1.27478 176.124 1.71578C174.488 2.49653 173.518 3.69628 173.103 5.46053C172.988 5.94141 172.941 7.32628 173.016 7.89978C173.307 10.0963 174.638 11.6665 176.989 12.5973C177.549 12.8178 178.286 13.0339 179.526 13.3338C182.177 13.9734 182.516 14.0969 182.723 14.5027C182.842 14.732 182.842 15.151 182.728 15.376C182.481 15.8568 181.947 16.0377 180.642 16.0773C178.819 16.1347 177.682 15.7774 176.072 14.6307C175.468 14.1983 175.194 14.0748 174.673 14.0087C173.593 13.8632 172.503 14.56 172.124 15.6407C171.992 16.02 171.992 16.761 172.128 17.158C172.226 17.4314 172.464 17.8417 172.653 18.0534C172.971 18.4107 174.021 19.1737 174.718 19.553C176.716 20.6425 179.491 21.088 182.348 20.7837C185.467 20.4484 187.447 19.0943 188.162 16.8184C188.387 16.0994 188.502 15.3319 188.502 14.5159C188.502 12.9324 188.007 11.7063 186.967 10.7005C185.859 9.63316 184.422 8.98479 181.961 8.43341C179.737 7.93941 179.266 7.80266 178.851 7.53803C178.493 7.30428 178.383 7.09704 178.378 6.66916C178.378 6.40454 178.397 6.33391 178.502 6.17516C178.718 5.84428 179.098 5.67666 179.812 5.58853C181.259 5.41203 182.794 5.91053 184.134 6.99116C184.699 7.44541 185.153 7.62191 185.767 7.62191C186.557 7.62191 187.227 7.27341 187.689 6.62503C188.197 5.91491 188.268 5.04591 187.888 4.24766C187.698 3.84628 187.403 3.50216 186.826 3.01253C185.396 1.79966 183.724 1.13366 181.581 0.917406C181.167 0.877781 179.786 0.864531 179.416 0.904281ZM109.213 2.96403C109.681 1.9804 110.523 1.35416 111.608 1.18216C111.921 1.13366 112.468 1.16891 112.804 1.25266C113.399 1.40703 113.99 1.77753 114.391 2.24953C114.757 2.68178 115.106 3.47128 115.106 3.86828C115.106 3.94328 115.119 4.00503 115.132 4.00503C115.15 4.00503 115.291 3.88153 115.45 3.73153C116.31 2.92878 117.426 2.27153 118.538 1.91428C119.296 1.67165 119.768 1.60553 120.752 1.60553C121.779 1.60553 122.044 1.66291 122.803 2.03778C123.566 2.41716 123.985 2.81853 124.324 3.49778C124.567 3.98291 124.646 4.32703 124.651 4.88716C124.651 5.74291 124.373 6.42216 123.773 7.03078C123.381 7.42778 122.966 7.69241 122.494 7.85128C122.049 7.99678 121.25 7.98791 120.492 7.82916C119.874 7.69691 119.486 7.67916 119.045 7.77179C117.457 8.10704 116.24 9.24504 115.622 10.9608C115.472 11.3799 115.393 11.693 115.274 12.3238C115.185 12.8134 115.177 13.0427 115.15 15.5393C115.126 17.8825 115.123 18.3322 114.974 18.7264C114.934 18.8324 114.884 18.9343 114.819 19.0679C114.44 19.8485 113.668 20.4837 112.812 20.7087C112.367 20.8278 111.599 20.8145 111.18 20.6867C110.188 20.3734 109.416 19.6413 109.085 18.6929L108.953 18.318L108.94 11.1197C108.928 4.15478 108.917 3.61628 109.114 3.17041C109.142 3.10603 109.175 3.04366 109.213 2.96403Z" fill="#961842"/>
</svg>
