<svg width="49" height="48" viewBox="0 0 49 48" fill="none" xmlns="http://www.w3.org/2000/svg">
<g clip-path="url(#clip0_156_817)">
<path d="M43.1578 24.2442L37.9356 16.1799C37.5309 15.5549 36.8447 15.1816 36.1 15.1816H13.0593C12.3158 15.1816 11.6302 15.5539 11.2253 16.1774L5.98693 24.2427C5.45162 25.0667 5.53431 26.1548 6.18803 26.8885L22.9376 45.6929C23.3522 46.1582 23.9473 46.4252 24.5705 46.4252C24.5706 46.4252 24.5705 46.4252 24.5706 46.4252C25.1938 46.4252 25.7891 46.1583 26.2037 45.693L42.9551 26.8875C43.6079 26.1546 43.6912 25.0677 43.1578 24.2442ZM35.0421 17.0565L30.6503 23.8478L26.2559 17.0565H35.0421ZM28.9273 24.6364H20.2138L24.5705 17.9034L28.9273 24.6364ZM22.8852 17.0567L18.5028 23.8293L14.122 17.0567H22.8852ZM12.3885 17.8288L16.7919 24.6364H7.96693L12.3885 17.8288ZM8.36293 26.5114H17.7984L22.7874 42.7053L8.36293 26.5114ZM24.5705 42.1248L19.7603 26.5114H29.3807L24.5705 42.1248ZM26.3536 42.7059L31.3427 26.5115H40.7791L26.3536 42.7059ZM32.3733 24.6364L36.7727 17.8335L41.178 24.6364H32.3733Z" fill="#961842"/>
<path d="M3.41525 24.6367H1.50903C0.991346 24.6367 0.571533 25.0564 0.571533 25.5742C0.571533 26.092 0.991346 26.5117 1.50903 26.5117H3.41525C3.93294 26.5117 4.35275 26.092 4.35275 25.5742C4.35275 25.0564 3.93294 24.6367 3.41525 24.6367Z" fill="#961842"/>
<path d="M47.634 24.6367H45.7278C45.2101 24.6367 44.7903 25.0564 44.7903 25.5742C44.7903 26.092 45.2101 26.5117 45.7278 26.5117H47.634C48.1517 26.5117 48.5715 26.092 48.5715 25.5742C48.5715 25.0564 48.1517 24.6367 47.634 24.6367Z" fill="#961842"/>
<path d="M41.5539 8.60855C41.1877 8.24246 40.5943 8.24246 40.228 8.60855L37.1139 11.7226C36.7478 12.0887 36.7478 12.6824 37.1139 13.0485C37.2971 13.2316 37.537 13.3231 37.7769 13.3231C38.0169 13.3231 38.2567 13.2315 38.4398 13.0485L41.5539 9.93437C41.92 9.56827 41.92 8.97474 41.5539 8.60855Z" fill="#961842"/>
<path d="M12.0697 11.7061L8.9557 8.59195C8.5897 8.22586 7.99626 8.22586 7.62979 8.59195C7.2637 8.95805 7.2637 9.55167 7.62979 9.91777L10.7439 13.0319C10.927 13.215 11.1669 13.3065 11.4068 13.3065C11.6467 13.3065 11.8866 13.2149 12.0697 13.0319C12.4358 12.6659 12.4358 12.0721 12.0697 11.7061Z" fill="#961842"/>
<path d="M24.5955 1.57422C24.0778 1.57422 23.658 1.99394 23.658 2.51172V8.62122C23.658 9.139 24.0777 9.55872 24.5955 9.55872C25.1131 9.55872 25.533 9.139 25.533 8.62122V2.51172C25.533 1.99403 25.1131 1.57422 24.5955 1.57422Z" fill="#961842"/>
<path d="M25.2577 11.1302C25.0834 10.9558 24.8415 10.8555 24.595 10.8555C24.3484 10.8555 24.1065 10.9558 23.9322 11.1302C23.7578 11.3045 23.6575 11.5464 23.6575 11.793C23.6575 12.0405 23.7577 12.2814 23.9322 12.4558C24.1065 12.6311 24.3484 12.7305 24.595 12.7305C24.8415 12.7305 25.0834 12.6311 25.2577 12.4558C25.433 12.2814 25.5325 12.0395 25.5325 11.793C25.5325 11.5464 25.433 11.3046 25.2577 11.1302Z" fill="#961842"/>
</g>
<defs>
<clipPath id="clip0_156_817">
<rect width="48" height="48" fill="white" transform="translate(0.571533)"/>
</clipPath>
</defs>
</svg>
