<svg width="18" height="20" viewBox="0 0 18 20" fill="none" xmlns="http://www.w3.org/2000/svg">
<path d="M9 19C13.4183 19 17 15.4183 17 11C17 6.58172 13.4183 3 9 3C4.58172 3 1 6.58172 1 11C1 15.4183 4.58172 19 9 19Z" stroke="#961842" stroke-width="1.5" stroke-miterlimit="10" stroke-linecap="round" stroke-linejoin="round"/>
<path d="M12.1969 9.7525C12.4898 9.4596 12.4898 8.98473 12.1969 8.69184C11.904 8.39894 11.4291 8.39894 11.1363 8.69184L12.1969 9.7525ZM8.11103 12.7777L7.5807 13.3081C7.87359 13.6009 8.34847 13.6009 8.64136 13.3081L8.11103 12.7777ZM6.86358 10.4696C6.57069 10.1767 6.09582 10.1767 5.80292 10.4696C5.51003 10.7625 5.51003 11.2374 5.80292 11.5303L6.86358 10.4696ZM11.1363 8.69184L7.5807 12.2474L8.64136 13.3081L12.1969 9.7525L11.1363 8.69184ZM8.64136 12.2474L6.86358 10.4696L5.80292 11.5303L7.5807 13.3081L8.64136 12.2474Z" fill="#961842"/>
</svg>
