<svg width="275" height="34" viewBox="0 0 275 34" fill="none" xmlns="http://www.w3.org/2000/svg">
<path d="M100.306 6.60496L100.294 6.62338L100.284 6.64232C99.4629 8.11678 98.9882 9.97885 98.7131 11.7725C98.4358 13.5815 98.3501 15.4005 98.3501 16.8395C98.3501 18.2782 98.4357 20.1077 98.713 21.9218C98.9878 23.7191 99.4626 25.5855 100.287 27.0429L100.293 27.0537L100.3 27.0642C102.162 30.1802 105.72 32.3645 109.888 32.3645H165.112C169.243 32.3645 172.794 30.1769 174.695 27.0739L174.705 27.0585L174.713 27.0429C175.538 25.5855 176.013 23.7191 176.288 21.9218C176.564 20.1077 176.65 18.2782 176.65 16.8395C176.65 15.4007 176.564 13.5712 176.288 11.7571C176.013 9.95981 175.538 8.09339 174.713 6.63601L174.707 6.62525L174.701 6.61469C172.839 3.49872 169.28 1.31445 165.112 1.31445H109.888C105.757 1.31445 102.206 3.50203 100.306 6.60496Z" stroke="#961842" stroke-width="2"/>
<path d="M146.757 15.2487H151.434V15.1198C151.434 12.9283 150.591 12.7993 149.032 12.7993C147.136 12.7564 146.799 13.358 146.757 15.2487ZM113.934 12.8853C115.451 12.8853 116.293 13.0572 116.293 15.1628V15.2487H111.701C111.743 13.444 112.122 12.8853 113.934 12.8853ZM107.445 16.9247C107.445 22.0382 108.709 23.886 114.018 23.886C115.998 23.886 117.6 23.7142 118.779 23.0696C119.875 22.425 120.549 21.3078 120.549 19.288H116.378C116.335 20.7491 115.366 20.921 114.018 20.921C112.08 20.921 111.701 20.1045 111.701 17.6551V17.5692H120.549V16.9247C120.549 11.3383 119.074 9.92027 114.018 9.92027C108.625 9.92027 107.445 11.6391 107.445 16.9247ZM123.372 14.3893C123.372 17.1395 124.299 18.3857 129.945 18.3857C130.451 18.3857 131.251 18.3427 131.715 18.5576C132.136 18.7724 132.347 19.1592 132.347 19.8467C132.347 21.0499 131.925 21.1788 129.903 21.1788C128.807 21.1788 127.67 21.1358 127.585 19.6319H123.372C123.414 22.6399 124.805 23.6282 127.417 23.8431C128.217 23.886 129.06 23.886 129.945 23.886C133.526 23.886 136.518 23.2844 136.518 19.331C136.518 15.5495 134.58 15.2918 129.945 15.1628C127.628 15.1198 127.501 14.6042 127.501 13.8307C127.501 12.9283 127.585 12.6275 129.945 12.6275C130.788 12.6275 131.673 12.7134 131.841 13.7877H135.844V13.2291C135.844 9.96329 132.473 9.92027 129.945 9.92027C126.111 9.92027 123.372 10.0062 123.372 14.3893ZM158.259 9.92027H168.709V13.0572H165.591V23.7571H161.335V13.0572H158.217V9.92027H158.259ZM142.585 16.8387C142.585 11.5532 143.723 9.87725 149.116 9.87725C154.131 9.87725 155.605 11.2524 155.605 16.8387V17.4403H146.757V17.5692C146.757 20.0186 147.136 20.878 149.116 20.878C150.423 20.878 151.434 20.7491 151.518 19.2451H155.605C155.562 21.1788 154.931 22.296 153.835 22.9407C152.698 23.5852 151.097 23.7571 149.116 23.7571C143.849 23.7571 142.585 21.9523 142.585 16.8387ZM104.369 26.3354C102.22 23.972 101.757 20.3194 101.757 16.8387C101.757 13.358 102.22 9.70539 104.369 7.34202C105.718 5.88099 108.33 4.76367 110.521 4.76367H139.13V28.9137H110.521C108.288 28.9137 105.718 27.7965 104.369 26.3354Z" fill="#961842"/>
</svg>
