<svg width="14" height="18" viewBox="0 0 14 18" fill="none" xmlns="http://www.w3.org/2000/svg">
<path d="M12 17H2C1.44772 17 1 16.5523 1 16L1 2C1 1.44772 1.44772 1 2 1L7.56309 1C7.84165 1 8.10759 1.11619 8.29685 1.32059L12.7338 6.11246C12.9049 6.29731 13 6.53995 13 6.79187L13 16C13 16.5523 12.5523 17 12 17Z" stroke="#961842" stroke-width="1.5" stroke-linecap="round" stroke-linejoin="round"/>
<path d="M13 7L8 7C7.44772 7 7 6.55228 7 6L7 1" stroke="#961842" stroke-width="1.5" stroke-linecap="round" stroke-linejoin="round"/>
<path d="M10.5303 10.0303C10.8232 9.73744 10.8232 9.26256 10.5303 8.96967C10.2374 8.67678 9.76256 8.67678 9.46967 8.96967L10.5303 10.0303ZM6 13.5L5.46967 14.0303C5.76256 14.3232 6.23744 14.3232 6.53033 14.0303L6 13.5ZM4.53033 10.9697C4.23744 10.6768 3.76256 10.6768 3.46967 10.9697C3.17678 11.2626 3.17678 11.7374 3.46967 12.0303L4.53033 10.9697ZM9.46967 8.96967L5.46967 12.9697L6.53033 14.0303L10.5303 10.0303L9.46967 8.96967ZM6.53033 12.9697L4.53033 10.9697L3.46967 12.0303L5.46967 14.0303L6.53033 12.9697Z" fill="#961842"/>
</svg>
