<svg width="120" height="245" viewBox="0 0 120 245" fill="none" xmlns="http://www.w3.org/2000/svg">
<path d="M0 0H120V245L60 229L0 245V0Z" fill="#961842"/>
<path d="M23.575 138.936V132.216L43.287 114.648C44.823 113.283 45.8897 111.992 46.487 110.776C47.0843 109.56 47.383 108.387 47.383 107.256C47.383 105.72 47.0523 104.355 46.391 103.16C45.7297 101.944 44.8123 100.984 43.639 100.28C42.487 99.576 41.1537 99.224 39.639 99.224C38.039 99.224 36.6203 99.5973 35.383 100.344C34.167 101.069 33.2177 102.04 32.535 103.256C31.8523 104.472 31.5323 105.784 31.575 107.192H23.639C23.639 104.12 24.3217 101.443 25.687 99.16C27.0737 96.8773 28.9723 95.1067 31.383 93.848C33.815 92.5893 36.6203 91.96 39.799 91.96C42.743 91.96 45.3883 92.6213 47.735 93.944C50.0817 95.2453 51.927 97.0587 53.271 99.384C54.615 101.688 55.287 104.344 55.287 107.352C55.287 109.549 54.9883 111.395 54.391 112.888C53.7937 114.381 52.8977 115.757 51.703 117.016C50.5297 118.275 49.0683 119.672 47.319 121.208L33.335 133.592L32.631 131.672H55.287V138.936H23.575ZM79.556 139.96C76.292 139.96 73.412 139.267 70.916 137.88C68.42 136.472 66.468 134.52 65.06 132.024C63.6733 129.528 62.98 126.648 62.98 123.384V108.536C62.98 105.272 63.6733 102.392 65.06 99.896C66.468 97.4 68.42 95.4587 70.916 94.072C73.412 92.664 76.292 91.96 79.556 91.96C82.82 91.96 85.6893 92.664 88.164 94.072C90.66 95.4587 92.612 97.4 94.02 99.896C95.428 102.392 96.132 105.272 96.132 108.536V123.384C96.132 126.648 95.428 129.528 94.02 132.024C92.612 134.52 90.66 136.472 88.164 137.88C85.6893 139.267 82.82 139.96 79.556 139.96ZM79.556 132.632C81.1773 132.632 82.6493 132.248 83.972 131.48C85.2947 130.691 86.34 129.645 87.108 128.344C87.876 127.021 88.26 125.549 88.26 123.928V107.96C88.26 106.317 87.876 104.845 87.108 103.544C86.34 102.221 85.2947 101.176 83.972 100.408C82.6493 99.6187 81.1773 99.224 79.556 99.224C77.9347 99.224 76.4627 99.6187 75.14 100.408C73.8173 101.176 72.772 102.221 72.004 103.544C71.236 104.845 70.852 106.317 70.852 107.96V123.928C70.852 125.549 71.236 127.021 72.004 128.344C72.772 129.645 73.8173 130.691 75.14 131.48C76.4627 132.248 77.9347 132.632 79.556 132.632Z" fill="white"/>
<path d="M22.1622 181V176.455C23.0472 176.62 23.7297 176.605 24.2097 176.41C24.6897 176.2 25.0497 175.81 25.2897 175.24C25.5297 174.67 25.7397 173.912 25.9197 172.967C26.1597 171.632 26.3697 170.095 26.5497 168.355C26.7447 166.615 26.9097 164.755 27.0447 162.775C27.1947 160.795 27.3297 158.77 27.4497 156.7H45.3372V181H39.9372V161.785H32.2197C32.1447 162.76 32.0547 163.855 31.9497 165.07C31.8447 166.27 31.7322 167.485 31.6122 168.715C31.4922 169.945 31.3572 171.115 31.2072 172.225C31.0722 173.32 30.9297 174.257 30.7797 175.037C30.4347 176.792 29.9397 178.18 29.2947 179.2C28.6647 180.22 27.7797 180.873 26.6397 181.158C25.4997 181.458 24.0072 181.405 22.1622 181ZM62.7058 181.675C60.2458 181.675 58.0858 181.143 56.2258 180.077C54.3658 179.012 52.9108 177.535 51.8608 175.645C50.8258 173.755 50.3083 171.58 50.3083 169.12C50.3083 166.465 50.8183 164.162 51.8383 162.212C52.8583 160.247 54.2758 158.725 56.0908 157.645C57.9058 156.565 60.0058 156.025 62.3908 156.025C64.9108 156.025 67.0483 156.617 68.8033 157.802C70.5733 158.972 71.8858 160.63 72.7408 162.775C73.5958 164.92 73.9183 167.447 73.7083 170.357H68.3308V168.377C68.3158 165.737 67.8508 163.81 66.9358 162.595C66.0208 161.38 64.5808 160.772 62.6158 160.772C60.3958 160.772 58.7458 161.462 57.6658 162.842C56.5858 164.207 56.0458 166.21 56.0458 168.85C56.0458 171.31 56.5858 173.215 57.6658 174.565C58.7458 175.915 60.3208 176.59 62.3908 176.59C63.7258 176.59 64.8733 176.297 65.8333 175.712C66.8083 175.112 67.5583 174.25 68.0833 173.125L73.4383 174.745C72.5083 176.935 71.0683 178.637 69.1183 179.852C67.1833 181.067 65.0458 181.675 62.7058 181.675ZM54.3358 170.357V166.262H71.0533V170.357H54.3358ZM84.079 181V161.515H75.9565V156.7H97.624V161.515H89.5015V181H84.079Z" fill="white"/>
<path d="M22.3605 205V195.82H30.3335V205H28.285V197.741H24.409V205H22.3605ZM37.1318 205.255C36.2364 205.255 35.4856 205.043 34.8793 204.617C34.2729 204.192 33.8168 203.614 33.5108 202.883C33.2048 202.147 33.0518 201.322 33.0518 200.41C33.0518 199.486 33.2048 198.659 33.5108 197.928C33.8168 197.197 34.2644 196.622 34.8538 196.202C35.4488 195.777 36.1826 195.565 37.0553 195.565C37.9223 195.565 38.6731 195.777 39.3078 196.202C39.9481 196.622 40.4439 197.197 40.7953 197.928C41.1466 198.653 41.3223 199.481 41.3223 200.41C41.3223 201.328 41.1494 202.152 40.8038 202.883C40.4581 203.614 39.9708 204.192 39.3418 204.617C38.7128 205.043 37.9761 205.255 37.1318 205.255ZM32.7033 209.08V195.82H34.5138V202.263H34.7688V209.08H32.7033ZM36.8173 203.419C37.3499 203.419 37.7891 203.286 38.1348 203.019C38.4804 202.753 38.7354 202.393 38.8998 201.94C39.0698 201.481 39.1548 200.971 39.1548 200.41C39.1548 199.855 39.0698 199.35 38.8998 198.897C38.7298 198.438 38.4663 198.075 38.1093 197.809C37.7523 197.537 37.2989 197.401 36.7493 197.401C36.2279 197.401 35.8029 197.528 35.4743 197.783C35.1456 198.033 34.9019 198.384 34.7433 198.837C34.5903 199.285 34.5138 199.809 34.5138 200.41C34.5138 201.005 34.5903 201.529 34.7433 201.982C34.9019 202.436 35.1484 202.79 35.4828 203.045C35.8228 203.294 36.2676 203.419 36.8173 203.419ZM45.7629 205.255C45.0999 205.255 44.5389 205.13 44.0799 204.881C43.6209 204.626 43.2724 204.289 43.0344 203.869C42.802 203.45 42.6859 202.988 42.6859 202.484C42.6859 202.042 42.7595 201.645 42.9069 201.294C43.0542 200.937 43.2809 200.631 43.5869 200.376C43.8929 200.115 44.2895 199.903 44.7769 199.738C45.1452 199.619 45.5759 199.512 46.0689 199.415C46.5675 199.319 47.1059 199.231 47.6839 199.152C48.2675 199.067 48.8767 198.976 49.5114 198.88L48.7804 199.296C48.786 198.662 48.6444 198.194 48.3554 197.894C48.0664 197.594 47.579 197.443 46.8934 197.443C46.4797 197.443 46.0802 197.54 45.6949 197.732C45.3095 197.925 45.0404 198.257 44.8874 198.727L43.0174 198.14C43.244 197.364 43.6747 196.741 44.3094 196.27C44.9497 195.8 45.811 195.565 46.8934 195.565C47.7094 195.565 48.4262 195.698 49.0439 195.964C49.6672 196.231 50.129 196.667 50.4294 197.273C50.5937 197.596 50.6929 197.928 50.7269 198.268C50.7609 198.602 50.7779 198.968 50.7779 199.364V205H48.9844V203.011L49.2819 203.334C48.8682 203.997 48.3837 204.484 47.8284 204.796C47.2787 205.102 46.5902 205.255 45.7629 205.255ZM46.1709 203.623C46.6355 203.623 47.0322 203.541 47.3609 203.376C47.6895 203.212 47.9502 203.011 48.1429 202.773C48.3412 202.535 48.4744 202.311 48.5424 202.101C48.65 201.841 48.7095 201.543 48.7209 201.209C48.7379 200.869 48.7464 200.594 48.7464 200.384L49.3754 200.571C48.7577 200.668 48.2279 200.753 47.7859 200.826C47.3439 200.9 46.9642 200.971 46.6469 201.039C46.3295 201.101 46.049 201.172 45.8054 201.251C45.5674 201.336 45.3662 201.436 45.2019 201.549C45.0375 201.662 44.91 201.793 44.8194 201.94C44.7344 202.087 44.6919 202.26 44.6919 202.458C44.6919 202.685 44.7485 202.886 44.8619 203.062C44.9752 203.232 45.1395 203.368 45.3549 203.47C45.5759 203.572 45.8479 203.623 46.1709 203.623ZM52.9738 205L52.9908 195.82H55.0648V200.24L58.4223 195.82H60.9808L57.4193 200.41L61.2868 205H58.5753L55.0648 200.58V205H52.9738ZM64.4417 205V197.639H61.3732V195.82H69.5587V197.639H66.4902V205H64.4417ZM79.1255 195.82V205H77.162V199.007L72.793 205H71.1525V195.82H73.116V201.659L77.502 195.82H79.1255ZM81.4953 205L81.5123 195.82H83.5863V200.24L86.9438 195.82H89.5023L85.9408 200.41L89.8083 205H87.0968L83.5863 200.58V205H81.4953ZM98.6157 195.82V205H96.6522V199.007L92.2832 205H90.6427V195.82H92.6062V201.659L96.9922 195.82H98.6157Z" fill="white"/>
<path d="M57.4025 72.6384C47.025 71.3472 39.1994 62.4746 39.1994 51.9999C39.1994 48.6447 40.017 45.3181 41.562 42.3664C43.465 40.3582 44.202 37.4807 43.485 34.8044C42.7501 32.0619 40.5874 29.8992 37.841 29.1604C37.409 29.044 36.9476 29.1677 36.6315 29.4844C34.6226 31.4974 33.831 34.4516 34.5659 37.1945C35.17 39.4489 36.7393 41.3106 38.804 42.3126C38.3336 43.3425 37.9413 44.4076 37.626 45.496C37.3956 45.185 37.142 44.8886 36.8643 44.6109C34.8565 42.6032 31.9024 41.8115 29.1544 42.5449C28.722 42.6602 28.3843 42.998 28.2689 43.4304C27.5356 46.1782 28.3274 49.1325 30.3349 51.1402C31.8475 52.653 33.8971 53.4752 35.9914 53.4752C36.2421 53.4752 36.4936 53.4631 36.7449 53.4394C36.8263 54.763 37.018 56.0599 37.3135 57.3192C36.9581 57.165 36.5899 57.0349 36.2101 56.9331C33.4679 56.198 30.5134 56.9896 28.5001 58.9987C28.1835 59.3147 28.0599 59.7761 28.1761 60.2082C28.915 62.9549 31.0778 65.1174 33.8203 65.8521C34.4975 66.0336 35.1873 66.122 35.8729 66.122C37.505 66.1219 39.1108 65.6187 40.4585 64.6794C41.2171 65.847 42.0779 66.9437 43.029 67.9566C40.3535 68.1015 37.8965 69.5972 36.5438 71.9347C36.3196 72.3221 36.3196 72.7996 36.5438 73.187C37.9683 75.6486 40.617 77.1779 43.4564 77.1779C46.2848 77.1779 48.9236 75.6601 50.3521 73.2151C52.4453 74.1685 54.7091 74.823 57.0938 75.1196C57.1461 75.1261 57.1981 75.1292 57.2496 75.1292C57.8711 75.1292 58.4098 74.6661 58.4885 74.0334C58.5739 73.3481 58.0875 72.7237 57.4025 72.6384ZM34.4674 63.4371C32.8286 62.998 31.4909 61.8157 30.8365 60.2727C32.1746 59.2636 33.9236 58.9082 35.5631 59.3477C37.2019 59.7869 38.5396 60.9691 39.194 62.5121C37.8558 63.5212 36.106 63.8762 34.4674 63.4371ZM36.9806 36.5474C36.5415 34.9085 36.8965 33.159 37.9056 31.8207C39.4488 32.4751 40.6311 33.8129 41.0701 35.4515C41.5093 37.0904 41.1541 38.8399 40.145 40.1781C38.602 39.5236 37.4198 38.1861 36.9806 36.5474ZM32.1028 49.3722C30.903 48.1726 30.3358 46.48 30.5405 44.8164C32.2044 44.6119 33.8968 45.1789 35.0964 46.3786C36.2961 47.5782 36.8634 49.271 36.6586 50.9345C34.9946 51.1387 33.3025 50.5719 32.1028 49.3722ZM43.4565 74.6776C41.7599 74.6776 40.1619 73.8819 39.1304 72.5606C40.1619 71.2396 41.7599 70.4437 43.4565 70.4437C45.1531 70.4437 46.7511 71.2395 47.7826 72.5606C46.7513 73.8819 45.1531 74.6776 43.4565 74.6776Z" fill="white"/>
<path d="M83.7862 56.9329C83.4064 57.0346 83.0382 57.1647 82.6829 57.319C82.9784 56.0595 83.1701 54.7627 83.2515 53.4391C83.5027 53.4629 83.7541 53.475 84.005 53.475C86.099 53.475 88.149 52.6526 89.6615 51.14C91.6691 49.1322 92.4609 46.1781 91.7275 43.4301C91.6121 42.9977 91.2744 42.66 90.842 42.5446C88.0944 41.8117 85.1399 42.6031 83.1321 44.6106C82.8544 44.8884 82.6009 45.1849 82.3704 45.4957C82.0551 44.4074 81.6627 43.3424 81.1924 42.3124C83.2571 41.3104 84.8264 39.4487 85.4305 37.1941C86.1654 34.4515 85.3737 31.4972 83.3649 29.4841C83.0489 29.1675 82.5877 29.0435 82.1554 29.1601C79.4089 29.899 77.2462 32.0616 76.5114 34.8041C75.7944 37.4804 76.5314 40.358 78.4344 42.3661C79.9795 45.3179 80.797 48.6445 80.797 51.9996C80.797 62.4744 72.9714 71.347 62.5939 72.6381C61.9089 72.7235 61.4225 73.3479 61.5077 74.0329C61.5865 74.6656 62.125 75.1287 62.7466 75.1287C62.7981 75.1287 62.8501 75.1256 62.9025 75.1191C65.2871 74.8224 67.551 74.168 69.6441 73.2146C71.0725 75.6596 73.7114 77.1774 76.5399 77.1774C79.3792 77.1774 82.0279 75.6482 83.4525 73.1865C83.6766 72.7991 83.6766 72.3216 83.4525 71.9342C82.0997 69.5967 79.6427 68.101 76.9672 67.9561C77.9184 66.9432 78.7791 65.8466 79.5376 64.679C80.8854 65.6184 82.4911 66.1215 84.1234 66.1215C84.8089 66.1215 85.4989 66.033 86.176 65.8516C88.9185 65.1169 91.0812 62.9542 91.8201 60.2077C91.9365 59.7756 91.8127 59.3144 91.4961 58.9982C89.4831 56.9895 86.5289 56.1976 83.7862 56.9329ZM84.9 46.3785C86.0997 45.1786 87.7916 44.6115 89.4559 44.8162C89.6606 46.48 89.0934 48.1726 87.8936 49.3721C86.694 50.5719 85.0012 51.139 83.3377 50.9344C83.133 49.2709 83.7002 47.5781 84.9 46.3785ZM78.9262 35.4514C79.3654 33.8127 80.5477 32.475 82.0907 31.8206C83.0999 33.1589 83.4549 34.9084 83.0157 36.5472C82.5765 38.1861 81.3942 39.5237 79.8514 40.1781C78.8422 38.8399 78.4871 37.0904 78.9262 35.4514ZM80.8661 72.5606C79.8346 73.8817 78.2366 74.6776 76.54 74.6776C74.8434 74.6776 73.2454 73.8819 72.2139 72.5606C73.2454 71.2396 74.8434 70.4437 76.54 70.4437C78.2366 70.4437 79.8346 71.2396 80.8661 72.5606ZM85.529 63.4371C83.8901 63.8762 82.1407 63.5212 80.8024 62.5121C81.4567 60.969 82.7945 59.7867 84.4332 59.3477C86.0726 58.9087 87.8217 59.2637 89.1599 60.2727C88.5055 61.8157 87.1679 62.998 85.529 63.4371Z" fill="white"/>
<path d="M68.0339 64.0028C68.927 63.3539 69.2822 62.2566 68.9388 61.2074L66.9754 55.2095L72.101 51.5026C72.9945 50.8564 73.3525 49.7609 73.0129 48.7119C72.6733 47.6626 71.7413 46.9849 70.6387 46.9849H64.3103L62.3727 40.9906C62.0333 39.9409 61.1013 39.2625 59.998 39.2625C58.8948 39.2625 57.9628 39.9409 57.6234 40.9905L55.6858 46.9849H49.3574C48.2548 46.9849 47.3228 47.6628 46.9832 48.7119C46.6435 49.761 47.0014 50.8564 47.895 51.5025L53.0207 55.2095L51.0573 61.2075C50.7139 62.2568 51.0692 63.3539 51.9622 64.0028C52.4079 64.3266 52.9185 64.4885 53.429 64.4885C53.9414 64.4885 54.4537 64.3255 54.9003 63.9995L59.998 60.2786L65.0958 63.9995C65.9874 64.6505 67.1407 64.6516 68.0339 64.0028ZM59.998 57.4813C59.7394 57.4813 59.4805 57.5614 59.261 57.7216L53.4374 61.9721L55.6803 55.1203C55.8494 54.6036 55.6653 54.037 55.2248 53.7185L49.3709 49.4849H56.5953C57.1375 49.4849 57.6179 49.1353 57.7848 48.6194L59.9979 41.7726L62.211 48.6194C62.3779 49.1353 62.8583 49.4849 63.4005 49.4849H70.6249L64.771 53.7185C64.3307 54.037 64.1465 54.6036 64.3155 55.1203L66.5584 61.9721L60.7348 57.7216C60.5155 57.5613 60.2568 57.4813 59.998 57.4813Z" fill="white"/>
<path d="M59.998 22.5C60.3268 22.5 60.6493 22.3663 60.8817 22.1336C61.1142 21.9013 61.248 21.5788 61.248 21.25C61.248 20.9212 61.1143 20.5987 60.8817 20.3663C60.6493 20.1338 60.3268 20 59.998 20C59.6693 20 59.3468 20.1336 59.1143 20.3663C58.8818 20.5989 58.748 20.9212 58.748 21.25C58.748 21.5788 58.8817 21.9 59.1143 22.1336C59.3468 22.3663 59.6693 22.5 59.998 22.5Z" fill="white"/>
<path d="M50.2036 33.9536C50.4158 34.4084 50.8666 34.6755 51.3374 34.6755C51.5141 34.6755 51.694 34.6377 51.8649 34.5582C52.4905 34.2665 52.7613 33.5227 52.4695 32.897L49.2068 25.9C48.915 25.2746 48.1716 25.0039 47.5455 25.2954C46.9199 25.5871 46.6491 26.3309 46.9409 26.9566L50.2036 33.9536Z" fill="white"/>
<path d="M59.9964 34.3124H59.998C60.6878 34.3124 61.2472 33.7538 61.248 33.064L61.2559 26.8844C61.2568 26.1941 60.6979 25.6336 60.0075 25.6328C60.007 25.6328 60.0064 25.6328 60.0059 25.6328C59.3162 25.6328 58.7568 26.1914 58.7559 26.8811L58.748 33.0608C58.7472 33.7511 59.306 34.3115 59.9964 34.3124Z" fill="white"/>
<path d="M68.1314 34.5583C68.3023 34.6379 68.4821 34.6755 68.6589 34.6755C69.1298 34.6755 69.5806 34.4083 69.7927 33.9536L73.0554 26.9566C73.3472 26.3309 73.0764 25.5871 72.4508 25.2954C71.8249 25.004 71.0815 25.2745 70.7896 25.9L67.5268 32.897C67.2351 33.5228 67.5058 34.2665 68.1314 34.5583Z" fill="white"/>
</svg>
