<svg width="275" height="20" viewBox="0 0 275 20" fill="none" xmlns="http://www.w3.org/2000/svg">
<path fill-rule="evenodd" clip-rule="evenodd" d="M82.862 19.6117C80.9392 19.6117 71.3501 19.1426 71.3501 9.89175C71.3501 8.88634 71.6728 0.0678016 82.863 0.0673828C88.1072 0.0673828 91.4867 1.87565 91.5273 1.89855C92.137 2.3066 92.2211 2.81755 91.9712 3.31048C91.9712 3.31048 91.3712 4.50855 91.3698 4.5133C91.0539 5.10535 90.4673 5.31182 89.9006 5.02201L89.8995 5.02131C89.8235 4.97594 86.6599 3.08558 81.8735 3.48973C75.9175 3.99272 75.616 8.96493 75.616 9.9575C75.616 11.1402 75.9939 15.088 80.8434 16.2326C84.1867 17.0193 88.3473 15.8198 89.261 15.4518C89.261 15.2744 89.2654 12.4757 89.2654 12.4757C89.2654 12.0351 88.9025 11.6775 88.4561 11.6775H83.8321C83.2345 11.6775 82.8422 11.197 82.8422 10.6078V9.94661C82.8422 9.35833 83.2345 8.87922 83.8321 8.87922H91.8264C92.423 8.87922 92.9085 9.35833 92.9085 9.94661V16.3319C92.9085 17.1713 92.424 17.6194 92.0258 17.8415C91.9144 17.915 89.2252 19.6117 82.862 19.6117ZM106.312 0.436351C106.834 0.436351 107.45 0.811604 107.681 1.27117C107.681 1.27117 116.462 18.265 116.65 18.6282C116.838 18.9906 116.61 19.3805 116.089 19.3805H113.272C112.526 19.3805 112.141 19.012 111.912 18.5625C111.774 18.2884 111.548 17.8752 111.37 17.5495C111.256 17.3411 111.162 17.1685 111.123 17.0913C110.969 16.7875 110.634 16.6898 110.113 16.689L101.075 16.6841C100.555 16.6837 100.186 16.8386 100.066 17.0913C100.015 17.198 99.8428 17.5425 99.6653 17.897C99.5319 18.163 99.3958 18.4347 99.3065 18.6154C99.0992 19.0368 98.7481 19.3805 97.9818 19.3805H96.0407C95.5193 19.3805 95.2656 19.0526 95.4991 18.5944L103.899 1.27871C104.124 0.815931 104.733 0.436351 105.253 0.436351H106.312ZM101.828 13.1626C101.609 13.6274 101.854 14.0097 102.374 14.0097L108.597 14.0145C109.117 14.0145 109.367 13.6321 109.152 13.1654L105.929 6.16856C105.714 5.70285 105.358 5.6995 105.138 6.16563L101.828 13.1626ZM172.585 18.5834V1.40505C172.585 0.752412 173.011 0.436351 173.533 0.43691H175.918C176.437 0.43691 176.774 0.855856 176.774 1.37029V18.5386C176.774 19.0526 176.348 19.3805 175.827 19.3805H173.533C173.011 19.3805 172.585 19.0564 172.585 18.5834ZM134.484 11.1331C133.986 11.28 133.822 11.7443 134.121 12.1648C134.121 12.1648 138.552 18.3942 138.731 18.6444C138.911 18.8961 138.829 19.3805 138.308 19.3805H135.36C134.839 19.3805 134.447 19.1683 134.034 18.6221L129.596 12.4547C129.294 12.0342 128.623 11.6909 128.103 11.6909C128.103 11.6909 123.827 11.6957 123.827 11.7014C123.827 11.7062 123.825 11.7099 123.821 11.7099C123.816 11.7099 123.815 18.5386 123.815 18.5386C123.815 19.0526 123.389 19.3805 122.868 19.3805H120.613C120.092 19.3805 119.667 19.053 119.667 18.5386V1.36987C119.667 0.855438 120.093 0.436351 120.613 0.436351H130.145C130.665 0.436351 131.516 0.455478 132.036 0.478792C132.036 0.478792 133.321 0.538401 134.273 0.741941C135.224 0.946458 136.04 1.27299 136.723 1.71832C137.405 2.16114 137.929 2.73993 138.295 3.44687C138.66 4.15577 138.844 5.02731 138.844 6.06372C138.844 7.64876 138.367 8.86484 137.417 9.70734C136.467 10.5473 134.484 11.1331 134.484 11.1331ZM131.085 8.8372C131.085 8.8372 131.742 8.81053 132.326 8.67805C132.91 8.54696 133.374 8.35906 133.713 8.11783C134.053 7.87659 134.296 7.5939 134.443 7.26877C134.588 6.94419 134.662 6.58807 134.662 6.20332C134.662 5.81676 134.588 5.46245 134.443 5.13732C134.296 4.81232 134.053 4.52963 133.713 4.2884C133.374 4.04856 132.91 3.86317 132.326 3.73013C131.742 3.59709 131.085 3.5714 131.085 3.5714C130.565 3.5499 129.714 3.53133 129.193 3.53133H124.774C124.254 3.53133 123.828 3.95126 123.828 4.46513V7.94388C123.828 8.45734 124.254 8.87782 124.774 8.87782H129.193C129.714 8.87782 130.565 8.85967 131.085 8.8372ZM199.826 1.26978C199.826 0.774886 200.246 0.436351 200.767 0.436351V0.43691H202.704C203.224 0.43691 203.65 0.855856 203.65 1.37029V18.4466C203.65 18.9605 203.224 19.3805 202.704 19.3805H201.126C200.328 19.3805 199.881 19.0834 199.512 18.7188L187.891 6.79928C187.532 6.42836 187.237 6.54563 187.237 7.05908C187.237 7.05908 187.226 18.3909 187.226 18.6282C187.226 19.1012 186.863 19.3805 186.343 19.3805H184.244C183.722 19.3805 183.384 19.0463 183.384 18.6959V1.13478C183.384 0.783404 183.672 0.436351 184.332 0.436351H186.427C187.14 0.436351 187.67 0.737753 188.033 1.10756L199.175 12.5133C199.537 12.8833 199.832 12.7664 199.832 12.2516L199.826 1.26978ZM154.415 11.1422C154.664 11.5918 155.08 11.5932 155.333 11.1445L160.961 1.2473C161.219 0.800573 161.654 0.43691 162.376 0.43691H165.208C165.73 0.43691 166.155 0.855856 166.155 1.37029V18.4466C166.155 19.1245 165.73 19.3805 165.208 19.3805H163.093C162.572 19.3805 162.171 19.0568 162.171 18.5611C162.171 18.5316 162.171 18.4223 162.171 18.2465C162.172 16.2927 162.176 6.1257 162.157 6.1257C162.137 6.1257 155.302 18.5615 155.302 18.5615C155.053 19.012 154.45 19.0102 154.204 18.5577C154.204 18.5577 147.426 6.08982 147.405 6.08982C147.386 6.08982 147.378 18.3236 147.378 18.5611C147.378 19.0564 147.002 19.3805 146.481 19.3805H144.645C144.04 19.3805 143.697 19.0297 143.697 18.5167V1.36987C143.697 0.855438 144.124 0.436351 144.645 0.436351H147.599C148.261 0.436351 148.736 0.813 148.967 1.27117L154.415 11.1422Z" fill="#961842"/>
</svg>
