<svg width="270" height="228" viewBox="0 0 270 228" fill="none" xmlns="http://www.w3.org/2000/svg">
<g opacity="0.15" clip-path="url(#clip0_322_399)">
<path d="M117.988 104.268V92.8618H137.366V137.928C137.306 138.876 137.434 139.826 137.742 140.725C138.05 141.623 138.533 142.452 139.162 143.164C140.609 144.375 142.437 145.039 144.324 145.039C146.212 145.039 148.039 144.375 149.487 143.164C150.116 142.452 150.598 141.623 150.907 140.725C151.215 139.826 151.342 138.876 151.282 137.928V88.7105C151.345 87.7392 151.212 86.7651 150.891 85.8463C150.57 84.9276 150.067 84.0828 149.412 83.3624C148.671 82.7046 147.806 82.2005 146.869 81.8795C145.931 81.5585 144.939 81.4269 143.95 81.4924H112.527C111.544 81.432 110.559 81.566 109.628 81.8869C108.697 82.2078 107.839 82.7092 107.102 83.3624C106.448 84.0828 105.945 84.9276 105.623 85.8463C105.302 86.7651 105.169 87.7392 105.232 88.7105V100.716C105.298 104.649 105.136 108.582 104.746 112.496C104.384 115.592 103.733 118.647 102.8 121.622C102.046 124.041 100.936 126.335 99.5082 128.428C98.222 130.336 96.6145 132.006 94.7573 133.365C93.3446 134.373 92.3263 135.84 91.8768 137.516C91.6986 138.315 91.7037 139.144 91.8916 139.941C92.0795 140.737 92.4453 141.481 92.9617 142.116C93.4498 142.829 94.0749 143.438 94.8007 143.906C95.5264 144.375 96.3383 144.695 97.1889 144.847C98.0282 144.964 98.8827 144.908 99.6998 144.683C100.517 144.458 101.279 144.068 101.94 143.538C104.515 141.756 106.81 139.601 108.748 137.142C110.808 134.513 112.507 131.62 113.799 128.541C115.233 125.039 116.275 121.389 116.903 117.657C117.647 113.234 118.01 108.754 117.988 104.268Z" fill="#961842"/>
<path d="M346.445 182.47C358.509 168.501 366.513 151.493 369.587 133.295C372.661 115.097 370.688 96.4048 363.881 79.2494C357.075 62.094 345.695 47.1317 330.98 35.9881C316.264 24.8445 298.775 17.9459 280.413 16.0418C262.051 14.1378 243.519 17.3011 226.829 25.1881C210.139 33.0752 195.93 45.3842 185.747 60.7778C175.563 76.1714 169.794 94.0608 169.067 112.502C168.34 130.943 172.682 149.231 181.621 165.379L170.847 176.15C166.857 180.136 164.262 185.303 163.446 190.882C162.63 196.462 163.639 202.156 166.321 207.116L118.474 254.95C117.081 256.351 116.299 258.247 116.299 260.223C116.299 262.199 117.081 264.095 118.474 265.496C119.171 266.196 119.998 266.751 120.91 267.13C121.822 267.509 122.799 267.703 123.787 267.703C125.762 267.704 127.658 266.924 129.061 265.534L176.907 217.7C180.738 219.756 185.017 220.835 189.365 220.842C192.822 220.891 196.255 220.256 199.465 218.972C202.676 217.688 205.6 215.781 208.069 213.362L218.132 203.264C236.341 214.241 257.555 219.179 278.741 217.372C299.927 215.565 319.998 207.106 336.083 193.204L409.854 266.992C411.257 268.383 413.153 269.163 415.128 269.161C416.607 269.162 418.052 268.726 419.283 267.906C420.513 267.087 421.473 265.921 422.041 264.557C422.61 263.192 422.761 261.69 422.476 260.24C422.191 258.79 421.483 257.456 420.44 256.408L346.445 182.47ZM197.295 202.591C195.155 204.622 192.316 205.754 189.365 205.754C186.413 205.754 183.575 204.622 181.434 202.591C179.332 200.487 178.152 197.635 178.152 194.662C178.152 191.689 179.332 188.837 181.434 186.734L190.001 178.132C194.621 184.153 199.904 189.635 205.75 194.475L197.295 202.591ZM335.709 171.849L306.38 142.565C312.737 133.279 315.373 121.945 313.765 110.808C312.157 99.6705 306.423 89.5437 297.699 82.4337C288.975 75.3237 277.898 71.7495 266.662 72.4193C255.427 73.0891 244.853 77.954 237.036 86.05C229.219 94.146 224.729 104.882 224.457 116.132C224.184 127.381 228.148 138.322 235.564 146.787C242.979 155.252 253.305 160.623 264.495 161.836C275.685 163.049 286.922 160.015 295.981 153.336L325.459 182.433C308.49 196.716 286.66 203.896 264.523 202.474C242.386 201.051 221.655 191.137 206.655 174.8C191.655 158.462 183.546 136.964 184.02 114.793C184.495 92.6216 193.516 71.4901 209.201 55.809C224.886 40.128 246.024 31.109 268.201 30.6346C290.378 30.1603 311.882 38.2671 328.223 53.2631C344.565 68.2591 354.482 88.9854 355.905 111.116C357.328 133.247 350.146 155.072 335.859 172.036L335.709 171.849ZM299.908 116.573C299.908 122.49 298.153 128.275 294.865 133.195C291.576 138.115 286.902 141.95 281.434 144.215C275.965 146.479 269.948 147.072 264.143 145.917C258.337 144.763 253.005 141.913 248.819 137.729C244.634 133.545 241.784 128.214 240.629 122.41C239.474 116.606 240.067 110.59 242.332 105.123C244.597 99.6562 248.433 94.9835 253.355 91.6959C258.276 88.4083 264.062 86.6536 269.981 86.6536C277.918 86.6536 285.531 89.8058 291.143 95.4167C296.755 101.028 299.908 108.638 299.908 116.573Z" fill="#961842"/>
<path d="M269.981 127.792C276.179 127.792 281.204 122.769 281.204 116.573C281.204 110.376 276.179 105.353 269.981 105.353C263.783 105.353 258.759 110.376 258.759 116.573C258.759 122.769 263.783 127.792 269.981 127.792Z" fill="#961842"/>
<path d="M137.254 207.005V206.482C137.254 206.482 137.254 206.257 137.254 206.182C137.254 206.108 137.254 206.182 137.254 206.182C137.063 205.562 136.745 204.989 136.319 204.5C135.899 204.011 135.391 203.605 134.822 203.303H134.448H134.186C132.69 202.592 131.194 201.919 129.66 201.358C98.0866 186.997 78.0353 167.774 69.4687 143.464C56.8244 107.486 72.9851 70.4237 77.362 61.4853C89.2763 58.1284 99.4618 50.3559 105.843 39.7517C112.224 29.1475 114.32 16.5098 111.704 4.41424C111.561 3.68112 111.274 2.98381 110.858 2.36321C110.443 1.74261 109.907 1.2112 109.284 0.800159C108.66 0.389118 107.96 0.106714 107.226 -0.0304911C106.492 -0.167696 105.737 -0.156939 105.007 0.00114803C92.8186 2.70339 82.1362 9.98853 75.1724 20.348C68.2085 30.7075 65.4966 43.3476 67.5982 55.651C65.7506 59.3042 64.09 63.049 62.6228 66.8708C61.4636 64.4243 60.1126 62.0733 58.5826 59.8397C54.9901 54.5661 50.3855 50.0586 45.0361 46.5789C39.6866 43.0991 33.699 40.7165 27.4209 39.5694C26.6978 39.4353 25.9553 39.4456 25.2362 39.5996C24.5172 39.7537 23.8357 40.0485 23.2311 40.467C22.6068 40.8999 22.0764 41.4542 21.6715 42.0968C21.2665 42.7394 20.9954 43.4571 20.8743 44.2069C18.722 55.9456 20.9637 68.0657 27.1723 78.2589C33.3809 88.4521 43.1227 96.0063 54.5424 99.4828C53.7446 105.594 53.4443 111.76 53.6446 117.921C49.7421 114.726 45.3781 112.141 40.7011 110.254C34.7812 107.881 28.4484 106.708 22.0711 106.805C15.6939 106.901 9.39938 108.264 3.55388 110.815C2.87053 111.092 2.25193 111.508 1.73691 112.035C1.2219 112.563 0.821597 113.192 0.561155 113.881C0.274103 114.562 0.126221 115.293 0.126221 116.032C0.126221 116.771 0.274103 117.502 0.561155 118.182C4.33012 126.895 10.5681 134.315 18.5054 139.525C26.4427 144.736 35.7321 147.509 45.2276 147.503C49.6975 147.496 54.1438 146.854 58.433 145.596C58.62 146.119 58.7697 146.643 58.9567 147.204C60.6858 152.107 62.8388 156.849 65.3911 161.378C57.6668 159.643 49.6356 159.82 41.9949 161.892C34.3543 163.965 27.3354 167.871 21.5476 173.271C20.5006 174.244 19.8706 175.584 19.7894 177.011C19.743 178.501 20.2798 179.95 21.2858 181.05C25.6438 185.712 30.883 189.465 36.7005 192.09C42.5179 194.716 48.7983 196.162 55.1784 196.346H56.7496C67.3006 196.422 77.5871 193.047 86.0409 186.735C91.0223 191.153 96.3377 195.179 101.94 198.777C94.9398 200.325 88.3687 203.401 82.6969 207.785C77.0252 212.168 72.393 217.751 69.132 224.134C68.4781 225.455 68.3706 226.98 68.8326 228.38C69.2946 229.78 70.2891 230.941 71.601 231.614C83.0794 237.427 96.3944 238.455 108.63 234.474C120.865 230.492 131.023 221.825 136.88 210.371V210.072C136.88 210.072 136.88 209.848 136.88 209.773C136.959 209.592 137.021 209.404 137.067 209.212C137.085 209.025 137.085 208.837 137.067 208.651C137.067 208.651 137.067 208.314 137.067 208.127C137.085 207.941 137.085 207.753 137.067 207.566C137.151 207.387 137.214 207.199 137.254 207.005ZM83.9834 27.4895C88.1604 20.9142 94.3165 15.8335 101.566 12.9786C101.956 20.7536 99.9088 28.4564 95.7109 35.013C91.513 41.5697 85.3732 46.6532 78.1476 49.555C77.7093 41.7443 79.7519 33.9951 83.9834 27.4147V27.4895ZM13.6543 119.043C21.2158 117.184 29.1688 117.732 36.4044 120.608C43.64 123.484 49.7977 128.545 54.0187 135.087C46.4572 136.945 38.5042 136.398 31.2686 133.522C24.033 130.646 17.8754 125.584 13.6543 119.043ZM31.274 52.3599C38.6072 54.9895 44.9192 59.8728 49.3052 66.3098C53.7475 72.7125 56.04 80.3609 55.8518 88.1509C48.5396 85.4829 42.2421 80.6011 37.8365 74.1856C33.431 67.7701 31.1369 60.1405 31.274 52.3599ZM55.5151 185.389C47.7477 185.221 40.2321 182.603 34.0423 177.909C40.5246 173.59 48.1938 171.402 55.9798 171.65C63.7658 171.898 71.2801 174.57 77.4742 179.292C70.9632 183.54 63.2813 185.633 55.5151 185.276V185.389ZM105.007 223.91C97.592 226.321 89.603 226.321 82.1878 223.91C86.8308 217.681 93.2984 213.053 100.693 210.667C108.087 208.281 116.041 208.256 123.45 210.596C118.852 216.858 112.4 221.516 105.007 223.91Z" fill="#961842"/>
</g>
<defs>
<clipPath id="clip0_322_399">
<rect width="540" height="329" fill="white"/>
</clipPath>
</defs>
</svg>
