<svg width="23" height="16" viewBox="0 0 23 16" fill="none" xmlns="http://www.w3.org/2000/svg">
<path d="M10.8667 12.6688L11.2793 10.1925C11.3686 9.65241 11.2165 9.10059 10.8635 8.68379C10.5095 8.26594 9.99061 8.02564 9.44411 8.02564H2.38414C1.83763 8.02564 1.31877 8.26594 0.964705 8.68379C0.611707 9.10059 0.459662 9.65241 0.548975 10.1925L0.961515 12.6688C1.28262 14.5912 2.94554 16 4.89447 16H6.93378C8.88271 16 10.5456 14.5912 10.8667 12.6688ZM9.70566 9.92992L9.29312 12.4062C9.10068 13.5598 8.10335 14.4051 6.93378 14.4051H4.89447C3.7249 14.4051 2.72757 13.5598 2.53512 12.4062L2.12258 9.92992C2.10982 9.85336 2.13109 9.77468 2.18212 9.71408C2.2321 9.65454 2.30652 9.62051 2.38414 9.62051H9.44411C9.52172 9.62051 9.59615 9.65454 9.64612 9.71408C9.69716 9.77468 9.71842 9.85336 9.70566 9.92992Z" fill="#961842"/>
<path d="M22.5625 12.6688L22.9751 10.1925C23.0644 9.65241 22.9123 9.10059 22.5593 8.68379C22.2053 8.26594 21.6864 8.02564 21.1399 8.02564H14.0799C13.5334 8.02564 13.0146 8.26594 12.6605 8.68379C12.3075 9.10059 12.1555 9.65241 12.2448 10.1925L12.6573 12.6688C12.9784 14.5912 14.6413 16 16.5903 16H18.6296C20.5785 16 22.2414 14.5912 22.5625 12.6688ZM21.4015 9.92992L20.9889 12.4062C20.7965 13.5598 19.7991 14.4051 18.6296 14.4051H16.5903C15.4207 14.4051 14.4234 13.5598 14.2309 12.4062L13.8184 9.92992C13.8056 9.85336 13.8269 9.77468 13.8779 9.71408C13.9279 9.65454 14.0023 9.62051 14.0799 9.62051H21.1399C21.2175 9.62051 21.292 9.65454 21.3419 9.71408C21.393 9.77468 21.4142 9.85336 21.4015 9.92992Z" fill="#961842"/>
<path d="M13.0167 9.08889H10.5074C10.0672 9.08889 9.70996 9.44614 9.70996 9.88633C9.70996 10.3265 10.0672 10.6838 10.5074 10.6838H13.0167C13.4568 10.6838 13.8141 10.3265 13.8141 9.88633C13.8141 9.44614 13.4568 9.08889 13.0167 9.08889Z" fill="#961842"/>
<path d="M22.1052 8.62957L20.2998 1.41012C20.1627 0.862544 19.7852 0.406411 19.2717 0.17037C18.7592 -0.0656707 18.1669 -0.0561019 17.663 0.196951L16.722 0.666907C16.3275 0.863608 16.168 1.34313 16.3647 1.73653C16.5614 2.131 17.041 2.29049 17.4344 2.09379L18.3753 1.62277C18.4476 1.58662 18.5327 1.58555 18.6061 1.61958C18.6794 1.6536 18.7326 1.71846 18.7528 1.79608L20.5571 9.01659C20.6645 9.44402 21.0973 9.70345 21.5247 9.59712C21.951 9.48973 22.2115 9.05699 22.1052 8.62957Z" fill="#961842"/>
<path d="M2.96687 9.01659L4.7712 1.79608C4.79141 1.71846 4.84457 1.6536 4.91793 1.61958C4.9913 1.58555 5.07636 1.58662 5.14866 1.62277L6.08963 2.09379C6.48303 2.29049 6.96256 2.131 7.15926 1.73653C7.35596 1.34313 7.19647 0.863608 6.80201 0.666907L5.86103 0.196951C5.35705 -0.0561019 4.76483 -0.0656707 4.25234 0.17037C3.73879 0.406411 3.36134 0.862544 3.22418 1.41012L1.41878 8.62957C1.31246 9.05699 1.57296 9.48973 1.99932 9.59712C2.42674 9.70345 2.85949 9.44402 2.96687 9.01659Z" fill="#961842"/>
</svg>
