<svg width="49" height="48" viewBox="0 0 49 48" fill="none" xmlns="http://www.w3.org/2000/svg">
<g clip-path="url(#clip0_156_808)">
<path d="M10.7944 17.8125C10.7944 25.5667 17.1028 31.875 24.8569 31.875C32.6111 31.875 38.9194 25.5667 38.9194 17.8125C38.9194 10.0583 32.6111 3.75 24.8569 3.75C17.1028 3.75 10.7944 10.0583 10.7944 17.8125ZM24.8569 5.625C31.5773 5.625 37.0444 11.0922 37.0444 17.8125C37.0444 24.5328 31.5773 30 24.8569 30C18.1366 30 12.6694 24.5328 12.6694 17.8125C12.6694 11.0922 18.1366 5.625 24.8569 5.625Z" fill="#961842"/>
<path d="M16.1746 16.1406L19.8085 19.7211L18.9725 24.7532C18.9142 25.1036 19.0589 25.4567 19.3464 25.6654C19.6335 25.8741 20.014 25.9023 20.3293 25.739L24.8567 23.3879L29.3838 25.739C29.6966 25.9012 30.0771 25.876 30.3667 25.6654C30.6542 25.4567 30.7989 25.1036 30.7406 24.7532L29.9046 19.7211L33.5385 16.1406C33.7915 15.8916 33.882 15.521 33.7721 15.183C33.6623 14.8453 33.3711 14.5989 33.0199 14.5458L27.9768 13.7866L25.695 9.22327C25.5364 8.90576 25.2116 8.70508 24.8567 8.70508C24.5015 8.70508 24.177 8.90576 24.0181 9.22327L21.7362 13.7866L16.6932 14.5458C16.342 14.5985 16.0508 14.8453 15.941 15.183C15.8311 15.521 15.9219 15.8916 16.1746 16.1406ZM22.4969 15.5682C22.7986 15.5228 23.0594 15.3335 23.196 15.0607L24.8567 11.7388L26.5175 15.0607C26.6541 15.3335 26.9148 15.5228 27.2166 15.5682L30.8871 16.1208L28.242 18.7264C28.0248 18.9407 27.9252 19.2472 27.975 19.5482L28.5837 23.2107L25.2885 21.4998C25.1534 21.4294 25.005 21.3943 24.8567 21.3943C24.7084 21.3943 24.5601 21.4294 24.4246 21.4998L21.1294 23.2107L21.7381 19.5482C21.7882 19.2472 21.6886 18.9407 21.4711 18.7264L18.8263 16.1208L22.4969 15.5682Z" fill="#961842"/>
<path d="M25.7944 0.9375C25.7944 1.45532 25.3748 1.875 24.8569 1.875C24.3391 1.875 23.9194 1.45532 23.9194 0.9375C23.9194 0.419678 24.3391 0 24.8569 0C25.3748 0 25.7944 0.419678 25.7944 0.9375Z" fill="#961842"/>
<path d="M20.4386 0.552836C12.5522 2.5659 7.04443 9.66343 7.04443 17.8127C7.04443 22.8741 9.17249 27.6433 12.9082 31.0209L7.26013 40.9748C7.07849 41.2953 7.1012 41.6922 7.31799 41.9896C7.53479 42.2873 7.9054 42.4305 8.26611 42.3554L14.6803 41.0235L16.9347 47.3762C17.057 47.7219 17.3701 47.964 17.7356 47.9966C18.1011 48.0292 18.4515 47.845 18.6328 47.526L24.8569 36.5836L31.0807 47.526C31.2484 47.8208 31.5604 47.9999 31.8951 47.9999C31.9226 47.9999 31.9504 47.9988 31.9779 47.9966C32.3434 47.964 32.6565 47.7215 32.7792 47.3762L35.0332 41.0235L41.4474 42.3554C41.8077 42.4302 42.1787 42.287 42.3955 41.9896C42.6127 41.6922 42.635 41.2953 42.4534 40.9748L36.8053 31.0209C40.541 27.6433 42.6691 22.8741 42.6691 17.8127C42.6691 9.66343 37.1613 2.5659 29.2753 0.552836C28.7732 0.424663 28.2631 0.727519 28.1349 1.22923C28.0067 1.73094 28.3096 2.24144 28.8113 2.36961C35.8667 4.17063 40.7944 10.5211 40.7944 17.8127C40.7944 26.6871 33.587 33.7502 24.8569 33.7502C16.1206 33.7502 8.91943 26.6813 8.91943 17.8127C8.91943 10.5211 13.8468 4.17063 20.9022 2.36961C21.4039 2.24144 21.7068 1.73094 21.579 1.22923C21.4508 0.727519 20.9407 0.424663 20.4386 0.552836ZM18.0165 44.8179L16.1741 39.6261C16.0173 39.1844 15.5588 38.9263 15.1 39.0215L9.91333 40.0985L14.3833 32.2206C16.9896 34.1153 20.0757 35.2696 23.2848 35.5553L18.0165 44.8179ZM34.6135 39.0215C34.155 38.9263 33.6962 39.1844 33.5394 39.6261L31.6974 44.8179L26.4287 35.5553C29.6382 35.2696 32.7239 34.1153 35.3306 32.2206L39.8005 40.0985L34.6135 39.0215Z" fill="#961842"/>
</g>
<defs>
<clipPath id="clip0_156_808">
<rect width="48" height="48" fill="white" transform="translate(0.856934)"/>
</clipPath>
</defs>
</svg>
