<svg width="49" height="48" viewBox="0 0 49 48" fill="none" xmlns="http://www.w3.org/2000/svg">
<g clip-path="url(#clip0_156_876)">
<path d="M47.2044 34.5624H43.988C43.4703 34.5624 43.0505 34.1427 43.0505 33.625C43.0505 33.1072 43.4703 32.6875 43.988 32.6875H47.2044C47.7221 32.6875 48.1419 33.1072 48.1419 33.625C48.1419 34.1427 47.7221 34.5624 47.2044 34.5624Z" fill="#961842"/>
<path d="M42.9215 30.4245C42.5418 30.4245 42.1846 30.1922 42.0435 29.8156C41.8618 29.3309 42.1076 28.7905 42.5924 28.6088L45.0142 27.7014C45.4996 27.5198 46.0394 27.7657 46.221 28.2504C46.4027 28.7352 46.1569 29.2755 45.6721 29.4572L43.2503 30.3646C43.1419 30.4053 43.0307 30.4245 42.9215 30.4245Z" fill="#961842"/>
<path d="M45.343 39.6081C45.2338 39.6081 45.1226 39.5888 45.0142 39.5482L42.5924 38.6409C42.1075 38.4592 41.8618 37.9189 42.0435 37.4341C42.2252 36.9492 42.7651 36.7033 43.2503 36.8851L45.6722 37.7925C46.157 37.9741 46.4027 38.5144 46.221 38.9993C46.08 39.3757 45.7227 39.6081 45.343 39.6081Z" fill="#961842"/>
<path d="M39.7694 21.4537C42.3782 19.1203 43.8588 15.8301 43.8588 12.2972C43.8588 5.5165 38.3423 0 31.5617 0H22.8497C22.8494 0.000468732 22.8492 0.00103121 22.8488 0.00159369C18.3257 0.00178118 13.9521 1.33842 10.2011 3.86676C9.77174 4.15615 9.65831 4.73878 9.9477 5.16805C10.2371 5.59741 10.8197 5.71065 11.249 5.42144C14.6897 3.10225 18.7014 1.87643 22.8502 1.87652C24.0966 1.87652 25.3451 1.98733 26.561 2.20595C29.5121 2.73655 32.0147 4.5601 33.4268 7.20928C34.8151 9.81337 34.9364 12.8456 33.7596 15.5285C32.8956 17.4985 31.6789 19.2758 30.1434 20.8114C28.3936 22.5613 26.3431 23.8897 24.0487 24.7596C22.0366 25.5226 20.3555 26.881 19.1875 28.6878C18.0177 30.4974 17.4717 32.5882 17.6087 34.7338V34.7341C17.6091 34.7415 17.6096 34.7488 17.6101 34.7561C17.7525 36.7398 16.7449 38.5504 14.9805 39.4808C13.2833 40.3758 11.3826 40.2044 9.89614 39.0226C4.89468 35.0458 2.02351 29.1051 2.01883 22.7235C2.01583 18.5691 3.24165 14.5521 5.56384 11.1068C5.85324 10.6774 5.7398 10.0948 5.31045 9.80549C4.88118 9.516 4.29836 9.62953 4.00915 10.0589C1.47697 13.8153 0.140524 18.1951 0.143805 22.7248C0.148961 29.6807 3.27831 36.1559 8.72919 40.49C9.492 41.0964 10.3478 41.5111 11.2419 41.731L9.21283 46.7084C9.01736 47.1878 9.24751 47.7349 9.72693 47.9303C9.8428 47.9776 9.9627 47.9999 10.0804 47.9999C10.4503 47.9999 10.8007 47.7797 10.9489 47.4161L13.1969 41.9014C14.1005 41.8403 15.0036 41.5881 15.855 41.1391C18.2854 39.8573 19.6741 37.3632 19.4806 34.6288C19.4804 34.624 19.4801 34.6192 19.4797 34.6144C19.2516 31.0421 21.3548 27.7862 24.7135 26.5126C27.2576 25.5479 29.5305 24.0757 31.4691 22.1371C33.1703 20.436 34.5184 18.466 35.4766 16.2816C35.7487 15.6613 35.9622 15.0253 36.1188 14.3806C36.383 15.6422 36.5201 16.9308 36.5201 18.223V19.6571C36.5201 19.8409 36.5742 20.0208 36.6755 20.1742L40.443 25.8788L37.3406 28.0091C37.0859 28.1839 36.9337 28.473 36.9337 28.7819V31.5467L33.9461 32.8986C33.6008 33.0548 33.3837 33.4033 33.3955 33.7821C33.4073 34.1607 33.646 34.495 34.0002 34.6293L36.9337 35.7414V37.765C36.9337 39.0192 35.9133 40.0396 34.659 40.0396H25.6115C25.0938 40.0396 24.674 40.4593 24.674 40.9771C24.674 41.4949 25.0938 41.9146 25.6115 41.9146H27.9549L26.0913 46.7238C25.9042 47.2066 26.144 47.7496 26.6267 47.9367C26.738 47.9798 26.8525 48.0004 26.9652 48.0004C27.3409 48.0004 27.6956 47.7728 27.8395 47.4013L29.9655 41.9146H34.659C36.947 41.9146 38.8085 40.0532 38.8085 37.7651V35.0939C38.8085 34.6934 38.5567 34.3524 38.2032 34.2182L38.2033 34.2173L36.7754 33.676L38.1834 33.0389C38.5474 32.9101 38.8084 32.5639 38.8084 32.1559V29.2752L41.504 27.4243C42.3432 26.8481 42.5692 25.6884 42.0078 24.8391L39.7694 21.4537ZM38.7223 19.87L38.395 19.3751V18.2229C38.395 14.8596 37.561 11.5163 35.9844 8.54545C35.7635 7.78648 35.4629 7.04316 35.0813 6.32732C34.0866 4.4613 32.638 2.93914 30.8935 1.87493H31.5617C37.3085 1.87493 41.9839 6.55034 41.9839 12.2972C41.9838 15.1977 40.8062 17.9053 38.7223 19.87Z" fill="#961842"/>
<path d="M7.46899 8.26465C7.22243 8.26465 6.98149 8.16527 6.80618 7.98996C6.6319 7.81559 6.53149 7.57465 6.53149 7.32715C6.53149 7.08059 6.63181 6.83871 6.80618 6.66434C6.98149 6.48996 7.22243 6.38965 7.46899 6.38965C7.71556 6.38965 7.95743 6.48996 8.13181 6.66434C8.30712 6.83871 8.40649 7.08059 8.40649 7.32715C8.40649 7.57465 8.30712 7.81559 8.13181 7.98996C7.95743 8.16527 7.71556 8.26465 7.46899 8.26465Z" fill="#961842"/>
</g>
<defs>
<clipPath id="clip0_156_876">
<rect width="48" height="48" fill="white" transform="translate(0.142822)"/>
</clipPath>
</defs>
</svg>
