<svg width="48" height="48" viewBox="0 0 48 48" fill="none" xmlns="http://www.w3.org/2000/svg">
<path d="M30.9466 15.2648C26.2784 8.39716 20.0437 4.74705 16.7787 6.98353C16.4191 7.23672 16.1067 7.55091 15.8556 7.91188C15.8556 7.93825 8.29691 23.235 8.29691 23.235L4.07713 26.0939C3.42933 26.5336 2.87452 27.0967 2.44439 27.7509C2.01425 28.4051 1.71723 29.1376 1.57028 29.9067C1.42333 30.6757 1.42933 31.4662 1.58795 32.2329C1.74657 32.9996 2.05469 33.7276 2.49471 34.3752L2.6846 34.6547C3.57403 35.9504 4.93839 36.8431 6.48177 37.1394C8.02514 37.4356 9.62308 37.1114 10.929 36.2372L17.707 46.2222C18.7039 47.4512 20.6187 48.675 22.9817 47.235C23.4004 46.9635 23.7575 46.6073 24.03 46.1894C24.3026 45.7715 24.4845 45.3011 24.5642 44.8086C24.6596 44.3187 24.657 43.8147 24.5565 43.3258C24.456 42.8369 24.2596 42.3728 23.9787 41.9602L18.0077 33.1514C18.0077 33.1514 32.1228 32.0279 32.1756 32.0068C32.6163 31.9146 33.0341 31.7353 33.4046 31.4794C35.082 30.34 35.6833 27.9506 35.1031 24.7488C34.5809 21.8002 33.0987 18.4613 30.9466 15.2648ZM4.21955 33.6156L4.02966 33.3361C3.72606 32.8891 3.5136 32.3867 3.40442 31.8575C3.29525 31.3283 3.29151 30.7828 3.39342 30.2522C3.49533 29.7216 3.70088 29.2163 3.99832 28.7653C4.29576 28.3142 4.67923 27.9262 5.1268 27.6235L8.77163 25.1444L13.5822 32.2284L9.93735 34.7075C9.4903 35.0115 8.98772 35.2244 8.45835 35.334C7.92898 35.4437 7.38318 35.4479 6.85217 35.3465C6.32115 35.2451 5.81533 35.04 5.36361 34.743C4.91189 34.4461 4.52312 34.0629 4.21955 33.6156ZM22.4595 42.9994C22.7478 43.4283 22.8542 43.9541 22.7553 44.4614C22.6564 44.9687 22.3604 45.416 21.9321 45.7053C21.5023 45.9938 20.9757 46.1004 20.4675 46.0015C19.9594 45.9026 19.5111 45.6065 19.2209 45.1778L12.4639 35.2244L15.1804 33.3783L15.8978 33.3202L22.4595 42.9994ZM15.3281 31.511L10.085 23.7888L15.0855 13.5928C15.5708 16.4569 16.9897 19.8591 19.2578 23.198C21.5259 26.5369 24.1633 29.111 26.6424 30.6196L15.3281 31.511ZM30.8886 30.282C28.3672 30.1185 24.2635 27.2754 20.7875 22.1536C17.3114 17.0319 16.1826 12.1844 16.958 9.77386C17.098 9.32139 17.3775 8.92473 17.7564 8.64055C18.1353 8.35636 18.5943 8.19918 19.0679 8.19144C21.5681 8.19144 25.8248 11.0503 29.4011 16.3198C31.416 19.2842 32.8824 22.3857 33.2833 25.0969C34.0692 30.282 30.8886 30.282 30.8886 30.282Z" fill="#961842"/>
<path d="M24.3533 15.46C23.7072 15.3331 23.0423 15.3364 22.3974 15.4695C21.7525 15.6026 21.1407 15.863 20.5977 16.2354C20.4976 16.3047 20.4121 16.393 20.3462 16.4953C20.2802 16.5976 20.235 16.7119 20.2132 16.8316C20.1914 16.9514 20.1934 17.0743 20.2191 17.1932C20.2448 17.3122 20.2937 17.425 20.363 17.5251C20.4322 17.6252 20.5205 17.7106 20.6228 17.7766C20.7251 17.8426 20.8394 17.8877 20.9592 17.9095C21.0789 17.9313 21.2018 17.9293 21.3208 17.9036C21.4398 17.8779 21.5525 17.8291 21.6526 17.7598C21.9965 17.5264 22.3831 17.3629 22.7902 17.2789C23.1972 17.1948 23.6169 17.1918 24.0251 17.2699C24.4334 17.348 24.8222 17.5058 25.1695 17.7342C25.5168 17.9626 25.8157 18.2572 26.0491 18.6011C26.2825 18.945 26.446 19.3316 26.53 19.7386C26.6141 20.1457 26.6171 20.5653 26.539 20.9736C26.4609 21.3818 26.3031 21.7707 26.0747 22.118C25.8463 22.4653 25.5517 22.7642 25.2078 22.9976C25.0456 23.1096 24.9236 23.2705 24.8595 23.4569C24.7953 23.6432 24.7926 23.8452 24.8515 24.0333C24.9105 24.2213 25.0281 24.3856 25.1871 24.502C25.3461 24.6184 25.5382 24.6809 25.7353 24.6802C25.9233 24.6838 26.1077 24.6284 26.2627 24.522C27.0832 23.9662 27.7202 23.1795 28.0931 22.2614C28.466 21.3433 28.558 20.3351 28.3575 19.3647C28.1569 18.3942 27.6729 17.5052 26.9666 16.81C26.2604 16.1149 25.3637 15.6451 24.3902 15.46H24.3533Z" fill="#961842"/>
<path d="M32.086 8.84556H32.1757C32.404 8.84547 32.6242 8.76077 32.7937 8.60782C32.9632 8.45487 33.07 8.24453 33.0935 8.01743L33.8056 1.09699C33.8218 0.974618 33.8133 0.850239 33.7806 0.731212C33.7479 0.612185 33.6916 0.500927 33.6152 0.404021C33.5387 0.307115 33.4436 0.22653 33.3354 0.167033C33.2273 0.107536 33.1083 0.0703362 32.9855 0.0576343C32.8627 0.0449324 32.7386 0.0569866 32.6206 0.0930835C32.5025 0.12918 32.3929 0.188587 32.2982 0.267788C32.2036 0.346989 32.1257 0.444376 32.0693 0.554187C32.013 0.663998 31.9792 0.784002 31.97 0.9071L31.2632 7.83281C31.2381 8.07621 31.3107 8.31961 31.465 8.50951C31.6193 8.69941 31.8426 8.82028 32.086 8.84556Z" fill="#961842"/>
<path d="M44.0172 7.42151C43.8817 7.21721 43.6708 7.07481 43.4307 7.0254C43.1906 6.97599 42.9406 7.02358 42.7354 7.15777L36.3056 11.3776C36.1386 11.4878 36.012 11.6493 35.9448 11.8378C35.8775 12.0262 35.8734 12.2314 35.9329 12.4224C35.9924 12.6134 36.1124 12.7799 36.2747 12.8969C36.4371 13.0138 36.633 13.0748 36.833 13.0707C37.0196 13.075 37.2033 13.0236 37.3605 12.923L43.7904 8.70327C43.9899 8.56292 44.1257 8.34934 44.1682 8.10917C44.2107 7.86901 44.1564 7.62178 44.0172 7.42151Z" fill="#961842"/>
<path d="M45.985 18.6882L38.5055 17.3432C38.2642 17.2998 38.0155 17.3541 37.8142 17.4941C37.6129 17.634 37.4754 17.8482 37.4321 18.0896C37.3887 18.3309 37.443 18.5795 37.5829 18.7808C37.7229 18.9822 37.9371 19.1196 38.1784 19.163L45.6527 20.508H45.8162C46.0514 20.5149 46.2804 20.4317 46.4563 20.2754C46.6322 20.1192 46.7418 19.9016 46.7626 19.6672C46.7835 19.4329 46.7141 19.1994 46.5686 19.0145C46.4231 18.8296 46.2125 18.7072 45.9798 18.6724L45.985 18.6882Z" fill="#961842"/>
</svg>
