<svg width="49" height="48" viewBox="0 0 49 48" fill="none" xmlns="http://www.w3.org/2000/svg">
<g clip-path="url(#clip0_156_869)">
<path d="M24.4285 34.3125C23.911 34.3125 23.491 34.7325 23.491 35.25C23.491 35.7675 23.911 36.1875 24.4285 36.1875C24.9459 36.1875 25.366 35.7675 25.366 35.25C25.366 34.7325 24.9459 34.3125 24.4285 34.3125Z" fill="#961842"/>
<path d="M44.6785 13.6875C42.6108 13.6875 40.9285 15.3699 40.9285 17.4375C40.9285 18.2139 41.168 18.9587 41.6023 19.5806L39.2651 22.1711C37.5355 18.7258 34.0042 16.5 30.0535 16.5C29.3811 16.5 28.7128 16.5656 28.0569 16.6941L26.9491 14.5876C27.7222 13.8867 28.1785 12.887 28.1785 11.8125C28.1785 9.74487 26.4961 8.0625 24.4285 8.0625C22.3608 8.0625 20.6785 9.74487 20.6785 11.8125C20.6785 12.887 21.1348 13.8867 21.9078 14.5876L20.8 16.6941C20.1442 16.5656 19.4755 16.5 18.8035 16.5C14.8528 16.5 11.3214 18.7258 9.5918 22.1711L7.25464 19.5806C7.68896 18.9591 7.92847 18.2139 7.92847 17.4375C7.92847 15.3699 6.24609 13.6875 4.17847 13.6875C2.11084 13.6875 0.428467 15.3699 0.428467 17.4375C0.428467 19.3755 1.90613 20.9747 3.79395 21.1677L6.22375 34.6483C5.33679 35.1284 4.74097 36.0703 4.74097 37.125C4.74097 38.6759 6.00256 39.9375 7.55347 39.9375H41.3035C42.8544 39.9375 44.116 38.6759 44.116 37.125C44.116 36.0703 43.5201 35.1284 42.6332 34.6483L45.063 21.1677C46.9508 20.9747 48.4285 19.3755 48.4285 17.4375C48.4285 15.3699 46.7461 13.6875 44.6785 13.6875ZM37.8937 23.6917L34.0074 27.9994L28.9786 18.4438C29.3342 18.3984 29.6931 18.375 30.0535 18.375C33.538 18.375 36.6237 20.491 37.8937 23.6917ZM24.4285 9.9375C25.4623 9.9375 26.3035 10.7787 26.3035 11.8125C26.3035 12.8463 25.467 13.6875 24.4285 13.6875C23.3884 13.6875 22.5535 12.8452 22.5535 11.8125C22.5535 10.7787 23.3947 9.9375 24.4285 9.9375ZM18.8035 18.375C19.1638 18.375 19.5227 18.3984 19.8783 18.4438L14.8495 27.9994L10.9633 23.6917C12.2333 20.491 15.319 18.375 18.8035 18.375ZM2.30347 17.4375C2.30347 16.4037 3.14465 15.5625 4.17847 15.5625C5.21228 15.5625 6.05347 16.4037 6.05347 17.4375C6.05347 18.4812 5.20166 19.3125 4.17847 19.3125C3.14465 19.3125 2.30347 18.4713 2.30347 17.4375ZM41.3035 38.0625H7.55347C7.03638 38.0625 6.61597 37.6421 6.61597 37.125C6.61597 36.6174 7.02795 36.1875 7.55347 36.1875H20.6785C21.1963 36.1875 21.616 35.7678 21.616 35.25C21.616 34.7322 21.1963 34.3125 20.6785 34.3125H8.06836L5.64844 20.8857C5.70996 20.8597 5.77075 20.8312 5.83081 20.8015L14.3573 30.2531C14.7957 30.7386 15.5808 30.6361 15.8829 30.0615C15.8829 30.0615 22.1166 18.2172 22.1191 18.2128C22.1199 18.2109 22.1213 18.2095 22.1221 18.2076L23.5671 15.4611C23.8488 15.5277 24.1381 15.5625 24.4285 15.5625C24.7189 15.5625 25.0082 15.5273 25.2898 15.4611L26.7345 18.2076C26.736 18.2098 26.7374 18.212 26.7385 18.2142C26.7404 18.2172 32.9736 30.0615 32.9736 30.0615C33.2761 30.6361 34.0609 30.7386 34.4996 30.2531L43.0261 20.8015C43.0862 20.8312 43.147 20.8594 43.2085 20.8857L40.7886 34.3125H28.1785C27.6606 34.3125 27.241 34.7322 27.241 35.25C27.241 35.7678 27.6606 36.1875 28.1785 36.1875H41.3035C41.8345 36.1875 42.241 36.6229 42.241 37.125C42.241 37.6421 41.8206 38.0625 41.3035 38.0625ZM44.6785 19.3125C43.6556 19.3125 42.8035 18.4819 42.8035 17.4375C42.8035 16.4037 43.6447 15.5625 44.6785 15.5625C45.7123 15.5625 46.5535 16.4037 46.5535 17.4375C46.5535 18.4713 45.7123 19.3125 44.6785 19.3125Z" fill="#961842"/>
<path d="M24.4285 31.3389C24.6683 31.3389 24.9082 31.2473 25.0913 31.0642L27.7427 28.4128C28.1089 28.0466 28.1089 27.4534 27.7427 27.0872L25.0913 24.4358C24.7251 24.0696 24.1318 24.0696 23.7656 24.4358L21.1143 27.0872C20.748 27.453 20.748 28.0466 21.1143 28.4128L23.7656 31.0642C23.9487 31.2473 24.1886 31.3389 24.4285 31.3389ZM24.4285 26.4247L25.7538 27.75L24.4285 29.0753L23.1031 27.75L24.4285 26.4247Z" fill="#961842"/>
</g>
<defs>
<clipPath id="clip0_156_869">
<rect width="48" height="48" fill="white" transform="translate(0.428467)"/>
</clipPath>
</defs>
</svg>
