<svg width="106" height="64" viewBox="0 0 106 64" fill="none" xmlns="http://www.w3.org/2000/svg">
<g clip-path="url(#clip0_156_585)">
<path d="M35.0444 52.1705C34.6585 52.1705 34.2884 52.3238 34.0155 52.5967C33.7427 52.8696 33.5894 53.2397 33.5894 53.6256V55.2916C33.5894 55.6775 33.7427 56.0476 34.0155 56.3205C34.2884 56.5933 34.6585 56.7466 35.0444 56.7466C35.4303 56.7466 35.8004 56.5933 36.0733 56.3205C36.3461 56.0476 36.4994 55.6775 36.4994 55.2916V53.6256C36.4994 53.2397 36.3461 52.8696 36.0733 52.5967C35.8004 52.3238 35.4303 52.1705 35.0444 52.1705Z" fill="#961842"/>
<path d="M40.8647 50.7155C40.4788 50.7155 40.1087 50.8688 39.8358 51.1416C39.563 51.4145 39.4097 51.7846 39.4097 52.1705V56.7466C39.4097 57.1325 39.563 57.5026 39.8358 57.7755C40.1087 58.0484 40.4788 58.2017 40.8647 58.2017C41.2506 58.2017 41.6207 58.0484 41.8936 57.7755C42.1665 57.5026 42.3198 57.1325 42.3198 56.7466V52.1705C42.3198 51.7846 42.1665 51.4145 41.8936 51.1416C41.6207 50.8688 41.2506 50.7155 40.8647 50.7155Z" fill="#961842"/>
<path d="M22.9457 20.2833V18.0643H26.7142V26.831C26.7025 27.0154 26.7274 27.2003 26.7873 27.375C26.8472 27.5498 26.9411 27.711 27.0634 27.8495C27.3449 28.0851 27.7003 28.2142 28.0674 28.2142C28.4345 28.2142 28.7899 28.0851 29.0714 27.8495C29.1937 27.711 29.2876 27.5498 29.3475 27.375C29.4074 27.2003 29.4323 27.0154 29.4206 26.831V17.2568C29.4328 17.0678 29.4069 16.8784 29.3445 16.6996C29.282 16.5209 29.1841 16.3566 29.0568 16.2164C28.9127 16.0885 28.7446 15.9904 28.5622 15.928C28.3799 15.8655 28.187 15.8399 27.9946 15.8527H21.8835C21.6924 15.8409 21.5008 15.867 21.3198 15.9294C21.1387 15.9918 20.9718 16.0894 20.8286 16.2164C20.7013 16.3566 20.6034 16.5209 20.5409 16.6996C20.4785 16.8784 20.4526 17.0678 20.4648 17.2568V19.5921C20.4778 20.3572 20.4462 21.1224 20.3702 21.8838C20.2999 22.4861 20.1733 23.0804 19.9919 23.659C19.8452 24.1296 19.6294 24.5758 19.3517 24.9831C19.1016 25.3542 18.7889 25.6791 18.4278 25.9434C18.153 26.1395 17.955 26.4249 17.8676 26.7509C17.8329 26.9063 17.8339 27.0676 17.8704 27.2226C17.907 27.3775 17.9781 27.5222 18.0785 27.6458C18.1735 27.7844 18.295 27.9028 18.4362 27.994C18.5773 28.0852 18.7352 28.1473 18.9006 28.1769C19.0639 28.1997 19.2301 28.1889 19.389 28.1451C19.5479 28.1013 19.6961 28.0255 19.8246 27.9222C20.3254 27.5758 20.7717 27.1565 21.1487 26.6782C21.5493 26.1668 21.8796 25.604 22.1308 25.0049C22.4099 24.3237 22.6124 23.6137 22.7347 22.8878C22.8793 22.0272 22.9498 21.1559 22.9457 20.2833Z" fill="#961842"/>
<path d="M84.3269 16.8785C83.4468 16.1461 82.3193 15.7789 81.1767 15.8527H76.9716C76.6009 15.8325 76.2366 15.9549 75.9531 16.1946C75.8279 16.3329 75.7317 16.495 75.6705 16.6712C75.6093 16.8475 75.5841 17.0343 75.5966 17.2204V26.831C75.585 27.0154 75.6098 27.2003 75.6697 27.375C75.7296 27.5498 75.8235 27.711 75.9458 27.8495C76.0793 27.9758 76.2373 28.0732 76.41 28.1358C76.5827 28.1984 76.7665 28.2248 76.9498 28.2133C77.1321 28.2255 77.315 28.1995 77.4867 28.1368C77.6583 28.0742 77.815 27.9763 77.9465 27.8495C78.1836 27.565 78.3033 27.2007 78.2812 26.831V23.659H81.1913C82.3366 23.7348 83.4665 23.3616 84.3414 22.6186C84.718 22.2447 85.0113 21.7954 85.2019 21.3001C85.3925 20.8048 85.4761 20.2748 85.4473 19.7449C85.4746 19.215 85.3888 18.6853 85.1956 18.1911C85.0024 17.6969 84.7063 17.2494 84.3269 16.8785ZM82.3116 21.0981C81.8569 21.4411 81.2939 21.6089 80.7256 21.571H78.2812V17.9334H80.7547C81.32 17.8924 81.8816 18.0521 82.3407 18.3844C82.5287 18.552 82.6756 18.7605 82.7702 18.9939C82.8648 19.2272 82.9046 19.4792 82.8864 19.7304C82.9005 19.987 82.8562 20.2435 82.7566 20.4804C82.657 20.7174 82.5049 20.9286 82.3116 21.0981Z" fill="#961842"/>
<path d="M67.3754 35.4957C69.7216 32.7783 71.2782 29.4698 71.876 25.9297C72.4738 22.3897 72.09 18.7535 70.7663 15.4163C69.4426 12.0791 67.2296 9.1685 64.3677 7.00075C61.5059 4.833 58.1047 3.49102 54.5337 3.12062C50.9627 2.75023 47.3585 3.3656 44.1127 4.89985C40.8669 6.43411 38.1036 8.82857 36.1232 11.8231C34.1427 14.8176 33.0208 18.2976 32.8794 21.8849C32.7379 25.4723 33.5823 29.0298 35.3209 32.171L33.2256 34.2662C32.4497 35.0416 31.9449 36.0468 31.7862 37.1321C31.6276 38.2175 31.8237 39.3251 32.3453 40.2901L23.0403 49.5951C22.7693 49.8677 22.6172 50.2365 22.6172 50.6209C22.6172 51.0053 22.7693 51.3741 23.0403 51.6467C23.1757 51.7829 23.3366 51.8909 23.5139 51.9646C23.6912 52.0382 23.8814 52.0761 24.0734 52.0759C24.4576 52.0762 24.8264 51.9245 25.0992 51.654L34.4042 42.349C35.1491 42.749 35.9813 42.9589 36.8268 42.9601C37.4992 42.9697 38.1668 42.8461 38.7911 42.5964C39.4155 42.3466 39.9842 41.9757 40.4644 41.5051L42.4215 39.5407C45.9626 41.6761 50.0883 42.6367 54.2084 42.2852C58.3286 41.9337 62.232 40.288 65.3602 37.5837L79.7069 51.9377C79.9797 52.2083 80.3485 52.36 80.7327 52.3597C81.0202 52.3599 81.3013 52.2749 81.5406 52.1155C81.7799 51.9561 81.9665 51.7294 82.0771 51.464C82.1876 51.1986 82.217 50.9063 82.1616 50.6242C82.1062 50.3421 81.9685 50.0827 81.7658 49.8788L67.3754 35.4957ZM38.3692 39.4098C37.9528 39.8048 37.4008 40.0251 36.8268 40.0251C36.2529 40.0251 35.7008 39.8048 35.2845 39.4098C34.8758 39.0006 34.6462 38.4458 34.6462 37.8675C34.6462 37.2891 34.8758 36.7343 35.2845 36.3251L36.9505 34.6518C37.849 35.823 38.8764 36.8895 40.0134 37.8311L38.3692 39.4098ZM65.2874 33.4296L59.5837 27.7331C60.8199 25.9267 61.3325 23.7218 61.0198 21.5553C60.7071 19.3888 59.592 17.4189 57.8954 16.0358C56.1988 14.6527 54.0445 13.9574 51.8594 14.0877C49.6744 14.218 47.618 15.1643 46.0978 16.7392C44.5776 18.3141 43.7044 20.4027 43.6514 22.591C43.5984 24.7792 44.3693 26.9076 45.8115 28.5543C47.2537 30.201 49.2618 31.2458 51.438 31.4818C53.6141 31.7178 55.7996 31.1276 57.5612 29.8283L63.294 35.4885C59.994 38.267 55.7485 39.6637 51.4434 39.387C47.1383 39.1104 43.1065 37.1817 40.1893 34.0036C37.2722 30.8255 35.6951 26.6435 35.7874 22.3306C35.8797 18.0176 37.6341 13.9069 40.6846 10.8565C43.735 7.80608 47.8457 6.05163 52.1586 5.95935C56.4716 5.86707 60.6535 7.44408 63.8316 10.3612C67.0098 13.2784 68.9384 17.3103 69.2151 21.6153C69.4918 25.9204 68.0951 30.166 65.3165 33.466L65.2874 33.4296ZM58.3251 22.6768C58.3251 23.8279 57.9837 24.9532 57.3442 25.9103C56.7046 26.8675 55.7957 27.6134 54.7322 28.054C53.6687 28.4945 52.4984 28.6097 51.3694 28.3852C50.2404 28.1606 49.2034 27.6063 48.3894 26.7923C47.5754 25.9783 47.0211 24.9413 46.7966 23.8123C46.572 22.6833 46.6872 21.513 47.1278 20.4495C47.5683 19.386 48.3143 18.4771 49.2714 17.8375C50.2285 17.198 51.3538 16.8567 52.5049 16.8567C54.0485 16.8567 55.5289 17.4698 56.6204 18.5613C57.7119 19.6528 58.3251 21.1332 58.3251 22.6768Z" fill="#961842"/>
<path d="M52.5048 24.8594C53.7102 24.8594 54.6874 23.8822 54.6874 22.6768C54.6874 21.4714 53.7102 20.4943 52.5048 20.4943C51.2994 20.4943 50.3223 21.4714 50.3223 22.6768C50.3223 23.8822 51.2994 24.8594 52.5048 24.8594Z" fill="#961842"/>
<path d="M46.685 47.8054C46.2991 47.8054 45.929 47.9587 45.6562 48.2316C45.3833 48.5044 45.23 48.8745 45.23 49.2604V59.6567C45.23 60.0426 45.3833 60.4127 45.6562 60.6856C45.929 60.9584 46.2991 61.1117 46.685 61.1117C47.0709 61.1117 47.441 60.9584 47.7139 60.6856C47.9868 60.4127 48.1401 60.0426 48.1401 59.6567V49.2604C48.1401 48.8745 47.9868 48.5044 47.7139 48.2316C47.441 47.9587 47.0709 47.8054 46.685 47.8054Z" fill="#961842"/>
<path d="M52.5048 44.8953C52.1189 44.8953 51.7488 45.0486 51.476 45.3215C51.2031 45.5943 51.0498 45.9644 51.0498 46.3503V62.5668C51.0498 62.9527 51.2031 63.3228 51.476 63.5957C51.7488 63.8685 52.1189 64.0218 52.5048 64.0218C52.8907 64.0218 53.2608 63.8685 53.5337 63.5957C53.8066 63.3228 53.9599 62.9527 53.9599 62.5668V46.3503C53.9599 45.9644 53.8066 45.5943 53.5337 45.3215C53.2608 45.0486 52.8907 44.8953 52.5048 44.8953Z" fill="#961842"/>
<path d="M58.3252 47.8054C57.9393 47.8054 57.5692 47.9587 57.2963 48.2316C57.0234 48.5044 56.8701 48.8745 56.8701 49.2604V59.6567C56.8701 60.0426 57.0234 60.4127 57.2963 60.6856C57.5692 60.9584 57.9393 61.1117 58.3252 61.1117C58.7111 61.1117 59.0812 60.9584 59.354 60.6856C59.6269 60.4127 59.7802 60.0426 59.7802 59.6567V49.2604C59.7802 48.8745 59.6269 48.5044 59.354 48.2316C59.0812 47.9587 58.7111 47.8054 58.3252 47.8054Z" fill="#961842"/>
<path d="M64.1455 50.7155C63.7596 50.7155 63.3895 50.8688 63.1166 51.1416C62.8437 51.4145 62.6904 51.7846 62.6904 52.1705V56.7466C62.6904 57.1325 62.8437 57.5026 63.1166 57.7755C63.3895 58.0484 63.7596 58.2017 64.1455 58.2017C64.5314 58.2017 64.9015 58.0484 65.1743 57.7755C65.4472 57.5026 65.6005 57.1325 65.6005 56.7466V52.1705C65.6005 51.7846 65.4472 51.4145 65.1743 51.1416C64.9015 50.8688 64.5314 50.7155 64.1455 50.7155Z" fill="#961842"/>
<path d="M69.9653 52.1705C69.5794 52.1705 69.2093 52.3238 68.9364 52.5967C68.6636 52.8696 68.5103 53.2397 68.5103 53.6256V55.2916C68.5103 55.6775 68.6636 56.0476 68.9364 56.3205C69.2093 56.5933 69.5794 56.7466 69.9653 56.7466C70.3512 56.7466 70.7213 56.5933 70.9942 56.3205C71.267 56.0476 71.4203 55.6775 71.4203 55.2916V53.6256C71.4203 53.2397 71.267 52.8696 70.9942 52.5967C70.7213 52.3238 70.3512 52.1705 69.9653 52.1705Z" fill="#961842"/>
<path d="M104.937 22.1312C104.887 21.997 104.809 21.8747 104.709 21.7721C104.609 21.6694 104.488 21.5886 104.355 21.5346C103.219 21.0384 101.995 20.7733 100.754 20.7545C99.5141 20.7358 98.2825 20.9639 97.1312 21.4255C96.2216 21.7927 95.3729 22.2955 94.614 22.9169C94.6529 21.7186 94.5945 20.5191 94.4394 19.3302C96.6602 18.6539 98.5548 17.1844 99.7622 15.2016C100.97 13.2187 101.406 10.861 100.987 8.57747C100.963 8.43161 100.911 8.29201 100.832 8.167C100.753 8.042 100.65 7.93416 100.529 7.84995C100.411 7.76853 100.279 7.71119 100.139 7.68122C99.9989 7.65125 99.8545 7.64926 99.7139 7.67534C98.486 7.89751 97.3149 8.36268 96.2692 9.04355C95.2236 9.72442 94.3244 10.6073 93.6245 11.6403C93.3204 12.1025 93.0551 12.5892 92.8315 13.0954C92.5462 12.3519 92.2233 11.6235 91.8639 10.9128C92.2975 8.50717 91.7829 6.02707 90.4279 3.99258C89.0729 1.95808 86.9829 0.52721 84.596 -6.81728e-07C84.456 -0.0311121 84.3113 -0.0343352 84.1701 -0.00948573C84.0289 0.0153637 83.8939 0.0677986 83.773 0.144822C83.6521 0.221845 83.5475 0.321947 83.4653 0.439406C83.383 0.556865 83.3247 0.689379 83.2937 0.829373C82.7829 3.18338 83.1896 5.64359 84.4307 7.70804C85.6718 9.77249 87.6538 11.2856 89.9724 11.9386C90.8236 13.6701 93.9738 20.8507 91.5147 27.8568C89.8487 32.6002 85.9492 36.3397 79.9181 39.0024C79.6198 39.1115 79.3288 39.2425 79.0378 39.3807H78.9868H78.9141C78.8034 39.4395 78.7047 39.5184 78.6231 39.6135C78.5402 39.7087 78.4782 39.8202 78.4412 39.9409C78.4412 39.9409 78.4412 39.9409 78.4412 39.9991V40.1009C78.4376 40.1348 78.4376 40.1689 78.4412 40.2028C78.4376 40.2391 78.4376 40.2756 78.4412 40.3119C78.4412 40.3119 78.4412 40.3847 78.4412 40.4138C78.4376 40.4501 78.4376 40.4866 78.4412 40.5229C78.4381 40.5592 78.4381 40.5957 78.4412 40.632C78.4412 40.632 78.4412 40.6684 78.4412 40.6902C78.4412 40.7121 78.4412 40.6902 78.4412 40.6902V40.7484C78.9853 41.8693 79.7455 42.8717 80.6781 43.6979C81.6108 44.5241 82.6975 45.1579 83.8758 45.5629C85.0541 45.9678 86.3009 46.136 87.5444 46.0576C88.7879 45.9792 90.0037 45.6559 91.1219 45.1063C91.377 44.9755 91.5704 44.7495 91.6603 44.4772C91.7501 44.2049 91.7292 43.9082 91.602 43.6512C90.9679 42.4096 90.067 41.3235 88.964 40.4708C87.8609 39.6181 86.583 39.0197 85.2217 38.7187C86.3111 38.0186 87.3449 37.2354 88.3136 36.376C89.9461 37.6083 91.9357 38.2749 93.981 38.2749H94.2866C95.5274 38.2391 96.7488 37.9577 97.8801 37.4469C99.0115 36.9362 100.03 36.2062 100.878 35.2993C101.074 35.0853 101.178 34.8034 101.169 34.5136C101.153 34.236 101.031 33.9753 100.827 33.7861C99.7058 32.7352 98.3454 31.9733 96.8635 31.5664C95.3816 31.1595 93.8229 31.1198 92.3223 31.4507C92.8186 30.5697 93.2373 29.6471 93.5736 28.6934C93.5736 28.5843 93.6391 28.4824 93.6755 28.3806C94.5096 28.6253 95.3743 28.7502 96.2436 28.7516C98.0903 28.7527 99.8968 28.2132 101.44 27.1997C102.984 26.1861 104.197 24.7428 104.93 23.0479C104.996 22.9043 105.031 22.7484 105.033 22.5903C105.034 22.4322 105.001 22.2757 104.937 22.1312ZM89.8196 9.6251C88.4144 9.06063 87.2203 8.07172 86.4039 6.79627C85.5875 5.52082 85.1895 4.0224 85.2653 2.50995C86.6705 3.07442 87.8646 4.06332 88.681 5.33877C89.4974 6.61422 89.8954 8.11264 89.8196 9.6251ZM89.0339 43.5785C87.5938 44.0263 86.0501 44.0155 84.6164 43.5476C83.1827 43.0797 81.9298 42.1778 81.0312 40.9667C82.4713 40.5189 84.0149 40.5297 85.4486 40.9976C86.8823 41.4655 88.1352 42.3674 89.0339 43.5785ZM98.3971 34.55C97.1925 35.4687 95.7311 35.9884 94.2169 36.0367C92.7027 36.0849 91.2112 35.6593 89.9506 34.8191C91.1552 33.9004 92.6165 33.3807 94.1307 33.3324C95.6449 33.2842 97.1364 33.7098 98.3971 34.55ZM95.4288 12.8771C96.2871 11.6319 97.5169 10.6897 98.9427 10.1853C98.9694 11.6988 98.5232 13.183 97.6665 14.431C96.8097 15.679 95.5849 16.6287 94.1629 17.1477C94.1195 15.6257 94.563 14.1296 95.4288 12.8771ZM94.5121 26.278C95.333 25.0056 96.5305 24.0209 97.9377 23.4615C99.3449 22.902 100.892 22.7955 102.362 23.157C101.541 24.4295 100.344 25.4141 98.9365 25.9736C97.5293 26.5331 95.9827 26.6395 94.5121 26.278Z" fill="#961842"/>
<path d="M26.6926 40.2685V40.1667C26.6926 40.1667 26.6926 40.123 26.6926 40.1085C26.6926 40.0939 26.6926 40.1085 26.6926 40.1085C26.6555 39.9878 26.5936 39.8763 26.5107 39.7811C26.4291 39.686 26.3304 39.607 26.2197 39.5483H26.147H26.096C25.805 39.4101 25.514 39.2791 25.2157 39.17C19.0755 36.3763 15.176 32.6368 13.5099 27.9079C11.0509 20.9092 14.1938 13.6995 15.045 11.9607C17.3621 11.3077 19.3429 9.7957 20.5838 7.73288C21.8248 5.67006 22.2324 3.21167 21.7236 0.858727C21.6959 0.716114 21.64 0.580467 21.5592 0.459741C21.4784 0.339016 21.3743 0.235643 21.253 0.155683C21.1317 0.0757237 20.9957 0.020788 20.8529 -0.00590232C20.7101 -0.0325926 20.5634 -0.0305001 20.4214 0.000252396C18.0509 0.525916 15.9735 1.94309 14.6192 3.9583C13.2649 5.97352 12.7375 8.43239 13.1462 10.8258C12.7869 11.5364 12.4639 12.2649 12.1786 13.0083C11.9531 12.5324 11.6904 12.0751 11.3928 11.6406C10.6942 10.6147 9.79869 9.73787 8.75835 9.06096C7.718 8.38405 6.55355 7.92057 5.3326 7.69742C5.19198 7.67133 5.04758 7.67333 4.90774 7.7033C4.76789 7.73326 4.63536 7.79061 4.51777 7.87203C4.39638 7.95624 4.29322 8.06407 4.21447 8.18908C4.13571 8.31409 4.08299 8.45369 4.05944 8.59955C3.64087 10.8831 4.07682 13.2408 5.28425 15.2236C6.49168 17.2065 8.38624 18.676 10.6071 19.3523C10.452 20.5412 10.3936 21.7407 10.4325 22.939C9.67357 22.3176 8.82487 21.8147 7.9153 21.4476C6.76401 20.986 5.53243 20.7579 4.2922 20.7766C3.05196 20.7954 1.82783 21.0605 0.691015 21.5567C0.55812 21.6106 0.437815 21.6915 0.337657 21.7941C0.237498 21.8968 0.159649 22.0191 0.108999 22.1533C0.0531738 22.2857 0.0244141 22.4279 0.0244141 22.5716C0.0244141 22.7153 0.0531738 22.8575 0.108999 22.9899C0.841976 24.6849 2.05511 26.1281 3.59874 27.1417C5.14237 28.1553 6.94895 28.6948 8.7956 28.6937C9.6649 28.6923 10.5296 28.5674 11.3637 28.3226C11.4001 28.4245 11.4292 28.5263 11.4656 28.6355C11.8019 29.5892 12.2206 30.5117 12.7169 31.3928C11.2147 31.0552 9.65285 31.0896 8.16692 31.4927C6.68099 31.8959 5.31597 32.6558 4.19039 33.7063C3.98677 33.8956 3.86424 34.1563 3.84845 34.4338C3.83942 34.7236 3.94383 35.0055 4.13946 35.2195C4.987 36.1265 6.0059 36.8564 7.13726 37.3671C8.26863 37.8779 9.49001 38.1593 10.7308 38.1951H11.0364C13.0883 38.2098 15.0888 37.5532 16.7328 36.3254C17.7016 37.1847 18.7353 37.9679 19.8248 38.668C18.4635 38.9691 17.1856 39.5674 16.0825 40.4201C14.9795 41.2729 14.0786 42.3589 13.4445 43.6006C13.3173 43.8575 13.2964 44.1542 13.3862 44.4265C13.4761 44.6988 13.6695 44.9248 13.9246 45.0556C16.1569 46.1864 18.7464 46.3865 21.1259 45.6119C23.5053 44.8374 25.4809 43.1514 26.6199 40.9233V40.8651C26.6199 40.8651 26.6199 40.8214 26.6199 40.8069C26.6352 40.7717 26.6474 40.7352 26.6562 40.6978C26.6598 40.6615 26.6598 40.6249 26.6562 40.5886C26.6562 40.5886 26.6562 40.5232 26.6562 40.4868C26.6598 40.4505 26.6598 40.4139 26.6562 40.3777C26.6727 40.3429 26.6849 40.3062 26.6926 40.2685ZM16.3327 5.34753C17.145 4.06844 18.3423 3.0801 19.7521 2.52475C19.8279 4.03721 19.4298 5.53563 18.6134 6.81108C17.7971 8.08653 16.603 9.07543 15.1978 9.6399C15.1125 8.12051 15.5098 6.61306 16.3327 5.33298V5.34753ZM2.65532 23.1572C4.12586 22.7958 5.67253 22.9022 7.07969 23.4617C8.48686 24.0212 9.68437 25.0058 10.5053 26.2783C9.03473 26.6397 7.48806 26.5333 6.0809 25.9738C4.67373 25.4144 3.47622 24.4297 2.65532 23.1572ZM6.08194 10.1855C7.50807 10.6971 8.73562 11.647 9.58859 12.8992C10.4525 14.1447 10.8984 15.6325 10.8618 17.1479C9.43971 16.6289 8.21498 15.6793 7.35821 14.4313C6.50143 13.1833 6.05529 11.6991 6.08194 10.1855ZM10.7963 36.0635C9.2857 36.0308 7.8241 35.5215 6.62031 34.6084C7.88097 33.7683 9.37246 33.3426 10.8867 33.3909C12.4009 33.4391 13.8622 33.9589 15.0668 34.8776C13.8006 35.7038 12.3066 36.111 10.7963 36.0416V36.0635ZM20.4214 43.5569C18.9793 44.026 17.4256 44.026 15.9835 43.5569C16.8865 42.3453 18.1443 41.4449 19.5823 40.9808C21.0203 40.5167 22.5672 40.5118 24.0081 40.9669C23.1138 42.1852 21.859 43.0912 20.4214 43.5569Z" fill="#961842"/>
</g>
<defs>
<clipPath id="clip0_156_585">
<rect width="105.018" height="64" fill="white"/>
</clipPath>
</defs>
</svg>
