<svg width="69" height="42" viewBox="0 0 69 42" fill="none" xmlns="http://www.w3.org/2000/svg">
<g clip-path="url(#clip0_418_29)">
<path d="M22.9978 34.2369C22.7446 34.2369 22.5017 34.3375 22.3226 34.5166C22.1436 34.6956 22.043 34.9385 22.043 35.1918V36.2851C22.043 36.5383 22.1436 36.7812 22.3226 36.9603C22.5017 37.1394 22.7446 37.24 22.9978 37.24C23.2511 37.24 23.494 37.1394 23.673 36.9603C23.8521 36.7812 23.9527 36.5383 23.9527 36.2851V35.1918C23.9527 34.9385 23.8521 34.6956 23.673 34.5166C23.494 34.3375 23.2511 34.2369 22.9978 34.2369Z" fill="white"/>
<path d="M26.8172 33.282C26.5639 33.282 26.3211 33.3826 26.142 33.5617C25.9629 33.7408 25.8623 33.9837 25.8623 34.2369V37.24C25.8623 37.4932 25.9629 37.7361 26.142 37.9152C26.3211 38.0942 26.5639 38.1948 26.8172 38.1948C27.0704 38.1948 27.3133 38.0942 27.4924 37.9152C27.6714 37.7361 27.772 37.4932 27.772 37.24V34.2369C27.772 33.9837 27.6714 33.7408 27.4924 33.5617C27.3133 33.3826 27.0704 33.282 26.8172 33.282Z" fill="white"/>
<path d="M15.0581 13.3109V11.8547H17.5312V17.6078C17.5235 17.7288 17.5398 17.8502 17.5792 17.9649C17.6185 18.0796 17.6801 18.1854 17.7604 18.2762C17.9451 18.4309 18.1783 18.5156 18.4192 18.5156C18.6601 18.5156 18.8933 18.4309 19.0781 18.2762C19.1584 18.1854 19.22 18.0796 19.2593 17.9649C19.2986 17.8502 19.3149 17.7288 19.3072 17.6078V11.3248C19.3153 11.2008 19.2983 11.0764 19.2573 10.9591C19.2163 10.8418 19.1521 10.734 19.0685 10.642C18.9739 10.5581 18.8636 10.4937 18.744 10.4527C18.6243 10.4118 18.4977 10.395 18.3715 10.4033H14.361C14.2356 10.3956 14.1099 10.4127 13.9911 10.4537C13.8723 10.4946 13.7627 10.5587 13.6687 10.642C13.5852 10.734 13.521 10.8418 13.48 10.9591C13.439 11.0764 13.422 11.2008 13.43 11.3248V12.8573C13.4385 13.3594 13.4178 13.8616 13.3679 14.3613C13.3218 14.7565 13.2387 15.1465 13.1197 15.5262C13.0234 15.835 12.8818 16.1279 12.6995 16.3951C12.5354 16.6387 12.3302 16.8519 12.0932 17.0253C11.9129 17.154 11.7829 17.3414 11.7256 17.5553C11.7028 17.6573 11.7035 17.7631 11.7275 17.8648C11.7514 17.9665 11.7981 18.0615 11.864 18.1425C11.9263 18.2335 12.0061 18.3112 12.0987 18.3711C12.1914 18.4309 12.295 18.4717 12.4035 18.4911C12.5107 18.5061 12.6197 18.499 12.724 18.4702C12.8283 18.4415 12.9256 18.3917 13.0099 18.324C13.3385 18.0966 13.6314 17.8214 13.8788 17.5076C14.1417 17.1719 14.3585 16.8026 14.5233 16.4095C14.7065 15.9624 14.8394 15.4965 14.9196 15.0201C15.0145 14.4554 15.0608 13.8835 15.0581 13.3109V13.3109Z" fill="white"/>
<path d="M55.3387 11.0765C54.7611 10.5959 54.0212 10.3549 53.2714 10.4033H50.5118C50.2685 10.3901 50.0294 10.4704 49.8434 10.6277C49.7612 10.7185 49.6981 10.8248 49.658 10.9405C49.6178 11.0562 49.6013 11.1787 49.6095 11.3009V17.6078C49.6018 17.7288 49.6181 17.8502 49.6574 17.9649C49.6968 18.0796 49.7583 18.1854 49.8386 18.2762C49.9262 18.3591 50.0299 18.4231 50.1432 18.4641C50.2566 18.5052 50.3772 18.5225 50.4975 18.5149C50.6171 18.523 50.7371 18.5059 50.8498 18.4648C50.9624 18.4237 51.0652 18.3595 51.1516 18.2762C51.3072 18.0895 51.3857 17.8505 51.3712 17.6078V15.5262H53.2809C54.0326 15.5759 54.7741 15.3311 55.3482 14.8435C55.5954 14.5981 55.7878 14.3032 55.9129 13.9782C56.038 13.6532 56.0929 13.3053 56.0739 12.9576C56.0919 12.6098 56.0356 12.2622 55.9088 11.9379C55.782 11.6136 55.5877 11.3199 55.3387 11.0765V11.0765ZM54.0162 13.8456C53.7178 14.0707 53.3483 14.1808 52.9754 14.156H51.3712V11.7688H52.9945C53.3654 11.7419 53.734 11.8467 54.0353 12.0648C54.1586 12.1748 54.2551 12.3116 54.3171 12.4647C54.3792 12.6179 54.4053 12.7832 54.3934 12.9481C54.4027 13.1165 54.3735 13.2848 54.3082 13.4403C54.2428 13.5958 54.143 13.7344 54.0162 13.8456V13.8456Z" fill="white"/>
<path d="M44.2144 23.2941C45.7541 21.5107 46.7756 19.3395 47.1679 17.0164C47.5602 14.6932 47.3083 12.307 46.4396 10.117C45.571 7.92692 44.1187 6.01683 42.2406 4.59424C40.3625 3.17165 38.1305 2.29098 35.787 2.04791C33.4436 1.80484 31.0783 2.20867 28.9482 3.21553C26.8182 4.22238 25.0048 5.79375 23.7051 7.75889C22.4054 9.72403 21.6692 12.0078 21.5764 14.362C21.4835 16.7162 22.0377 19.0508 23.1786 21.1122L21.8036 22.4872C21.2944 22.996 20.9631 23.6557 20.859 24.368C20.7549 25.0803 20.8836 25.8071 21.2259 26.4404L15.1195 32.5468C14.9416 32.7257 14.8418 32.9677 14.8418 33.22C14.8418 33.4722 14.9416 33.7142 15.1195 33.8931C15.2083 33.9825 15.3139 34.0534 15.4303 34.1017C15.5466 34.1501 15.6714 34.1749 15.7974 34.1748C16.0496 34.175 16.2916 34.0755 16.4706 33.8979L22.577 27.7915C23.0659 28.054 23.612 28.1918 24.1669 28.1926C24.6081 28.1989 25.0462 28.1178 25.456 27.9539C25.8657 27.79 26.2389 27.5466 26.554 27.2377L27.8383 25.9486C30.1622 27.3499 32.8697 27.9803 35.5736 27.7496C38.2774 27.519 40.839 26.439 42.8919 24.6643L52.3069 34.0841C52.4859 34.2617 52.7279 34.3612 52.9801 34.361C53.1688 34.3612 53.3533 34.3054 53.5103 34.2008C53.6673 34.0962 53.7898 33.9474 53.8624 33.7732C53.9349 33.599 53.9542 33.4073 53.9178 33.2221C53.8815 33.037 53.7911 32.8668 53.6581 32.733L44.2144 23.2941ZM25.179 25.8627C24.9058 26.1219 24.5435 26.2665 24.1669 26.2665C23.7902 26.2665 23.4279 26.1219 23.1547 25.8627C22.8865 25.5941 22.7358 25.2301 22.7358 24.8505C22.7358 24.4709 22.8865 24.1069 23.1547 23.8383L24.248 22.7402C24.8377 23.5089 25.5119 24.2087 26.258 24.8266L25.179 25.8627ZM42.8441 21.9382L39.101 18.1998C39.9123 17.0144 40.2487 15.5674 40.0435 14.1457C39.8383 12.7239 39.1065 11.4311 37.9931 10.5235C36.8797 9.61581 35.466 9.15953 34.032 9.24503C32.5981 9.33054 31.2486 9.95159 30.2509 10.9851C29.2533 12.0187 28.6803 13.3893 28.6455 14.8253C28.6107 16.2614 29.1166 17.6581 30.0631 18.7388C31.0095 19.8194 32.3273 20.5051 33.7554 20.6599C35.1835 20.8148 36.6177 20.4275 37.7738 19.5749L41.536 23.2893C39.3704 25.1127 36.5842 26.0293 33.759 25.8477C30.9338 25.6662 28.2879 24.4005 26.3735 22.3148C24.4591 20.2292 23.4242 17.4848 23.4848 14.6544C23.5453 11.824 24.6967 9.12641 26.6985 7.12458C28.7004 5.12274 31.398 3.97138 34.2284 3.91082C37.0587 3.85026 39.8032 4.88518 41.8888 6.79956C43.9744 8.71394 45.2401 11.3599 45.4217 14.1851C45.6032 17.0103 44.6867 19.7964 42.8632 21.962L42.8441 21.9382ZM38.2751 14.8817C38.2751 15.6371 38.0511 16.3755 37.6314 17.0037C37.2117 17.6318 36.6152 18.1213 35.9173 18.4104C35.2193 18.6995 34.4514 18.7751 33.7105 18.6278C32.9695 18.4804 32.289 18.1166 31.7548 17.5824C31.2207 17.0483 30.8569 16.3677 30.7095 15.6268C30.5621 14.8859 30.6378 14.1179 30.9269 13.42C31.2159 12.7221 31.7055 12.1256 32.3336 11.7059C32.9617 11.2862 33.7002 11.0622 34.4556 11.0622C35.4686 11.0622 36.4401 11.4646 37.1564 12.1809C37.8727 12.8972 38.2751 13.8687 38.2751 14.8817Z" fill="white"/>
<path d="M34.4557 16.314C35.2468 16.314 35.8881 15.6727 35.8881 14.8817C35.8881 14.0906 35.2468 13.4494 34.4557 13.4494C33.6647 13.4494 33.0234 14.0906 33.0234 14.8817C33.0234 15.6727 33.6647 16.314 34.4557 16.314Z" fill="white"/>
<path d="M30.6365 31.3723C30.3833 31.3723 30.1404 31.4729 29.9613 31.652C29.7822 31.831 29.6816 32.0739 29.6816 32.3272V39.1497C29.6816 39.403 29.7822 39.6458 29.9613 39.8249C30.1404 40.004 30.3833 40.1046 30.6365 40.1046C30.8898 40.1046 31.1326 40.004 31.3117 39.8249C31.4908 39.6458 31.5914 39.403 31.5914 39.1497V32.3272C31.5914 32.0739 31.4908 31.831 31.3117 31.652C31.1326 31.4729 30.8898 31.3723 30.6365 31.3723Z" fill="white"/>
<path d="M34.4558 29.4625C34.2026 29.4625 33.9597 29.5631 33.7807 29.7422C33.6016 29.9213 33.501 30.1642 33.501 30.4174V41.0594C33.501 41.3127 33.6016 41.5556 33.7807 41.7346C33.9597 41.9137 34.2026 42.0143 34.4558 42.0143C34.7091 42.0143 34.952 41.9137 35.131 41.7346C35.3101 41.5556 35.4107 41.3127 35.4107 41.0594V30.4174C35.4107 30.1642 35.3101 29.9213 35.131 29.7422C34.952 29.5631 34.7091 29.4625 34.4558 29.4625Z" fill="white"/>
<path d="M38.2752 31.3723C38.0219 31.3723 37.7791 31.4729 37.6 31.652C37.4209 31.831 37.3203 32.0739 37.3203 32.3272V39.1497C37.3203 39.403 37.4209 39.6458 37.6 39.8249C37.7791 40.004 38.0219 40.1046 38.2752 40.1046C38.5284 40.1046 38.7713 40.004 38.9504 39.8249C39.1295 39.6458 39.2301 39.403 39.2301 39.1497V32.3272C39.2301 32.0739 39.1295 31.831 38.9504 31.652C38.7713 31.4729 38.5284 31.3723 38.2752 31.3723Z" fill="white"/>
<path d="M42.0945 33.282C41.8413 33.282 41.5984 33.3826 41.4193 33.5617C41.2402 33.7408 41.1396 33.9837 41.1396 34.2369V37.24C41.1396 37.4932 41.2402 37.7361 41.4193 37.9152C41.5984 38.0942 41.8413 38.1948 42.0945 38.1948C42.3478 38.1948 42.5906 38.0942 42.7697 37.9152C42.9488 37.7361 43.0494 37.4932 43.0494 37.24V34.2369C43.0494 33.9837 42.9488 33.7408 42.7697 33.5617C42.5906 33.3826 42.3478 33.282 42.0945 33.282Z" fill="white"/>
<path d="M45.9148 34.2369C45.6616 34.2369 45.4187 34.3375 45.2396 34.5166C45.0606 34.6956 44.96 34.9385 44.96 35.1918V36.2851C44.96 36.5383 45.0606 36.7812 45.2396 36.9603C45.4187 37.1394 45.6616 37.24 45.9148 37.24C46.1681 37.24 46.411 37.1394 46.59 36.9603C46.7691 36.7812 46.8697 36.5383 46.8697 36.2851V35.1918C46.8697 34.9385 46.7691 34.6956 46.59 34.5166C46.411 34.3375 46.1681 34.2369 45.9148 34.2369Z" fill="white"/>
<path d="M68.8646 14.5236C68.8314 14.4355 68.7803 14.3553 68.7145 14.2879C68.6488 14.2205 68.5699 14.1675 68.4826 14.1321C67.7366 13.8065 66.9333 13.6325 66.1194 13.6202C65.3055 13.6079 64.4972 13.7575 63.7417 14.0605C63.1448 14.3014 62.5878 14.6314 62.0898 15.0392C62.1153 14.2528 62.077 13.4657 61.9752 12.6855C63.4326 12.2416 64.6759 11.2773 65.4683 9.97603C66.2607 8.67477 66.5468 7.12752 66.2721 5.62896C66.2567 5.53325 66.2221 5.44163 66.1704 5.3596C66.1187 5.27756 66.051 5.20679 65.9713 5.15153C65.8942 5.0981 65.8072 5.06047 65.7154 5.0408C65.6236 5.02113 65.5289 5.01982 65.4366 5.03694C64.6308 5.18274 63.8623 5.48801 63.176 5.93483C62.4898 6.38165 61.8998 6.96103 61.4405 7.63897C61.2409 7.9423 61.0668 8.26168 60.9201 8.59384C60.7328 8.10595 60.5209 7.6279 60.2851 7.16153C60.5696 5.58283 60.2319 3.95527 59.3427 2.62013C58.4535 1.28499 57.0819 0.345982 55.5155 2.07524e-07C55.4236 -0.0204167 55.3287 -0.0225318 55.236 -0.00622436C55.1433 0.0100831 55.0548 0.0444935 54.9754 0.0950401C54.896 0.145587 54.8274 0.211279 54.7734 0.288361C54.7195 0.365444 54.6812 0.452405 54.6609 0.544277C54.3257 2.08909 54.5925 3.70361 55.407 5.0584C56.2214 6.41319 57.5222 7.40617 59.0437 7.83472C59.6023 8.97101 61.6696 13.6833 60.0559 18.281C58.9626 21.3939 56.4035 23.8479 52.4456 25.5953C52.2498 25.6669 52.0589 25.7529 51.8679 25.8436H51.8345H51.7867C51.7141 25.8821 51.6493 25.934 51.5957 25.9964V25.9964C51.5414 26.0588 51.5007 26.132 51.4764 26.2112C51.4764 26.2112 51.4764 26.2112 51.4764 26.2112C51.4764 26.2112 51.4764 26.2112 51.4764 26.2494V26.3162C51.474 26.3385 51.474 26.3609 51.4764 26.3831C51.474 26.4069 51.474 26.4309 51.4764 26.4547C51.4764 26.4547 51.4764 26.5024 51.4764 26.5215C51.4741 26.5454 51.4741 26.5693 51.4764 26.5932C51.4743 26.617 51.4743 26.6409 51.4764 26.6648C51.4764 26.6648 51.4764 26.6886 51.4764 26.703C51.4764 26.7173 51.4764 26.703 51.4764 26.703V26.7412C51.8334 27.4768 52.3323 28.1346 52.9444 28.6768C53.5564 29.219 54.2696 29.6349 55.0429 29.9006C55.8161 30.1664 56.6343 30.2767 57.4504 30.2253C58.2664 30.1739 59.0643 29.9617 59.7981 29.601C59.9655 29.5151 60.0924 29.3668 60.1514 29.1882C60.2104 29.0095 60.1966 28.8148 60.1132 28.6461C59.697 27.8313 59.1058 27.1186 58.382 26.559C57.6581 25.9993 56.8195 25.6067 55.9261 25.4091C56.641 24.9497 57.3194 24.4357 57.9552 23.8718C59.0265 24.6804 60.3322 25.1179 61.6744 25.1179H61.8749C62.6892 25.0944 63.4907 24.9097 64.2332 24.5745C64.9756 24.2394 65.6443 23.7603 66.2005 23.1652C66.3289 23.0247 66.3974 22.8397 66.3915 22.6495C66.3811 22.4674 66.3007 22.2963 66.1671 22.1721C65.4313 21.4824 64.5385 20.9825 63.566 20.7154C62.5936 20.4484 61.5707 20.4223 60.5859 20.6395C60.9116 20.0614 61.1864 19.4559 61.407 18.8301C61.407 18.7584 61.45 18.6916 61.4739 18.6248C62.0213 18.7854 62.5887 18.8673 63.1592 18.8683C64.3711 18.869 65.5567 18.5149 66.5697 17.8498C67.5827 17.1846 68.3788 16.2375 68.8598 15.1252C68.9033 15.031 68.9262 14.9286 68.927 14.8249C68.9278 14.7212 68.9066 14.6184 68.8646 14.5236ZM58.9435 6.31647C58.0213 5.94604 57.2377 5.29707 56.7019 4.46005C56.1662 3.62304 55.905 2.6397 55.9547 1.64715C56.8769 2.01759 57.6605 2.66655 58.1963 3.50357C58.732 4.34058 58.9932 5.32392 58.9435 6.31647V6.31647ZM58.4278 28.5984C57.4828 28.8923 56.4697 28.8852 55.5289 28.5781C54.588 28.2711 53.7658 27.6792 53.1761 26.8844C54.1211 26.5905 55.1342 26.5976 56.075 26.9047C57.0159 27.2117 57.8381 27.8036 58.4278 28.5984V28.5984ZM64.5724 22.6734C63.7819 23.2763 62.8229 23.6174 61.8292 23.6491C60.8355 23.6807 59.8567 23.4014 59.0294 22.8501C59.8199 22.2472 60.779 21.9061 61.7727 21.8744C62.7663 21.8427 63.7451 22.1221 64.5724 22.6734V22.6734ZM62.6245 8.45061C63.1877 7.6334 63.9948 7.01512 64.9305 6.6841C64.948 7.67737 64.6552 8.65136 64.093 9.47035C63.5307 10.2894 62.727 10.9126 61.7938 11.2532C61.7653 10.2544 62.0563 9.27254 62.6245 8.45061V8.45061ZM62.0229 17.245C62.5617 16.4099 63.3475 15.7637 64.271 15.3966C65.1944 15.0294 66.2094 14.9596 67.1745 15.1968C66.6357 16.0318 65.8499 16.678 64.9264 17.0452C64.003 17.4123 62.988 17.4822 62.0229 17.245Z" fill="white"/>
<path d="M17.5166 26.4264V26.3595C17.5166 26.3595 17.5166 26.3309 17.5166 26.3213C17.5166 26.3118 17.5166 26.3213 17.5166 26.3213C17.4923 26.2422 17.4516 26.169 17.3973 26.1065V26.1065C17.3437 26.0441 17.2789 25.9923 17.2063 25.9537V25.9537H17.1585H17.1251C16.9342 25.863 16.7432 25.7771 16.5474 25.7054C12.5179 23.8721 9.95882 21.4181 8.8655 18.3147C7.25176 13.7218 9.31428 8.99042 9.87288 7.84935C11.3935 7.42081 12.6934 6.42857 13.5077 5.07485C14.3221 3.72112 14.5896 2.1078 14.2557 0.563684C14.2376 0.470094 14.2009 0.381076 14.1478 0.30185C14.0948 0.222624 14.0265 0.154785 13.9469 0.102311C13.8673 0.049838 13.778 0.0137864 13.6843 -0.00372909C13.5906 -0.0212446 13.4943 -0.0198714 13.4011 0.000309937C11.8455 0.345277 10.4822 1.2753 9.59344 2.59778C8.70467 3.92026 8.35856 5.5339 8.62678 7.10455C8.39097 7.57091 8.17904 8.04897 7.99179 8.53685C7.84384 8.22454 7.67143 7.92441 7.47616 7.63928C7.01767 6.96605 6.42999 6.39062 5.74727 5.9464C5.06454 5.50218 4.30037 5.19802 3.49912 5.05158C3.40684 5.03446 3.31208 5.03577 3.22031 5.05543C3.12853 5.0751 3.04156 5.11273 2.96439 5.16616C2.88473 5.22143 2.81703 5.29219 2.76535 5.37423C2.71367 5.45626 2.67906 5.54788 2.66361 5.6436C2.38893 7.14216 2.67502 8.6894 3.46739 9.99066C4.25977 11.2919 5.50308 12.2563 6.96053 12.7001C6.8587 13.4803 6.82038 14.2675 6.84594 15.0538C6.34788 14.6461 5.79092 14.3161 5.19402 14.0751C4.43849 13.7722 3.63026 13.6225 2.81636 13.6348C2.00245 13.6471 1.19912 13.8211 0.453082 14.1467C0.36587 14.1821 0.28692 14.2352 0.22119 14.3026C0.155461 14.3699 0.104373 14.4502 0.0711337 14.5382C0.0344986 14.6251 0.015625 14.7184 0.015625 14.8127C0.015625 14.907 0.0344986 15.0004 0.0711337 15.0873C0.55215 16.1996 1.34827 17.1467 2.36128 17.8119C3.37428 18.4771 4.55985 18.8311 5.77171 18.8304C6.34219 18.8295 6.90965 18.7475 7.45706 18.5869C7.48093 18.6537 7.50003 18.7206 7.5239 18.7922C7.74458 19.418 8.01935 20.0235 8.34509 20.6017C7.35927 20.3801 6.33428 20.4027 5.35914 20.6673C4.38401 20.9318 3.48821 21.4305 2.74955 22.1199C2.61592 22.2441 2.53551 22.4152 2.52515 22.5973C2.51922 22.7875 2.58774 22.9725 2.71613 23.113C3.27232 23.7081 3.94097 24.1872 4.68343 24.5223C5.42589 24.8575 6.22742 25.0422 7.04169 25.0657H7.24221C8.5888 25.0753 9.90161 24.6445 10.9805 23.8387C11.6163 24.4026 12.2947 24.9166 13.0096 25.376C12.1163 25.5736 11.2776 25.9662 10.5538 26.5258C9.8299 27.0855 9.23871 27.7982 8.82253 28.613C8.73908 28.7817 8.72535 28.9764 8.78432 29.1551C8.84328 29.3337 8.9702 29.482 9.13763 29.5679C10.6026 30.31 12.3019 30.4413 13.8634 29.933C15.425 29.4247 16.7214 28.3183 17.4689 26.8561V26.8179C17.4689 26.8179 17.4689 26.7892 17.4689 26.7797C17.479 26.7566 17.487 26.7326 17.4928 26.708C17.4951 26.6842 17.4951 26.6602 17.4928 26.6364C17.4928 26.6364 17.4928 26.5935 17.4928 26.5696C17.4951 26.5458 17.4951 26.5218 17.4928 26.498C17.5036 26.4751 17.5116 26.4511 17.5166 26.4264ZM10.7179 3.50946C11.251 2.67006 12.0367 2.02146 12.9619 1.65701C13.0116 2.64956 12.7504 3.6329 12.2147 4.46991C11.6789 5.30693 10.8953 5.9559 9.97315 6.32633C9.91721 5.32923 10.1779 4.33996 10.7179 3.49991V3.50946ZM1.74216 15.1971C2.7072 14.9599 3.7222 15.0297 4.64565 15.3969C5.5691 15.764 6.35497 16.4102 6.89369 17.2453C5.92865 17.4825 4.91364 17.4126 3.99019 17.0455C3.06674 16.6783 2.28087 16.0322 1.74216 15.1971V15.1971ZM3.99088 6.68441C4.92678 7.0201 5.73235 7.6435 6.29212 8.46524C6.85908 9.28261 7.15166 10.259 7.12763 11.2535C6.19442 10.9129 5.39068 10.2897 4.82843 9.47066C4.26617 8.65167 3.97339 7.67768 3.99088 6.68441V6.68441ZM7.08466 23.6668C6.09335 23.6454 5.13417 23.3112 4.34418 22.7119C5.17149 22.1606 6.15028 21.8812 7.14397 21.9129C8.13767 21.9446 9.09668 22.2857 9.88721 22.8886C9.05623 23.4308 8.07583 23.698 7.08466 23.6525V23.6668ZM13.4011 28.5844C12.4548 28.8922 11.4352 28.8922 10.4888 28.5844C11.0813 27.7893 11.9068 27.1984 12.8505 26.8938C13.7942 26.5892 14.8093 26.586 15.7549 26.8847C15.168 27.6842 14.3446 28.2788 13.4011 28.5844V28.5844Z" fill="white"/>
</g>
<defs>
<clipPath id="clip0_418_29">
<rect width="68.9178" height="42" fill="white"/>
</clipPath>
</defs>
</svg>
