<svg width="49" height="48" viewBox="0 0 49 48" fill="none" xmlns="http://www.w3.org/2000/svg">
<g clip-path="url(#clip0_156_860)">
<path fill-rule="evenodd" clip-rule="evenodd" d="M45.7543 20.265C45.5338 20.087 45.2449 20.0182 44.9684 20.0775L30.6605 23.1387L29.0558 22.7955L33.2899 14.3145C33.2969 14.3005 33.3035 14.2866 33.3097 14.2727C33.8781 12.9789 34.1663 11.6023 34.1663 10.1807C34.1663 4.56702 29.5996 0 23.986 0C18.3723 0 13.8053 4.56702 13.8053 10.1807C13.8053 11.6023 14.0935 12.9789 14.6622 14.2727C14.6685 14.2866 14.6747 14.3005 14.6816 14.3145L17.7036 20.3665L16.3523 20.0775C16.3398 20.0746 16.327 20.0735 16.3142 20.0717C16.2959 20.0684 16.278 20.0651 16.2596 20.0629C16.2428 20.061 16.2263 20.0607 16.2098 20.0596C16.1915 20.0585 16.1736 20.057 16.1556 20.057C16.1384 20.057 16.1216 20.0585 16.1044 20.0592C16.0868 20.0603 16.0692 20.061 16.052 20.0629C16.0341 20.0651 16.0165 20.0684 15.9989 20.0713C15.9857 20.0735 15.9729 20.0746 15.9597 20.0771L1.45557 23.1808C1.02344 23.2731 0.714355 23.6554 0.714355 24.0974V31.83C0.714355 32.3478 1.13403 32.7675 1.65186 32.7675C2.16968 32.7675 2.58936 32.3478 2.58936 31.83V24.8555L15.2185 22.1536V43.2012L2.58936 45.9031V39.33C2.58936 38.8121 2.16968 38.3925 1.65186 38.3925C1.13403 38.3925 0.714355 38.8121 0.714355 39.33V47.0625C0.714355 47.3456 0.842163 47.6136 1.06226 47.7913C1.23071 47.9275 1.43909 48 1.65186 48C1.71704 48 1.78296 47.993 1.84814 47.9791L16.156 44.918L30.4642 47.9791C30.4694 47.9802 30.4745 47.981 30.4796 47.9817C30.5005 47.9857 30.5214 47.989 30.5422 47.9916C30.5518 47.9927 30.5609 47.9941 30.5704 47.9952C30.6001 47.9982 30.6301 48 30.6605 48C30.6906 48 30.7206 47.9982 30.7502 47.9952C30.7598 47.9941 30.7693 47.9927 30.7784 47.9916C30.7993 47.989 30.8202 47.9857 30.8407 47.9817C30.8458 47.9806 30.8513 47.9802 30.8564 47.9791L45.3606 44.8759C45.7931 44.7832 46.1022 44.4012 46.1022 43.9592V36.2267C46.1022 35.7089 45.6825 35.2892 45.1647 35.2892C44.6469 35.2892 44.2272 35.7089 44.2272 36.2267V43.2008L31.598 45.9031V24.8555L44.2272 22.1536V28.7267C44.2272 29.2445 44.6469 29.6642 45.1647 29.6642C45.6825 29.6642 46.1022 29.2445 46.1022 28.7267V20.9941C46.1022 20.7111 45.9744 20.4434 45.7543 20.265ZM15.6803 10.1807C15.6803 5.60083 19.4061 1.875 23.986 1.875C28.5658 1.875 32.2916 5.60083 32.2916 10.1807C32.2916 11.3335 32.0594 12.4493 31.6021 13.4978L23.986 28.7523L16.3699 13.4978C15.9121 12.4493 15.6803 11.3335 15.6803 10.1807ZM17.0935 22.1536L18.7751 22.5132L23.1473 31.2697C23.3059 31.5875 23.6307 31.7886 23.986 31.7886C24.3412 31.7886 24.666 31.5875 24.825 31.2697L28.1908 24.5277L29.723 24.8555V45.9031L17.0939 43.2008V22.1536H17.0935Z" fill="#961842"/>
<path fill-rule="evenodd" clip-rule="evenodd" d="M30.0143 10.1809C30.0143 6.85681 27.3102 4.15234 23.9861 4.15234C20.662 4.15234 17.9575 6.85681 17.9575 10.1809C17.9575 13.505 20.662 16.2091 23.9861 16.2091C27.3102 16.2091 30.0143 13.505 30.0143 10.1809ZM19.8325 10.1809C19.8325 7.89062 21.6958 6.02734 23.9861 6.02734C26.2764 6.02734 28.1396 7.89062 28.1396 10.1809C28.1396 12.4708 26.2764 14.3341 23.9861 14.3341C21.6958 14.3341 19.8325 12.4708 19.8325 10.1809Z" fill="#961842"/>
<path fill-rule="evenodd" clip-rule="evenodd" d="M1.65186 36.5176C2.16821 36.5176 2.58936 36.0964 2.58936 35.5801C2.58936 35.0637 2.16821 34.6426 1.65186 34.6426C1.1355 34.6426 0.714355 35.0637 0.714355 35.5801C0.714355 36.0964 1.1355 36.5176 1.65186 36.5176Z" fill="#961842"/>
<path fill-rule="evenodd" clip-rule="evenodd" d="M45.1646 31.5391C44.6482 31.5391 44.2271 31.9602 44.2271 32.4766C44.2271 32.9929 44.6482 33.4141 45.1646 33.4141C45.6809 33.4141 46.1021 32.9929 46.1021 32.4766C46.1021 31.9602 45.6809 31.5391 45.1646 31.5391Z" fill="#961842"/>
</g>
<defs>
<clipPath id="clip0_156_860">
<rect width="48" height="48" fill="white" transform="translate(0.714355)"/>
</clipPath>
</defs>
</svg>
