<svg width="135" height="146" viewBox="0 0 135 146" fill="none" xmlns="http://www.w3.org/2000/svg">
<g opacity="0.15" clip-path="url(#clip0_420_1475)">
<path d="M90.1003 134.095C89.1081 134.095 88.1566 134.489 87.4551 135.19C86.7535 135.891 86.3594 136.843 86.3594 137.835V142.117C86.3594 143.109 86.7535 144.06 87.4551 144.761C88.1566 145.463 89.1081 145.857 90.1003 145.857C91.0924 145.857 92.0439 145.463 92.7455 144.761C93.4471 144.06 93.8412 143.109 93.8412 142.117V137.835C93.8412 136.843 93.4471 135.891 92.7455 135.19C92.0439 134.489 91.0924 134.095 90.1003 134.095Z" fill="#961842"/>
<path d="M105.064 130.355C104.072 130.355 103.12 130.749 102.419 131.45C101.717 132.151 101.323 133.103 101.323 134.095V145.857C101.323 146.848 101.717 147.8 102.419 148.501C103.12 149.202 104.072 149.596 105.064 149.596C106.056 149.596 107.008 149.202 107.709 148.501C108.411 147.8 108.805 146.848 108.805 145.857V134.095C108.805 133.103 108.411 132.151 107.709 131.45C107.008 130.749 106.056 130.355 105.064 130.355Z" fill="#961842"/>
<path d="M58.9948 52.1344V46.431H68.6837V68.964C68.6537 69.4379 68.7176 69.9131 68.8717 70.3624C69.0257 70.8116 69.267 71.2261 69.5815 71.5819C70.3053 72.1875 71.219 72.5194 72.1628 72.5194C73.1066 72.5194 74.0203 72.1875 74.744 71.5819C75.0586 71.2261 75.2998 70.8116 75.4539 70.3624C75.6079 69.9131 75.6718 69.4379 75.6418 68.964V44.3553C75.6733 43.8697 75.6067 43.3827 75.4461 42.9233C75.2854 42.4639 75.0339 42.0415 74.7066 41.6813C74.336 41.3524 73.9038 41.1004 73.435 40.9399C72.9662 40.7794 72.4702 40.7136 71.9757 40.7463H56.2639C55.7725 40.7161 55.28 40.7831 54.8146 40.9436C54.3492 41.104 53.92 41.3547 53.5518 41.6813C53.2244 42.0415 52.9729 42.4639 52.8123 42.9233C52.6516 43.3827 52.585 43.8697 52.6165 44.3553V50.3579C52.6498 52.3244 52.5686 54.2912 52.3734 56.2483C52.1927 57.7962 51.867 59.3238 51.4007 60.811C51.0234 62.0205 50.4687 63.1675 49.7547 64.2143C49.1116 65.1682 48.3079 66.0033 47.3793 66.6826C46.6729 67.1866 46.1638 67.9203 45.939 68.7583C45.8499 69.1577 45.8525 69.5721 45.9464 69.9705C46.0403 70.3688 46.2233 70.7407 46.4814 71.0583C46.7255 71.4147 47.0381 71.719 47.4009 71.9533C47.7638 72.1877 48.1698 72.3475 48.5951 72.4234C49.0147 72.4821 49.442 72.4544 49.8505 72.3418C50.259 72.2292 50.6402 72.0343 50.9705 71.7689C52.2581 70.8783 53.4055 69.8006 54.3748 68.5713C55.4048 67.2568 56.254 65.8103 56.8999 64.2704C57.6173 62.5196 58.138 60.6945 58.4523 58.8288C58.8241 56.6169 59.0055 54.3772 58.9948 52.1344Z" fill="#961842"/>
<path d="M173.223 91.2352C179.255 84.2505 183.257 75.7466 184.794 66.6476C186.331 57.5486 185.344 48.2025 181.941 39.6248C178.537 31.0471 172.848 23.566 165.49 17.9942C158.132 12.4224 149.388 8.97305 140.207 8.02103C131.026 7.069 121.759 8.65068 113.414 12.5942C105.069 16.5377 97.965 22.6922 92.8733 30.389C87.7815 38.0858 84.8971 47.0305 84.5334 56.2512C84.1698 65.4718 86.3408 74.6158 90.8105 82.6895L85.4236 88.075C83.4287 90.0679 82.1308 92.6515 81.723 95.4413C81.3152 98.231 81.8193 101.078 83.1603 103.558L59.2372 127.475C58.5405 128.176 58.1494 129.124 58.1494 130.112C58.1494 131.1 58.5405 132.047 59.2372 132.748C59.5853 133.098 59.9991 133.376 60.455 133.565C60.9108 133.755 61.3997 133.852 61.8933 133.851C62.8812 133.852 63.8292 133.462 64.5306 132.767L88.4537 108.85C90.369 109.878 92.5085 110.418 94.6823 110.421C96.411 110.446 98.1274 110.128 99.7326 109.486C101.338 108.844 102.8 107.891 104.035 106.681L109.066 101.632C118.17 107.121 128.778 109.59 139.37 108.686C149.963 107.783 159.999 103.553 168.042 96.602L204.927 133.496C205.628 134.192 206.576 134.582 207.564 134.581C208.303 134.581 209.026 134.363 209.641 133.953C210.257 133.543 210.736 132.961 211.021 132.279C211.305 131.596 211.38 130.845 211.238 130.12C211.096 129.395 210.741 128.728 210.22 128.204L173.223 91.2352ZM98.6477 101.296C97.5773 102.311 96.1579 102.877 94.6823 102.877C93.2067 102.877 91.7874 102.311 90.717 101.296C89.6661 100.244 89.0759 98.8179 89.0759 97.3312C89.0759 95.8446 89.6661 94.4188 90.717 93.3669L95.0003 89.066C97.3104 92.0765 99.9519 94.8176 102.875 97.2377L98.6477 101.296ZM167.854 85.9245L153.19 71.2828C156.369 66.6397 157.686 60.9725 156.882 55.4039C156.078 49.8354 153.211 44.7719 148.849 41.217C144.488 37.662 138.949 35.8749 133.331 36.2098C127.713 36.5447 122.426 38.9771 118.518 43.0251C114.609 47.0731 112.365 52.4413 112.228 58.0659C112.092 63.6905 114.074 69.161 117.782 73.3935C121.49 77.626 126.653 80.3116 132.248 80.9182C137.842 81.5247 143.461 80.0078 147.99 76.6682L162.729 91.2165C154.245 98.3582 143.33 101.948 132.262 101.237C121.193 100.526 110.827 95.5686 103.327 87.3999C95.8273 79.2312 91.7728 68.4822 92.01 57.3966C92.2473 46.3109 96.758 35.7452 104.601 27.9046C112.443 20.0641 123.012 15.5546 134.1 15.3174C145.189 15.0803 155.941 19.1337 164.112 26.6317C172.283 34.1297 177.241 44.4928 177.952 55.5582C178.664 66.6236 175.073 77.536 167.929 86.018L167.854 85.9245ZM149.954 58.2866C149.954 61.2453 149.077 64.1376 147.432 66.5977C145.788 69.0578 143.451 70.9752 140.717 72.1075C137.983 73.2397 134.974 73.536 132.071 72.9588C129.169 72.3815 126.502 70.9568 124.41 68.8646C122.317 66.7725 120.892 64.1069 120.314 61.205C119.737 58.3032 120.033 55.2953 121.166 52.5618C122.299 49.8282 124.217 47.4919 126.677 45.8481C129.138 44.2043 132.031 43.3269 134.991 43.3269C138.959 43.3269 142.765 44.903 145.571 47.7085C148.378 50.514 149.954 54.319 149.954 58.2866Z" fill="#961842"/>
<path d="M134.991 63.8965C138.09 63.8965 140.603 61.3849 140.603 58.2866C140.603 55.1884 138.09 52.6768 134.991 52.6768C131.892 52.6768 129.38 55.1884 129.38 58.2866C129.38 61.3849 131.892 63.8965 134.991 63.8965Z" fill="#961842"/>
<path d="M120.027 122.875C119.035 122.875 118.083 123.269 117.382 123.97C116.68 124.672 116.286 125.623 116.286 126.615V153.336C116.286 154.328 116.68 155.28 117.382 155.981C118.083 156.682 119.035 157.076 120.027 157.076C121.019 157.076 121.971 156.682 122.672 155.981C123.374 155.28 123.768 154.328 123.768 153.336V126.615C123.768 125.623 123.374 124.672 122.672 123.97C121.971 123.269 121.019 122.875 120.027 122.875Z" fill="#961842"/>
<path d="M134.991 115.395C133.999 115.395 133.047 115.789 132.346 116.49C131.644 117.192 131.25 118.143 131.25 119.135V160.816C131.25 161.808 131.644 162.759 132.346 163.461C133.047 164.162 133.999 164.556 134.991 164.556C135.983 164.556 136.935 164.162 137.636 163.461C138.338 162.759 138.732 161.808 138.732 160.816V119.135C138.732 118.143 138.338 117.192 137.636 116.49C136.935 115.789 135.983 115.395 134.991 115.395Z" fill="#961842"/>
<path d="M68.6273 103.503V103.241C68.6273 103.241 68.6273 103.129 68.6273 103.091C68.6273 103.054 68.6273 103.091 68.6273 103.091C68.532 102.781 68.3727 102.494 68.1597 102.25C67.9498 102.005 67.6961 101.802 67.4115 101.651H67.2245H67.0935C66.3454 101.296 65.5972 100.959 64.8303 100.679C49.0437 93.4984 39.018 83.8868 34.7347 71.7321C28.4126 53.7431 36.4929 35.2118 38.6814 30.7426C44.6385 29.0642 49.7312 25.1779 52.9217 19.8758C56.1121 14.5737 57.1601 8.25491 55.8521 2.20712C55.7809 1.84056 55.6372 1.49191 55.4294 1.1816C55.2216 0.871303 54.954 0.6056 54.6421 0.40008C54.3303 0.194559 53.9805 0.0533568 53.6134 -0.0152455C53.2462 -0.0838479 52.8691 -0.0784696 52.504 0.000574015C46.4096 1.35169 41.0685 4.99427 37.5866 10.174C34.1046 15.3537 32.7487 21.6738 33.7995 27.8255C32.8757 29.6521 32.0454 31.5245 31.3118 33.4354C30.7322 32.2121 30.0567 31.0366 29.2917 29.9199C27.4954 27.2831 25.1931 25.0293 22.5184 23.2894C19.8437 21.5496 16.8499 20.3583 13.7108 19.7847C13.3493 19.7176 12.978 19.7228 12.6185 19.7998C12.2589 19.8768 11.9182 20.0242 11.6159 20.2335C11.3038 20.4499 11.0386 20.7271 10.8361 21.0484C10.6336 21.3697 10.4981 21.7286 10.4375 22.1034C9.36139 27.9728 10.4822 34.0328 13.5865 39.1294C16.6908 44.226 21.5617 48.0031 27.2716 49.7414C26.8727 52.7971 26.7225 55.8802 26.8227 58.9603C24.8714 57.3631 22.6894 56.0706 20.3509 55.1269C17.391 53.9404 14.2246 53.3542 11.0359 53.4023C7.84729 53.4505 4.70006 54.1321 1.77731 55.4074C1.43563 55.546 1.12633 55.7538 0.868822 56.0177C0.611314 56.2816 0.411165 56.5958 0.280944 56.9407C0.137418 57.281 0.0634766 57.6466 0.0634766 58.0159C0.0634766 58.3853 0.137418 58.7509 0.280944 59.0912C2.16543 63.4477 5.2844 67.1574 9.25306 69.7626C13.2217 72.3678 17.8664 73.7545 22.6142 73.7516C24.8491 73.7481 27.0723 73.427 29.2169 72.798C29.3104 73.0597 29.3852 73.3215 29.4787 73.602C30.3433 76.0533 31.4197 78.4246 32.6959 80.6892C28.8338 79.8216 24.8181 79.9098 20.9978 80.9461C17.1775 81.9824 13.668 83.9354 10.7742 86.6356C10.2507 87.1221 9.93566 87.7922 9.89507 88.5056C9.87184 89.2505 10.1403 89.9751 10.6433 90.5251C12.8223 92.8562 15.4419 94.7324 18.3506 96.0452C21.2593 97.3579 24.3995 98.0812 27.5896 98.1732H28.3752C33.6507 98.2112 38.7939 96.5235 43.0208 93.3675C45.5115 95.5763 48.1692 97.5894 50.9702 99.3887C47.4703 100.163 44.1847 101.7 41.3488 103.892C38.5129 106.084 36.1968 108.876 34.5664 112.067C34.2394 112.728 34.1857 113.49 34.4167 114.19C34.6477 114.89 35.1449 115.471 35.8009 115.807C41.5401 118.713 48.1976 119.228 54.3152 117.237C60.4329 115.246 65.512 110.913 68.4403 105.186V105.036C68.4403 105.036 68.4403 104.924 68.4403 104.886C68.4798 104.796 68.5111 104.702 68.5338 104.606C68.5429 104.513 68.5429 104.419 68.5338 104.325C68.5338 104.325 68.5338 104.157 68.5338 104.064C68.543 103.97 68.543 103.876 68.5338 103.783C68.5761 103.694 68.6075 103.6 68.6273 103.503ZM41.9921 13.7447C44.0805 10.4571 47.1586 7.91673 50.7832 6.48932C50.9781 10.3768 49.9548 14.2282 47.8558 17.5065C45.7569 20.7848 42.687 23.3266 39.0742 24.7775C38.855 20.8722 39.8763 16.9976 41.9921 13.7073V13.7447ZM6.82753 59.5213C10.6083 58.5922 14.5848 58.8658 18.2026 60.3039C21.8204 61.7419 24.8992 64.2727 27.0097 67.5434C23.229 68.4724 19.2525 68.1988 15.6347 66.7608C12.0169 65.3228 8.93806 62.792 6.82753 59.5213ZM15.6374 26.18C19.3039 27.4947 22.46 29.9364 24.653 33.1549C26.8741 36.3563 28.0204 40.1804 27.9262 44.0754C24.2702 42.7414 21.1214 40.3005 18.9186 37.0928C16.7159 33.8851 15.5688 30.0703 15.6374 26.18ZM27.7579 92.6943C23.8742 92.6104 20.1164 91.3014 17.0215 88.9544C20.2627 86.7949 24.0973 85.7009 27.9903 85.8249C31.8833 85.9489 35.6404 87.2849 38.7375 89.6462C35.482 91.7698 31.641 92.8165 27.7579 92.6382V92.6943ZM52.504 111.955C48.7964 113.161 44.8019 113.161 41.0942 111.955C43.4157 108.841 46.6496 106.526 50.3467 105.333C54.0438 104.14 58.0208 104.128 61.7253 105.298C59.4262 108.429 56.2002 110.758 52.504 111.955Z" fill="#961842"/>
</g>
<defs>
<clipPath id="clip0_420_1475">
<rect width="270" height="164.5" fill="white"/>
</clipPath>
</defs>
</svg>
