<svg width="49" height="48" viewBox="0 0 49 48" fill="none" xmlns="http://www.w3.org/2000/svg">
<g clip-path="url(#clip0_156_842)">
<path d="M38.7326 41.5151H1.28564C1.02043 41.5151 0.766074 41.4097 0.578538 41.2222C0.391001 41.0346 0.285645 40.7803 0.285645 40.5151V19.0811C0.285645 18.8158 0.391001 18.5615 0.578538 18.3739C0.766074 18.1864 1.02043 18.0811 1.28564 18.0811H38.7326C38.9979 18.0811 39.2522 18.1864 39.4398 18.3739C39.6273 18.5615 39.7326 18.8158 39.7326 19.0811V40.5151C39.7326 40.7803 39.6273 41.0346 39.4398 41.2222C39.2522 41.4097 38.9979 41.5151 38.7326 41.5151ZM2.28564 39.5151H37.7326V20.0811H2.28564V39.5151Z" fill="#961842"/>
<path d="M32.2857 38.4853H7.73871C7.4735 38.4853 7.21914 38.38 7.03161 38.1924C6.84407 38.0049 6.73871 37.7505 6.73871 37.4853C6.73792 36.9531 6.52608 36.4429 6.14965 36.0667C5.77322 35.6904 5.26293 35.4789 4.73071 35.4783C4.4655 35.4783 4.21114 35.373 4.02361 35.1854C3.83607 34.9979 3.73071 34.7435 3.73071 34.4783V25.1193C3.73071 24.8541 3.83607 24.5998 4.02361 24.4122C4.21114 24.2247 4.4655 24.1193 4.73071 24.1193C5.26302 24.1185 5.77331 23.9067 6.14971 23.5303C6.52611 23.1539 6.73792 22.6436 6.73871 22.1113C6.73871 21.8461 6.84407 21.5918 7.03161 21.4042C7.21914 21.2167 7.4735 21.1113 7.73871 21.1113H32.2857C32.5509 21.1113 32.8053 21.2167 32.9928 21.4042C33.1804 21.5918 33.2857 21.8461 33.2857 22.1113C33.2862 22.6423 33.4969 23.1516 33.8716 23.5278C34.2463 23.904 34.7547 24.1167 35.2857 24.1193C35.5509 24.1193 35.8053 24.2247 35.9928 24.4122C36.1804 24.5998 36.2857 24.8541 36.2857 25.1193V34.4783C36.2857 34.7435 36.1804 34.9979 35.9928 35.1854C35.8053 35.373 35.5509 35.4783 35.2857 35.4783C34.7536 35.4789 34.2434 35.6905 33.8671 36.0667C33.4909 36.443 33.2792 36.9532 33.2787 37.4853C33.2787 37.7493 33.1743 38.0026 32.9883 38.19C32.8023 38.3773 32.5497 38.4835 32.2857 38.4853ZM8.61671 36.4853H31.4167C31.5955 35.7929 31.9556 35.1607 32.4598 34.6536C32.9641 34.1466 33.5943 33.783 34.2857 33.6003V25.9923C33.5925 25.8121 32.96 25.45 32.4535 24.9435C31.9471 24.437 31.585 23.8045 31.4047 23.1113H8.61171C8.43164 23.8046 8.06963 24.4372 7.56313 24.9437C7.05662 25.4502 6.42401 25.8123 5.73071 25.9923V33.6003C6.42441 33.7809 7.05724 34.1436 7.56376 34.6508C8.07028 35.158 8.43207 35.7914 8.61171 36.4853H8.61671Z" fill="#961842"/>
<path d="M20.0096 35.3101C18.9193 35.3103 17.8534 34.9872 16.9468 34.3815C16.0402 33.7759 15.3335 32.915 14.9163 31.9077C14.499 30.9004 14.3898 29.792 14.6025 28.7227C14.8153 27.6533 15.3403 26.6711 16.1114 25.9002C16.8824 25.1293 17.8647 24.6044 18.9341 24.3919C20.0035 24.1793 21.1119 24.2887 22.1191 24.7062C23.1263 25.1237 23.9871 25.8305 24.5925 26.7372C25.198 27.6439 25.521 28.7098 25.5206 29.8001C25.5182 31.2609 24.9368 32.6612 23.9038 33.694C22.8707 34.7269 21.4704 35.308 20.0096 35.3101ZM20.0096 26.2871C19.315 26.2869 18.6359 26.4927 18.0583 26.8785C17.4806 27.2642 17.0303 27.8126 16.7643 28.4542C16.4983 29.0959 16.4286 29.802 16.5639 30.4833C16.6992 31.1646 17.0335 31.7905 17.5245 32.2818C18.0155 32.7731 18.6412 33.1078 19.3224 33.2435C20.0037 33.3792 20.7098 33.3098 21.3516 33.0442C21.9935 32.7786 22.5421 32.3286 22.9282 31.7511C23.3142 31.1737 23.5204 30.4947 23.5206 29.8001C23.5201 28.8689 23.15 27.976 22.4918 27.3174C21.8335 26.6587 20.9408 26.2882 20.0096 26.2871Z" fill="#961842"/>
<path d="M41.1045 35.7887C40.848 35.7887 40.6012 35.6901 40.4153 35.5133C40.2294 35.3365 40.1185 35.095 40.1057 34.8387C40.0928 34.5825 40.179 34.3311 40.3463 34.1366C40.5136 33.9421 40.7493 33.8193 41.0045 33.7937L42.1585 33.6727L40.1285 14.3457L7.93554 17.7257C7.67165 17.7534 7.40756 17.6751 7.20136 17.5081C6.99517 17.3411 6.86376 17.0991 6.83604 16.8352C6.80833 16.5713 6.88658 16.3072 7.05358 16.101C7.22058 15.8948 7.46265 15.7634 7.72654 15.7357L40.9105 12.2517C41.0412 12.2378 41.1733 12.2498 41.2994 12.2871C41.4254 12.3243 41.5428 12.386 41.645 12.4687C41.7472 12.5513 41.832 12.6533 41.8948 12.7688C41.9575 12.8843 41.9968 13.011 42.0105 13.1417L44.2495 34.4587C44.2634 34.5893 44.2514 34.7215 44.2141 34.8475C44.1769 34.9735 44.1152 35.091 44.0325 35.1931C43.9499 35.2953 43.8479 35.3802 43.7324 35.4429C43.6169 35.5056 43.4902 35.5449 43.3595 35.5587L41.2105 35.7847C41.1745 35.7867 41.1395 35.7887 41.1045 35.7887Z" fill="#961842"/>
<path d="M45.6528 29.8483C45.404 29.848 45.1643 29.7552 44.9804 29.5877C44.7965 29.4203 44.6816 29.1903 44.6581 28.9427C44.6346 28.6951 44.7042 28.4476 44.8534 28.2486C45.0025 28.0496 45.2205 27.9132 45.4648 27.8663L46.1158 27.7413L42.4538 8.65527L11.1128 14.6673C10.8519 14.7173 10.5819 14.6616 10.3621 14.5125C10.1423 14.3634 9.99075 14.1331 9.94076 13.8723C9.89076 13.6114 9.94644 13.3414 10.0955 13.1216C10.2446 12.9018 10.4749 12.7503 10.7358 12.7003L43.0598 6.50027C43.32 6.45043 43.5895 6.50595 43.8089 6.65465C44.0282 6.80334 44.1796 7.03303 44.2298 7.29327L48.2678 28.3443C48.3176 28.6047 48.2619 28.8743 48.113 29.0937C47.9641 29.3131 47.7342 29.4644 47.4738 29.5143L45.8418 29.8273C45.7795 29.8401 45.7163 29.8471 45.6528 29.8483Z" fill="#961842"/>
</g>
<defs>
<clipPath id="clip0_156_842">
<rect width="48" height="48" fill="white" transform="translate(0.285645)"/>
</clipPath>
</defs>
</svg>
