<svg width="48" height="48" viewBox="0 0 48 48" fill="none" xmlns="http://www.w3.org/2000/svg">
<path d="M6.1875 5.84961C5.66968 5.84961 5.25 6.26929 5.25 6.78711V14.2871C5.25 14.8049 5.66968 15.2246 6.1875 15.2246H13.6875C14.2053 15.2246 14.625 14.8049 14.625 14.2871C14.625 13.7693 14.2053 13.3496 13.6875 13.3496H7.125V6.78711C7.125 6.26929 6.70532 5.84961 6.1875 5.84961Z" fill="#961842"/>
<path d="M11.4094 10.9938C11.6496 10.9938 11.8895 10.9022 12.0726 10.7191L15.7666 7.02515C16.1324 6.6593 16.1324 6.06567 15.7666 5.69946C15.4004 5.33325 14.8067 5.33325 14.4405 5.69946L11.4094 8.73059L10.2254 7.54626C9.85922 7.18042 9.26559 7.18042 8.89938 7.54626C8.53354 7.91248 8.53354 8.5061 8.89938 8.87231L10.7466 10.7191C10.9297 10.9022 11.1695 10.9938 11.4094 10.9938Z" fill="#961842"/>
<path d="M5.25 41.4248C5.25 41.9426 5.66968 42.3623 6.1875 42.3623H13.6875C14.2053 42.3623 14.625 41.9426 14.625 41.4248V33.9248C14.625 33.407 14.2053 32.9873 13.6875 32.9873H6.1875C5.66968 32.9873 5.25 33.407 5.25 33.9248V41.4248ZM7.125 34.8623H12.75V40.4873H7.125V34.8623Z" fill="#961842"/>
<path d="M5.25 27.75C5.25 28.2678 5.66968 28.6875 6.1875 28.6875H13.6875C14.2053 28.6875 14.625 28.2678 14.625 27.75V20.25C14.625 19.7322 14.2053 19.3125 13.6875 19.3125H6.1875C5.66968 19.3125 5.25 19.7322 5.25 20.25V27.75ZM7.125 21.1875H12.75V26.8125H7.125V21.1875Z" fill="#961842"/>
<path d="M40.9688 24.1875H40.6875V8.25C40.6875 6.6991 39.4259 5.4375 37.875 5.4375H35.8125V2.24963C35.8125 1.00928 34.8032 0 33.5629 0H2.24963C1.00928 0 0 1.00928 0 2.24963V19.793C0 20.3108 0.419678 20.7305 0.9375 20.7305C1.45532 20.7305 1.875 20.3108 1.875 19.793V2.24963C1.875 2.04309 2.04309 1.875 2.24963 1.875H33.5629C33.7694 1.875 33.9375 2.04309 33.9375 2.24963V26.0167C32.4463 27.3929 31.5 29.424 31.5 31.6875V40.5C31.5 42.6925 32.3866 44.6678 33.7972 46.0404C33.7328 46.0924 33.6519 46.125 33.5629 46.125H2.24963C2.04309 46.125 1.875 45.9569 1.875 45.7504V28.2305C1.875 27.7126 1.45532 27.293 0.9375 27.293C0.419678 27.293 0 27.7126 0 28.2305V45.7504C0 46.9907 1.00928 48 2.24963 48H33.5629C34.2682 48 34.8984 47.6733 35.3112 47.1639C36.2769 47.6968 37.3711 48 38.5312 48H40.9688C44.8458 48 48 44.6356 48 40.5V31.6875C48 27.5519 44.8458 24.1875 40.9688 24.1875ZM46.125 31.6875V32.5312H40.6875V26.0625H40.9688C43.812 26.0625 46.125 28.5857 46.125 31.6875ZM35.8125 7.3125H37.875C38.3921 7.3125 38.8125 7.73291 38.8125 8.25V24.1875H38.5312C37.5677 24.1875 36.6493 24.3955 35.8125 24.7712V7.3125ZM38.5312 26.0625H38.8125V32.5312H33.375V31.6875C33.375 28.5857 35.688 26.0625 38.5312 26.0625ZM40.9688 46.125H38.5312C35.688 46.125 33.375 43.6018 33.375 40.5V34.4062H46.125V40.5C46.125 43.6018 43.812 46.125 40.9688 46.125Z" fill="#961842"/>
<path d="M19.6562 12.9746H29.6249C30.1427 12.9746 30.5624 12.5549 30.5624 12.0371C30.5624 11.5193 30.1427 11.0996 29.6249 11.0996H19.6562C19.1384 11.0996 18.7188 11.5193 18.7188 12.0371C18.7188 12.5549 19.1384 12.9746 19.6562 12.9746Z" fill="#961842"/>
<path d="M19.6562 7.72461H29.6249C30.1427 7.72461 30.5624 7.30493 30.5624 6.78711C30.5624 6.26929 30.1427 5.84961 29.6249 5.84961H19.6562C19.1384 5.84961 18.7188 6.26929 18.7188 6.78711C18.7188 7.30493 19.1384 7.72461 19.6562 7.72461Z" fill="#961842"/>
<path d="M19.6562 26.4375H29.6249C30.1427 26.4375 30.5624 26.0178 30.5624 25.5C30.5624 24.9822 30.1427 24.5625 29.6249 24.5625H19.6562C19.1384 24.5625 18.7188 24.9822 18.7188 25.5C18.7188 26.0178 19.1384 26.4375 19.6562 26.4375Z" fill="#961842"/>
<path d="M19.6562 21.1875H29.6249C30.1427 21.1875 30.5624 20.7678 30.5624 20.25C30.5624 19.7322 30.1427 19.3125 29.6249 19.3125H19.6562C19.1384 19.3125 18.7188 19.7322 18.7188 20.25C18.7188 20.7678 19.1384 21.1875 19.6562 21.1875Z" fill="#961842"/>
<path d="M19.6562 39.9004H28.6874C29.2052 39.9004 29.6249 39.4807 29.6249 38.9629C29.6249 38.4451 29.2052 38.0254 28.6874 38.0254H19.6562C19.1384 38.0254 18.7188 38.4451 18.7188 38.9629C18.7188 39.4807 19.1384 39.9004 19.6562 39.9004Z" fill="#961842"/>
<path d="M19.6562 34.6504H28.6874C29.2052 34.6504 29.6249 34.2307 29.6249 33.7129C29.6249 33.1951 29.2052 32.7754 28.6874 32.7754H19.6562C19.1384 32.7754 18.7188 33.1951 18.7188 33.7129C18.7188 34.2307 19.1384 34.6504 19.6562 34.6504Z" fill="#961842"/>
<path d="M0.9375 24.9375C1.18396 24.9375 1.42603 24.8372 1.60034 24.6628C1.77466 24.4885 1.875 24.2465 1.875 24C1.875 23.7535 1.77466 23.5115 1.60034 23.3372C1.42603 23.1628 1.18396 23.0625 0.9375 23.0625C0.69104 23.0625 0.448975 23.1628 0.274658 23.3372C0.100342 23.5115 0 23.7535 0 24C0 24.2465 0.100342 24.4885 0.274658 24.6628C0.448975 24.8372 0.69104 24.9375 0.9375 24.9375Z" fill="#961842"/>
</svg>
