<svg width="275" height="28" viewBox="0 0 275 28" fill="none" xmlns="http://www.w3.org/2000/svg">
<path d="M95.3173 0.299805C93.4214 0.299805 91.1465 2.24234 89.3023 5.50428C87.3375 8.91288 86.2 13.0913 86.2 16.738C86.2 22.0892 89.0093 27.4586 95.3173 27.4586C101.625 27.4586 104.435 22.0892 104.435 16.738C104.435 13.0913 103.297 8.89455 101.332 5.52262C99.4882 2.24234 97.2131 0.299805 95.3173 0.299805ZM144.558 8.28993H150.935V25.9742H157.777V8.28993H164.154V1.74754H144.558V8.28993ZM178.769 8.28993H188.8V1.74754H178.769C169.55 1.74754 164.636 6.62221 164.636 13.8792C164.636 21.1362 169.565 26.0109 178.769 26.0109H188.8V19.4503H178.769C174.495 19.4503 171.72 17.8193 171.72 13.8792C171.72 9.93915 174.495 8.28993 178.769 8.28993ZM130.649 1.76587L126.995 16.2432L123.342 1.76587H111.26V26.0292H118.102V6.27407L123.083 25.9926H130.925L135.906 6.25573V25.9926H142.748V1.76587H130.649Z" fill="#961842"/>
</svg>
