<svg width="275" height="30" viewBox="0 0 275 30" fill="none" xmlns="http://www.w3.org/2000/svg">
<path d="M122.959 28.4197L128.882 1.45221H136.183L133 15.7945L138.892 8.60335H147.06L139.735 17.5957L142.755 28.4197H135.471L132.459 18.164L130.076 28.4197H122.959ZM96.5973 14.866L101.74 28.4197H108.736L114.768 1.45221H107.559L104.511 15.1708L99.4614 1.4425H92.1556L86.2 28.4197H93.5474C94.3822 24.0995 95.4969 19.5319 96.5973 14.866ZM119.462 28.4197L123.834 8.6145H116.66L112.291 28.4197H119.462ZM117.028 4.27725C117.028 4.89758 117.173 7.09512 121.097 7.09512C124.357 7.09512 125.616 4.98454 125.616 3.40862C125.616 2.34712 124.757 0.505859 121.544 0.505859C118.585 0.505859 117.028 2.50702 117.028 4.27725ZM186.002 8.34916C182.938 7.42224 179.137 8.95533 177.262 11.5776C177.443 10.7646 177.638 9.81758 177.859 8.73204H170.583L166.325 28.4197H173.568L175.983 17.2497C176.428 15.1995 178.061 14.3202 179.511 14.6992C180.135 14.866 180.993 15.3452 180.707 17.0578L178.252 28.4197H185.406L188.687 13.2566C189.383 9.91394 186.664 8.54793 186.002 8.34916ZM161.656 26.6324C164.798 24.0348 166.352 19.6461 166.3 15.5146C166.25 11.5427 162.92 7.77469 157.131 7.77469C146.086 7.77469 144.48 16.4686 144.157 18.0557C143.351 22.0711 144.249 27.2766 149.436 28.6608C152.862 29.5748 158.212 29.4735 161.656 26.6324ZM153.555 15.1518C154.076 13.7106 155.488 13.3902 156.128 13.3838C157.708 13.3713 158.141 14.3205 158.004 15.212C157.624 17.6876 156.778 20.8306 156.461 21.8333C156.458 21.843 156.454 21.8558 156.454 21.8683C156.106 22.9634 155.085 23.6013 153.887 23.6013C152.665 23.6013 151.93 22.8273 152.034 21.843C152.216 20.1813 153.257 15.9816 153.555 15.1518Z" fill="#961842"/>
</svg>
