<svg width="48" height="48" viewBox="0 0 48 48" fill="none" xmlns="http://www.w3.org/2000/svg">
<rect width="48" height="48" rx="24" fill="#F5F5F5"/>
<path fill-rule="evenodd" clip-rule="evenodd" d="M28.7386 19.5585C28.7386 22.068 26.6086 24.1065 24.0001 24.1065C21.3909 24.1065 19.2609 22.068 19.2609 19.5585C19.2609 17.0385 21.3909 15 24.0001 15C26.6086 15 28.7386 17.0385 28.7386 19.5585ZM26.3274 19.5585C26.3274 18.315 25.2819 17.3092 24.0001 17.3092C22.7176 17.3092 21.6721 18.3142 21.6729 19.5585C21.6729 20.7915 22.7184 21.7972 24.0001 21.7972C25.2819 21.7972 26.3274 20.7915 26.3274 19.5585ZM19.795 26.7344C18.604 25.9964 18.082 25.5644 18.5417 24.6606C18.8125 24.1476 19.5535 23.7149 20.5352 24.4604C20.5352 24.4604 21.8612 25.4766 24.0017 25.4766C26.1414 25.4766 27.4682 24.4604 27.4682 24.4604C28.4507 23.7186 29.1887 24.1476 29.4624 24.6606C29.9154 25.5644 29.3934 25.9956 28.2024 26.7374L28.2032 26.7381C27.2027 27.3501 25.8249 27.5924 24.9152 27.6839C24.789 27.5623 25.8902 28.6184 26.8992 29.5861C27.695 30.3493 28.4334 31.0575 28.4672 31.0896C29.4864 32.0946 27.8282 33.6658 26.7977 32.6953C26.1115 32.0246 25.1103 31.0614 24.0618 30.0528L24.0099 30.0028L21.2222 32.6916C20.1925 33.6583 18.5335 32.0736 19.564 31.0858C22.6359 28.131 23.0919 27.6923 23.1046 27.6801C23.098 27.6865 22.9762 27.8036 23.1047 27.6801C23.1047 27.6801 23.1046 27.6801 23.1046 27.6801C22.2061 27.5886 20.8074 27.3598 19.795 26.7344Z" fill="#961842"/>
</svg>
