<svg width="275" height="32" viewBox="0 0 275 32" fill="none" xmlns="http://www.w3.org/2000/svg">
<path d="M68.2088 0C58.7477 0 51.1001 7.08053 51.1001 15.8398C51.1001 24.5992 58.7477 31.6797 68.2088 31.6797C77.6698 31.6797 85.3175 24.5992 85.3175 15.8398C85.3175 7.08053 77.6698 0 68.2088 0ZM65.8435 22.5553L64.5821 25.9861C59.8516 24.5263 56.6979 20.3656 56.6979 15.6938C56.6979 11.0222 59.8516 6.93451 64.6609 5.40158L65.9223 8.83233C62.7687 9.78132 60.7189 12.5551 60.7189 15.6208C60.5612 18.8327 62.6899 21.6065 65.8435 22.5553ZM71.6779 26.0591L70.4953 22.5553C73.7277 21.6065 75.8564 18.8327 75.8564 15.6938C75.8564 12.5551 73.7277 9.85433 70.5741 8.90534L71.8355 5.40158C76.645 6.8615 79.8774 11.0222 79.8774 15.6938C79.8774 20.5115 76.566 24.6722 71.6779 26.0591Z" fill="#961842"/>
<path d="M221.451 19.3317L223.316 21.6092C221.374 23.6513 218.962 24.201 217.02 24.201C215.154 24.201 213.832 23.8868 212.666 23.3371C210.178 22.0806 208.934 19.5674 208.934 16.5045C208.934 11.8709 212.044 8.41547 216.63 8.41547C221.762 8.41547 224.249 12.2637 223.861 17.2899H212.199C212.276 18.5464 212.976 19.7245 213.987 20.3527C214.842 20.9024 215.853 21.1381 217.175 21.1381C218.651 21.1381 220.129 20.6669 221.451 19.3317ZM212.276 14.5412H220.518C220.284 12.7348 218.808 11.1641 216.475 11.1641C214.066 11.1641 212.588 12.8919 212.276 14.5412ZM133.989 23.7297H138.187L131.579 15.9548L138.11 8.65112H133.989L129.014 14.4627H127.536V8.65112H124.349V23.6513H127.536V17.6826H129.014L133.989 23.7297ZM147.672 11.3998C144.951 11.3998 143.163 13.5202 143.163 16.1905C143.163 18.8606 144.951 20.981 147.672 20.981C150.393 20.981 152.103 18.9391 152.103 16.1905C152.181 13.5987 150.471 11.3998 147.672 11.3998ZM148.216 8.33691C152.414 8.33691 155.524 11.6354 155.524 16.1905C155.524 20.6669 152.492 24.1224 148.216 24.1224C146.195 24.1224 144.562 23.4156 143.396 22.1591V30.0125H140.131V8.72967H143.318V10.5359C144.562 9.04372 146.195 8.33691 148.216 8.33691ZM190.586 8.72967H177.292V11.714H182.346V23.7297H185.61V11.714H190.665V8.72967H190.586ZM122.094 8.72967H108.723V11.714H113.776V23.7297H117.041V11.714H122.094V8.72967ZM104.835 16.269C104.835 13.4416 102.892 11.3998 100.171 11.3998C97.5274 11.3998 95.5062 13.4416 95.5062 16.269C95.5062 19.0962 97.4497 21.1381 100.171 21.1381C102.814 21.1381 104.835 19.0962 104.835 16.269ZM92.1631 16.269C92.1631 11.7925 95.5839 8.41547 100.171 8.41547C104.68 8.41547 108.178 11.7925 108.178 16.269C108.178 20.7455 104.758 24.201 100.171 24.201C95.6616 24.1224 92.1631 20.7455 92.1631 16.269ZM206.369 8.72967V23.7297H203.181V14.0699L195.407 23.7297H192.841V8.72967H196.029V18.3894L203.803 8.72967H206.369ZM175.038 23.7297H171.85V8.72967H175.038V23.7297ZM166.797 18.6249C166.797 17.2899 165.864 16.3474 164.62 16.3474H161.355V20.981H164.62C165.864 20.981 166.797 19.9601 166.797 18.6249ZM169.985 18.6249C169.985 21.6092 167.808 23.7297 164.698 23.7297H158.167V8.72967H161.355V13.5987H165.009C168.119 13.5987 169.985 15.6406 169.985 18.6249Z" fill="#961842"/>
</svg>
