<svg width="14" height="15" viewBox="0 0 14 15" fill="none" xmlns="http://www.w3.org/2000/svg">
<path d="M5.33526 2.33815L4.6389 2.61669L5.33526 2.33815ZM6.0381 4.09525L6.73446 3.81671L6.0381 4.09525ZM5.82443 5.44402L6.40059 5.92416L5.82443 5.44402ZM5.44617 5.89793L6.02233 6.37807L5.44617 5.89793ZM5.52765 7.69432L4.99732 8.22465L5.52765 7.69432ZM6.80568 8.97235L7.33601 8.44202L6.80568 8.97235ZM8.60207 9.05383L8.12193 8.47767L8.60207 9.05383ZM9.05598 8.67557L9.53612 9.25174L9.53612 9.25174L9.05598 8.67557ZM10.4047 8.4619L10.1262 9.15826L10.4047 8.4619ZM12.1619 9.16474L12.4404 8.46838L12.1619 9.16474ZM2.26316 2.25H4.09729V0.75H2.26316V2.25ZM4.6389 2.61669L5.34174 4.3738L6.73446 3.81671L6.03162 2.0596L4.6389 2.61669ZM5.24826 4.96388L4.87 5.41779L6.02233 6.37807L6.40059 5.92416L5.24826 4.96388ZM4.99732 8.22465L6.27535 9.50268L7.33601 8.44202L6.05798 7.16399L4.99732 8.22465ZM9.08221 9.63L9.53612 9.25174L8.57584 8.09941L8.12193 8.47767L9.08221 9.63ZM10.1262 9.15826L11.8833 9.8611L12.4404 8.46838L10.6833 7.76554L10.1262 9.15826ZM12.25 10.4027V12.2368H13.75V10.4027H12.25ZM11.7368 12.75C6.22126 12.75 1.75 8.27874 1.75 2.76316H0.25C0.25 9.10717 5.39283 14.25 11.7368 14.25V12.75ZM12.25 12.2368C12.25 12.5203 12.0203 12.75 11.7368 12.75V14.25C12.8487 14.25 13.75 13.3487 13.75 12.2368H12.25ZM11.8833 9.8611C12.1048 9.94969 12.25 10.1642 12.25 10.4027H13.75C13.75 9.55083 13.2314 8.78477 12.4404 8.46838L11.8833 9.8611ZM9.53612 9.25174C9.70072 9.11457 9.92727 9.07868 10.1262 9.15826L10.6833 7.76554C9.9728 7.48135 9.1637 7.60952 8.57584 8.09941L9.53612 9.25174ZM6.27535 9.50268C7.03726 10.2646 8.25444 10.3198 9.08221 9.63L8.12193 8.47767C7.89016 8.67081 7.54935 8.65535 7.33601 8.44202L6.27535 9.50268ZM4.87 5.41779C4.1802 6.24556 4.23541 7.46274 4.99732 8.22465L6.05798 7.16399C5.84465 6.95065 5.82919 6.60984 6.02233 6.37807L4.87 5.41779ZM5.34174 4.3738C5.42132 4.57273 5.38543 4.79928 5.24826 4.96388L6.40059 5.92416C6.89047 5.3363 7.01865 4.5272 6.73446 3.81671L5.34174 4.3738ZM4.09729 2.25C4.33582 2.25 4.55031 2.39522 4.6389 2.61669L6.03162 2.0596C5.71523 1.26865 4.94917 0.75 4.09729 0.75V2.25ZM2.26316 0.75C1.15132 0.75 0.25 1.65132 0.25 2.76316H1.75C1.75 2.47975 1.97975 2.25 2.26316 2.25V0.75Z" fill="#961842"/>
</svg>
