<svg width="18" height="18" viewBox="0 0 18 18" fill="none" xmlns="http://www.w3.org/2000/svg">
<path d="M6.78034 2.11753L5.85187 2.48892L6.78034 2.11753ZM7.71747 4.46034L8.64595 4.08895V4.08895L7.71747 4.46034ZM7.43257 6.25869L8.20079 6.89888L8.20079 6.89888L7.43257 6.25869ZM6.92822 6.86391L7.69644 7.5041L6.92822 6.86391ZM7.03687 9.25909L6.32976 9.9662L7.03687 9.25909ZM8.74091 10.9631L9.44801 10.256V10.256L8.74091 10.9631ZM11.1361 11.0718L10.4959 10.3036L11.1361 11.0718ZM11.7413 10.5674L12.3815 11.3357L12.3815 11.3357L11.7413 10.5674ZM13.5397 10.2825L13.1683 11.211L13.5397 10.2825ZM15.8825 11.2197L16.2539 10.2912L15.8825 11.2197ZM2.68421 2H5.12972V0H2.68421V2ZM5.85187 2.48892L6.78899 4.83173L8.64595 4.08895L7.70882 1.74614L5.85187 2.48892ZM6.66435 5.61851L6.16 6.22373L7.69644 7.5041L8.20079 6.89888L6.66435 5.61851ZM6.32976 9.9662L8.0338 11.6702L9.44801 10.256L7.74398 8.55199L6.32976 9.9662ZM11.7763 11.84L12.3815 11.3357L11.1011 9.79921L10.4959 10.3036L11.7763 11.84ZM13.1683 11.211L15.5111 12.1481L16.2539 10.2912L13.9111 9.35406L13.1683 11.211ZM16 12.8703V15.3158H18V12.8703H16ZM15.3158 16C7.96168 16 2 10.0383 2 2.68421H0C0 11.1429 6.85711 18 15.3158 18V16ZM16 15.3158C16 15.6937 15.6937 16 15.3158 16V18C16.7982 18 18 16.7982 18 15.3158H16ZM15.5111 12.1481C15.8064 12.2662 16 12.5522 16 12.8703H18C18 11.7344 17.3085 10.713 16.2539 10.2912L15.5111 12.1481ZM12.3815 11.3357C12.601 11.1528 12.903 11.1049 13.1683 11.211L13.9111 9.35406C12.9637 8.97513 11.8849 9.14603 11.1011 9.79921L12.3815 11.3357ZM8.0338 11.6702C9.04968 12.6861 10.6726 12.7597 11.7763 11.84L10.4959 10.3036C10.1869 10.5611 9.73246 10.5405 9.44801 10.256L8.0338 11.6702ZM6.16 6.22373C5.24026 7.32741 5.31388 8.95032 6.32976 9.9662L7.74398 8.55199C7.45953 8.26754 7.43892 7.81313 7.69644 7.5041L6.16 6.22373ZM6.78899 4.83173C6.89509 5.09698 6.84724 5.39904 6.66435 5.61851L8.20079 6.89888C8.85397 6.11507 9.02487 5.03626 8.64595 4.08895L6.78899 4.83173ZM5.12972 2C5.44776 2 5.73375 2.19363 5.85187 2.48892L7.70882 1.74614C7.28698 0.69153 6.26557 0 5.12972 0V2ZM2.68421 0C1.20176 0 0 1.20176 0 2.68421H2C2 2.30633 2.30633 2 2.68421 2V0Z" fill="white"/>
</svg>
