<svg width="48" height="48" viewBox="0 0 48 48" fill="none" xmlns="http://www.w3.org/2000/svg">
<g clip-path="url(#clip0_196_946)">
<path d="M9.9375 17.8125C9.9375 25.5667 16.2458 31.875 24 31.875C31.7542 31.875 38.0625 25.5667 38.0625 17.8125C38.0625 10.0583 31.7542 3.75 24 3.75C16.2458 3.75 9.9375 10.0583 9.9375 17.8125ZM24 5.625C30.7203 5.625 36.1875 11.0922 36.1875 17.8125C36.1875 24.5328 30.7203 30 24 30C17.2797 30 11.8125 24.5328 11.8125 17.8125C11.8125 11.0922 17.2797 5.625 24 5.625Z" fill="#961842"/>
<path d="M15.3179 16.1411L18.9518 19.7216L18.1158 24.7537C18.0575 25.1041 18.2022 25.4572 18.4897 25.6659C18.7768 25.8746 19.1573 25.9028 19.4726 25.7395L24 23.3884L28.5271 25.7395C28.8399 25.9017 29.2204 25.8765 29.51 25.6659C29.7975 25.4572 29.9422 25.1041 29.884 24.7537L29.0479 19.7216L32.6818 16.1411C32.9349 15.8921 33.0253 15.5215 32.9154 15.1835C32.8056 14.8458 32.5144 14.5994 32.1632 14.5463L27.1202 13.7871L24.8383 9.22375C24.6797 8.90625 24.3549 8.70557 24 8.70557C23.6448 8.70557 23.3204 8.90625 23.1614 9.22375L20.8796 13.7871L15.8365 14.5463C15.4853 14.599 15.1941 14.8458 15.0843 15.1835C14.9744 15.5215 15.0652 15.8921 15.3179 16.1411ZM21.6402 15.5687C21.9419 15.5233 22.2027 15.334 22.3393 15.0612L24 11.7393L25.6608 15.0612C25.7974 15.334 26.0581 15.5233 26.3599 15.5687L30.0304 16.1213L27.3853 18.7269C27.1681 18.9412 27.0685 19.2477 27.1183 19.5487L27.727 23.2112L24.4318 21.5002C24.2967 21.4299 24.1484 21.3948 24 21.3948C23.8517 21.3948 23.7034 21.4299 23.5679 21.5002L20.2727 23.2112L20.8814 19.5487C20.9316 19.2477 20.8319 18.9412 20.6144 18.7269L17.9696 16.1213L21.6402 15.5687Z" fill="#961842"/>
<path d="M24.9375 0.9375C24.9375 1.45532 24.5178 1.875 24 1.875C23.4822 1.875 23.0625 1.45532 23.0625 0.9375C23.0625 0.419678 23.4822 0 24 0C24.5178 0 24.9375 0.419678 24.9375 0.9375Z" fill="#961842"/>
<path d="M19.5817 0.552592C11.6953 2.56565 6.1875 9.66319 6.1875 17.8125C6.1875 22.8739 8.31555 27.643 12.0513 31.0206L6.4032 40.9746C6.22156 41.295 6.24426 41.692 6.46106 41.9894C6.67786 42.2871 7.04846 42.4303 7.40918 42.3552L13.8234 41.0233L16.0778 47.376C16.2001 47.7217 16.5132 47.9637 16.8787 47.9963C17.2441 48.0289 17.5946 47.8447 17.7759 47.5257L24 36.5834L30.2238 47.5257C30.3915 47.8205 30.7035 47.9996 31.0382 47.9996C31.0657 47.9996 31.0935 47.9985 31.121 47.9963C31.4865 47.9637 31.7996 47.7213 31.9222 47.376L34.1763 41.0233L40.5905 42.3552C40.9508 42.4299 41.3218 42.2867 41.5386 41.9894C41.7557 41.692 41.7781 41.295 41.5964 40.9746L35.9484 31.0206C39.6841 27.643 41.8121 22.8739 41.8121 17.8125C41.8121 9.66319 36.3043 2.56565 28.4183 0.552592C27.9163 0.424419 27.4061 0.727275 27.278 1.22898C27.1498 1.73069 27.4526 2.24119 27.9543 2.36936C35.0098 4.17039 39.9375 10.5209 39.9375 17.8125C39.9375 26.6869 32.7301 33.75 24 33.75C15.2637 33.75 8.0625 26.681 8.0625 17.8125C8.0625 10.5209 12.9899 4.17039 20.0453 2.36936C20.547 2.24119 20.8499 1.73069 20.722 1.22898C20.5939 0.727275 20.0837 0.424419 19.5817 0.552592ZM17.1595 44.8176L15.3171 39.6258C15.1604 39.1842 14.7019 38.926 14.243 39.0212L9.0564 40.0982L13.5264 32.2203C16.1327 34.1151 19.2188 35.2694 22.4279 35.555L17.1595 44.8176ZM33.7566 39.0212C33.2981 38.926 32.8392 39.1842 32.6825 39.6258L30.8405 44.8176L25.5718 35.555C28.7812 35.2694 31.8669 34.1151 34.4736 32.2203L38.9436 40.0982L33.7566 39.0212Z" fill="#961842"/>
</g>
<defs>
<clipPath id="clip0_196_946">
<rect width="48" height="48" fill="white"/>
</clipPath>
</defs>
</svg>
