<svg width="305" height="185" viewBox="0 0 305 185" fill="none" xmlns="http://www.w3.org/2000/svg">
<g opacity="0.15" clip-path="url(#clip0_195_640)">
<path d="M101.779 150.805C100.659 150.805 99.5837 151.249 98.7912 152.037C97.9987 152.826 97.5535 153.896 97.5535 155.011V159.827C97.5535 160.943 97.9987 162.013 98.7912 162.801C99.5837 163.59 100.659 164.033 101.779 164.033C102.9 164.033 103.975 163.59 104.767 162.801C105.56 162.013 106.005 160.943 106.005 159.827V155.011C106.005 153.896 105.56 152.826 104.767 152.037C103.975 151.249 102.9 150.805 101.779 150.805Z" fill="white"/>
<path d="M118.683 146.599C117.562 146.599 116.487 147.042 115.695 147.831C114.902 148.62 114.457 149.69 114.457 150.805V164.033C114.457 165.149 114.902 166.218 115.695 167.007C116.487 167.796 117.562 168.239 118.683 168.239C119.804 168.239 120.878 167.796 121.671 167.007C122.463 166.218 122.909 165.149 122.909 164.033V150.805C122.909 149.69 122.463 148.62 121.671 147.831C120.878 147.042 119.804 146.599 118.683 146.599Z" fill="white"/>
<path d="M66.6415 58.6313V52.2172H77.5865V77.5583C77.5526 78.0913 77.6247 78.6257 77.7987 79.1309C77.9728 79.6362 78.2453 80.1022 78.6007 80.5024C79.4182 81.1835 80.4504 81.5567 81.5165 81.5567C82.5826 81.5567 83.6148 81.1835 84.4323 80.5024C84.7877 80.1022 85.0602 79.6362 85.2342 79.1309C85.4083 78.6257 85.4804 78.0913 85.4465 77.5583V49.8829C85.4821 49.3367 85.4069 48.789 85.2254 48.2724C85.0439 47.7557 84.7598 47.2807 84.3901 46.8756C83.9715 46.5057 83.4832 46.2223 82.9536 46.0418C82.4241 45.8613 81.8637 45.7873 81.3052 45.8241H63.5567C63.0016 45.7901 62.4452 45.8655 61.9195 46.046C61.3938 46.2264 60.909 46.5083 60.4929 46.8756C60.1232 47.2807 59.8391 47.7557 59.6576 48.2724C59.4761 48.789 59.4009 49.3367 59.4365 49.8829V56.6335C59.4741 58.8451 59.3824 61.057 59.1618 63.2579C58.9577 64.9988 58.5898 66.7168 58.0631 68.3892C57.6369 69.7495 57.0103 71.0394 56.2037 72.2167C55.4772 73.2894 54.5693 74.2287 53.5203 74.9926C52.7224 75.5593 52.1472 76.3846 51.8934 77.3269C51.7927 77.7761 51.7956 78.2422 51.9017 78.6902C52.0078 79.1382 52.2145 79.5564 52.5061 79.9136C52.7818 80.3144 53.1349 80.6566 53.5448 80.9201C53.9547 81.1837 54.4133 81.3634 54.8937 81.4488C55.3678 81.5148 55.8504 81.4836 56.3119 81.357C56.7734 81.2305 57.204 81.0112 57.5771 80.7127C59.0316 79.7112 60.3277 78.4991 61.4226 77.1166C62.5861 75.6383 63.5455 74.0116 64.2751 72.2797C65.0855 70.3108 65.6737 68.2583 66.0288 66.16C66.4487 63.6725 66.6537 61.1537 66.6415 58.6313Z" fill="white"/>
<path d="M244.909 48.7894C242.352 46.6722 239.078 45.611 235.76 45.8242H223.547C222.47 45.766 221.412 46.1196 220.589 46.8126C220.225 47.2123 219.946 47.6809 219.768 48.1903C219.59 48.6998 219.517 49.2397 219.553 49.7778V77.5583C219.52 78.0913 219.592 78.6258 219.766 79.131C219.94 79.6362 220.212 80.1023 220.568 80.5025C220.955 80.8675 221.414 81.1492 221.916 81.3301C222.417 81.511 222.951 81.5872 223.484 81.554C224.013 81.5894 224.544 81.5142 225.043 81.3331C225.541 81.152 225.996 80.869 226.378 80.5025C227.067 79.68 227.414 78.627 227.35 77.5583V68.3892H235.802C239.128 68.6084 242.41 67.5298 244.951 65.382C246.045 64.3012 246.896 63.0023 247.45 61.5707C248.003 60.139 248.246 58.6069 248.162 57.0752C248.242 55.5433 247.993 54.0123 247.432 52.5837C246.871 51.1551 246.011 49.8616 244.909 48.7894ZM239.056 60.9867C237.735 61.9781 236.1 62.4633 234.45 62.3537H227.35V51.8387H234.534C236.176 51.7203 237.807 52.182 239.14 53.1426C239.686 53.627 240.113 54.2297 240.388 54.9043C240.662 55.5788 240.778 56.3071 240.725 57.0331C240.766 57.7749 240.637 58.5164 240.348 59.2013C240.059 59.8863 239.617 60.4968 239.056 60.9867Z" fill="white"/>
<path d="M195.678 102.605C202.492 94.7497 207.012 85.1861 208.748 74.9532C210.485 64.7203 209.37 54.2094 205.526 44.5628C201.681 34.9162 195.254 26.5027 186.942 20.2365C178.631 13.9704 168.753 10.0912 158.382 9.02055C148.011 7.94988 137.543 9.72867 128.116 14.1636C118.69 18.5986 110.664 25.5201 104.912 34.176C99.1607 42.832 95.9024 52.8914 95.4916 63.2611C95.0808 73.6309 97.5332 83.9143 102.582 92.9942L96.4971 99.0508C94.2436 101.292 92.7775 104.198 92.3168 107.335C91.8562 110.473 92.4256 113.674 93.9405 116.464L66.9162 143.361C66.1292 144.149 65.6874 145.215 65.6874 146.326C65.6874 147.437 66.1292 148.503 66.9162 149.291C67.3093 149.685 67.7769 149.997 68.2918 150.21C68.8067 150.423 69.3589 150.532 69.9166 150.532C71.0325 150.533 72.1035 150.094 72.8958 149.312L99.92 122.415C102.084 123.571 104.5 124.178 106.956 124.182C108.909 124.209 110.848 123.852 112.661 123.13C114.474 122.408 116.126 121.336 117.521 119.976L123.204 114.297C133.489 120.47 145.471 123.247 157.437 122.231C169.403 121.214 180.74 116.458 189.825 108.64L231.492 150.132C232.284 150.915 233.355 151.353 234.471 151.352C235.306 151.353 236.122 151.107 236.817 150.646C237.512 150.186 238.054 149.53 238.375 148.763C238.696 147.996 238.782 147.151 238.621 146.336C238.46 145.52 238.06 144.77 237.471 144.181L195.678 102.605ZM111.435 113.919C110.226 115.061 108.623 115.697 106.956 115.697C105.289 115.697 103.686 115.061 102.477 113.919C101.29 112.736 100.623 111.132 100.623 109.461C100.623 107.789 101.29 106.185 102.477 105.002L107.315 100.165C109.925 103.551 112.909 106.634 116.211 109.355L111.435 113.919ZM189.613 96.6324L173.048 80.1659C176.639 74.9443 178.127 68.5708 177.219 62.3083C176.311 56.0458 173.072 50.3514 168.145 46.3534C163.217 42.3554 156.961 40.3455 150.615 40.7222C144.269 41.0988 138.297 43.8344 133.881 48.3868C129.466 52.9393 126.931 58.9765 126.777 65.302C126.623 71.6275 128.862 77.7798 133.05 82.5398C137.238 87.2997 143.071 90.32 149.391 91.0021C155.711 91.6842 162.058 89.9783 167.174 86.2226L183.824 102.584C174.24 110.616 161.91 114.653 149.407 113.853C136.904 113.053 125.194 107.478 116.722 98.2916C108.249 89.1049 103.669 77.0164 103.937 64.5493C104.205 52.0821 109.301 40.1997 118.16 31.3821C127.019 22.5644 138.958 17.493 151.484 17.2262C164.01 16.9595 176.155 21.518 185.385 29.9504C194.616 38.3828 200.217 50.0375 201.02 62.4818C201.824 74.9261 197.768 87.1985 189.698 96.7375L189.613 96.6324ZM169.393 65.5502C169.393 68.8776 168.401 72.1304 166.544 74.897C164.687 77.6637 162.047 79.8201 158.958 81.0934C155.869 82.3668 152.471 82.7 149.192 82.0508C145.913 81.4017 142.901 79.7993 140.537 77.4465C138.173 75.0936 136.563 72.0959 135.911 68.8324C135.259 65.5688 135.593 62.1861 136.873 59.1119C138.152 56.0378 140.319 53.4102 143.098 51.5616C145.878 49.713 149.146 48.7263 152.489 48.7263C156.973 48.7263 161.272 50.4988 164.442 53.6539C167.612 56.809 169.393 61.0882 169.393 65.5502Z" fill="white"/>
<path d="M152.489 71.8592C155.99 71.8592 158.828 69.0346 158.828 65.5502C158.828 62.0659 155.99 59.2413 152.489 59.2413C148.989 59.2413 146.151 62.0659 146.151 65.5502C146.151 69.0346 148.989 71.8592 152.489 71.8592Z" fill="white"/>
<path d="M135.586 138.188C134.465 138.188 133.39 138.631 132.598 139.419C131.805 140.208 131.36 141.278 131.36 142.393V172.445C131.36 173.561 131.805 174.631 132.598 175.419C133.39 176.208 134.465 176.651 135.586 176.651C136.707 176.651 137.782 176.208 138.574 175.419C139.367 174.631 139.812 173.561 139.812 172.445V142.393C139.812 141.278 139.367 140.208 138.574 139.419C137.782 138.631 136.707 138.188 135.586 138.188Z" fill="white"/>
<path d="M152.49 129.776C151.369 129.776 150.294 130.219 149.501 131.007C148.709 131.796 148.264 132.866 148.264 133.981V180.857C148.264 181.973 148.709 183.042 149.501 183.831C150.294 184.62 151.369 185.063 152.49 185.063C153.61 185.063 154.685 184.62 155.478 183.831C156.27 183.042 156.715 181.973 156.715 180.857V133.981C156.715 132.866 156.27 131.796 155.478 131.007C154.685 130.219 153.61 129.776 152.49 129.776Z" fill="white"/>
<path d="M169.393 138.188C168.272 138.188 167.197 138.631 166.405 139.419C165.612 140.208 165.167 141.278 165.167 142.393V172.445C165.167 173.561 165.612 174.631 166.405 175.419C167.197 176.208 168.272 176.651 169.393 176.651C170.514 176.651 171.588 176.208 172.381 175.419C173.173 174.631 173.619 173.561 173.619 172.445V142.393C173.619 141.278 173.173 140.208 172.381 139.419C171.588 138.631 170.514 138.188 169.393 138.188Z" fill="white"/>
<path d="M186.296 146.599C185.175 146.599 184.101 147.042 183.308 147.831C182.516 148.62 182.07 149.69 182.07 150.805V164.033C182.07 165.149 182.516 166.218 183.308 167.007C184.101 167.796 185.175 168.239 186.296 168.239C187.417 168.239 188.492 167.796 189.284 167.007C190.077 166.218 190.522 165.149 190.522 164.033V150.805C190.522 149.69 190.077 148.62 189.284 147.831C188.492 147.042 187.417 146.599 186.296 146.599Z" fill="white"/>
<path d="M203.199 150.805C202.079 150.805 201.004 151.249 200.211 152.037C199.419 152.826 198.974 153.896 198.974 155.011V159.827C198.974 160.943 199.419 162.013 200.211 162.801C201.004 163.59 202.079 164.033 203.199 164.033C204.32 164.033 205.395 163.59 206.188 162.801C206.98 162.013 207.425 160.943 207.425 159.827V155.011C207.425 153.896 206.98 152.826 206.188 152.037C205.395 151.249 204.32 150.805 203.199 150.805Z" fill="white"/>
<path d="M304.768 63.973C304.62 63.5851 304.394 63.2317 304.103 62.9349C303.813 62.6381 303.463 62.4045 303.077 62.2485C299.776 60.8143 296.22 60.0478 292.618 59.9936C289.016 59.9395 285.44 60.5987 282.096 61.9331C279.454 62.9944 276.989 64.448 274.785 66.2442C274.898 62.7803 274.729 59.313 274.278 55.8765C280.728 53.9216 286.23 49.6738 289.737 43.942C293.244 38.2103 294.51 31.3951 293.294 24.7943C293.226 24.3727 293.073 23.9691 292.844 23.6078C292.615 23.2464 292.316 22.9347 291.963 22.6913C291.622 22.4559 291.237 22.2902 290.831 22.2035C290.425 22.1169 290.005 22.1111 289.597 22.1866C286.031 22.8288 282.629 24.1734 279.593 26.1415C276.556 28.1097 273.944 30.6617 271.912 33.6479C271.028 34.9839 270.258 36.3908 269.609 37.8538C268.78 35.7048 267.842 33.5991 266.798 31.5449C268.058 24.591 266.563 17.422 262.628 11.5411C258.693 5.6601 252.622 1.52399 245.69 1.73151e-05C245.284 -0.0899142 244.863 -0.0992309 244.453 -0.0274004C244.043 0.0444301 243.651 0.196 243.3 0.418645C242.949 0.641291 242.645 0.930648 242.406 1.27018C242.167 1.60971 241.998 1.99275 241.908 2.39743C240.425 9.20197 241.606 16.3135 245.21 22.2811C248.815 28.2486 254.571 32.6224 261.305 34.5101C263.777 39.5152 272.926 60.2717 265.784 80.5235C260.946 94.235 249.62 105.044 232.104 112.741C231.238 113.057 230.393 113.435 229.548 113.835H229.4H229.188C228.867 114.005 228.58 114.233 228.343 114.508C228.103 114.783 227.923 115.105 227.815 115.454C227.815 115.454 227.815 115.454 227.815 115.622V115.917C227.805 116.015 227.805 116.113 227.815 116.211C227.805 116.316 227.805 116.422 227.815 116.527C227.815 116.527 227.815 116.737 227.815 116.821C227.805 116.926 227.805 117.032 227.815 117.137C227.806 117.242 227.806 117.347 227.815 117.452C227.815 117.452 227.815 117.557 227.815 117.62C227.815 117.683 227.815 117.62 227.815 117.62V117.788C229.395 121.029 231.603 123.926 234.312 126.314C237.02 128.703 240.176 130.535 243.599 131.705C247.021 132.876 250.642 133.362 254.253 133.135C257.865 132.909 261.396 131.974 264.643 130.385C265.384 130.007 265.946 129.354 266.207 128.567C266.468 127.78 266.407 126.922 266.038 126.179C264.196 122.59 261.58 119.451 258.376 116.986C255.173 114.521 251.461 112.791 247.507 111.921C250.671 109.898 253.674 107.634 256.487 105.15C261.228 108.711 267.007 110.638 272.947 110.638H273.834C277.438 110.535 280.985 109.721 284.271 108.245C287.557 106.769 290.516 104.659 292.977 102.037C293.546 101.418 293.849 100.604 293.823 99.7658C293.777 98.9635 293.421 98.21 292.83 97.6629C289.573 94.6251 285.622 92.4228 281.319 91.2466C277.015 90.0703 272.488 89.9556 268.13 90.9123C269.571 88.3655 270.787 85.6987 271.764 82.9419C271.764 82.6265 271.954 82.3321 272.06 82.0376C274.482 82.7451 276.993 83.1062 279.518 83.1102C284.881 83.1134 290.128 81.5539 294.611 78.6241C299.094 75.6942 302.618 71.5222 304.746 66.6227C304.939 66.2079 305.04 65.757 305.044 65.3001C305.047 64.8432 304.953 64.3908 304.768 63.973ZM260.861 27.8226C256.78 26.1909 253.312 23.3323 250.941 19.6455C248.57 15.9586 247.414 11.6273 247.634 7.25533C251.715 8.887 255.183 11.7456 257.554 15.4324C259.925 19.1193 261.081 23.4506 260.861 27.8226ZM258.579 125.969C254.397 127.264 249.913 127.232 245.75 125.88C241.586 124.527 237.947 121.92 235.337 118.419C239.519 117.125 244.003 117.156 248.167 118.509C252.33 119.861 255.969 122.468 258.579 125.969ZM285.772 99.871C282.274 102.527 278.03 104.029 273.632 104.169C269.234 104.308 264.903 103.078 261.241 100.649C264.74 97.9934 268.984 96.491 273.382 96.3515C277.779 96.212 282.111 97.4424 285.772 99.871ZM277.152 37.2229C279.644 33.6233 283.216 30.8999 287.357 29.4419C287.434 33.817 286.139 38.1072 283.65 41.7147C281.162 45.3222 277.605 48.0673 273.475 49.5675C273.349 45.168 274.637 40.8433 277.152 37.2229ZM274.489 75.96C276.874 72.2817 280.351 69.4355 284.438 67.8183C288.525 66.2011 293.017 65.8934 297.288 66.9382C294.904 70.6165 291.426 73.4627 287.339 75.0799C283.252 76.6971 278.76 77.0048 274.489 75.96Z" fill="white"/>
<path d="M77.523 116.402V116.107C77.523 116.107 77.523 115.981 77.523 115.939C77.523 115.897 77.523 115.939 77.523 115.939C77.4154 115.59 77.2354 115.268 76.9948 114.993C76.7577 114.718 76.4711 114.489 76.1496 114.32H75.9383H75.7904C74.9453 113.92 74.1001 113.542 73.2338 113.226C55.4008 105.151 44.0755 94.3412 39.2369 80.6718C32.0953 60.441 41.2231 39.6004 43.6952 34.5743C50.4245 32.6867 56.1775 28.3161 59.7815 22.3532C63.3855 16.3904 64.5694 9.2841 63.0918 2.48264C63.0113 2.0704 62.849 1.67829 62.6143 1.32932C62.3796 0.980349 62.0772 0.681535 61.7249 0.450402C61.3727 0.219269 60.9776 0.0604705 60.5628 -0.0166811C60.1481 -0.0938326 59.722 -0.0877841 59.3097 0.00110989C52.4253 1.52061 46.3918 5.61712 42.4585 11.4423C38.5252 17.2676 36.9935 24.3753 38.1805 31.2936C37.1369 33.3478 36.199 35.4535 35.3703 37.6026C34.7155 36.2269 33.9525 34.9049 33.0883 33.6489C31.0592 30.6835 28.4585 28.1489 25.437 26.1922C22.4156 24.2355 19.0337 22.8958 15.4877 22.2507C15.0793 22.1753 14.6599 22.1811 14.2538 22.2677C13.8476 22.3543 13.4627 22.5201 13.1212 22.7555C12.7687 22.9989 12.4691 23.3106 12.2404 23.6719C12.0116 24.0333 11.8585 24.4368 11.7901 24.8584C10.5745 31.4592 11.8406 38.2745 15.3473 44.0062C18.854 49.7379 24.3563 53.9857 30.8064 55.9406C30.3557 59.3772 30.1861 62.8445 30.2993 66.3084C28.0951 64.5121 25.6302 63.0586 22.9886 61.9972C19.6449 60.6629 16.0681 60.0037 12.4661 60.0578C8.86412 60.112 5.30891 60.8785 2.00728 62.3127C1.62132 62.4686 1.27192 62.7023 0.981031 62.9991C0.690143 63.2958 0.464048 63.6493 0.316946 64.0371C0.154815 64.4199 0.0712891 64.831 0.0712891 65.2464C0.0712891 65.6617 0.154815 66.0729 0.316946 66.4556C2.44571 71.355 5.969 75.5271 10.4521 78.4569C14.9352 81.3868 20.182 82.9463 25.5452 82.943C28.0699 82.939 30.5812 82.5779 33.0038 81.8705C33.1095 82.1649 33.194 82.4593 33.2996 82.7748C34.2763 85.5315 35.4923 88.1984 36.9338 90.7451C32.571 89.7694 28.0349 89.8686 23.7194 91.0341C19.4038 92.1995 15.4394 94.3959 12.1704 97.4326C11.579 97.9797 11.2232 98.7333 11.1774 99.5356C11.1511 100.373 11.4543 101.188 12.0225 101.807C14.484 104.428 17.4432 106.538 20.729 108.015C24.0147 109.491 27.562 110.305 31.1656 110.408H32.053C38.0124 110.451 43.8223 108.553 48.5972 105.003C51.4107 107.487 54.413 109.751 57.5771 111.775C53.6234 112.645 49.912 114.375 46.7085 116.84C43.5049 119.305 40.8886 122.444 39.0468 126.033C38.6775 126.776 38.6167 127.634 38.8777 128.421C39.1386 129.208 39.7003 129.861 40.4413 130.239C46.9245 133.508 54.445 134.086 61.3557 131.847C68.2663 129.608 74.0039 124.735 77.3117 118.294V118.126C77.3117 118.126 77.3117 118 77.3117 117.958C77.3564 117.856 77.3917 117.75 77.4174 117.642C77.4277 117.537 77.4277 117.432 77.4174 117.327C77.4174 117.327 77.4174 117.138 77.4174 117.032C77.4278 116.928 77.4278 116.822 77.4174 116.717C77.4652 116.616 77.5006 116.511 77.523 116.402ZM47.4351 15.4581C49.7943 11.7607 53.2713 8.90378 57.3658 7.29848C57.586 11.6704 56.43 16.0018 54.0589 19.6886C51.6879 23.3755 48.22 26.234 44.1389 27.8657C43.8914 23.4737 45.045 19.1163 47.4351 15.416V15.4581ZM7.71216 66.9393C11.983 65.8945 16.475 66.2021 20.5618 67.8194C24.6485 69.4366 28.1264 72.2828 30.5106 75.9611C26.2397 77.0059 21.7478 76.6982 17.661 75.081C13.5742 73.4638 10.0963 70.6176 7.71216 66.9393ZM17.664 29.443C21.8059 30.9216 25.371 33.6675 27.8483 37.2871C30.3574 40.8874 31.6522 45.1882 31.5459 49.5686C27.4159 48.0683 23.8589 45.3232 21.3706 41.7158C18.8823 38.1083 17.5866 33.8181 17.664 29.443ZM31.3557 104.246C26.9686 104.152 22.7237 102.68 19.2276 100.04C22.8889 97.6117 27.2206 96.3814 31.6182 96.5208C36.0159 96.6603 40.2601 98.1627 43.7586 100.818C40.081 103.207 35.7422 104.384 31.3557 104.183V104.246ZM59.3097 125.907C55.1214 127.263 50.6091 127.263 46.4208 125.907C49.0433 122.405 52.6963 119.802 56.8727 118.461C61.0491 117.119 65.5416 117.105 69.7263 118.42C67.1292 121.942 63.485 124.561 59.3097 125.907Z" fill="white"/>
</g>
<defs>
<clipPath id="clip0_195_640">
<rect width="305" height="185" fill="white"/>
</clipPath>
</defs>
</svg>
