<svg width="275" height="31" viewBox="0 0 275 31" fill="none" xmlns="http://www.w3.org/2000/svg">
<path d="M208.714 15.0828C208.715 15.1289 208.708 15.1751 208.691 15.2182C208.675 15.2614 208.649 15.3006 208.616 15.3332C208.583 15.3659 208.543 15.3914 208.499 15.4079C208.456 15.4244 208.408 15.4316 208.361 15.4292H203.455C203.362 15.4253 203.273 15.3881 203.204 15.3243C203.137 15.2607 203.095 15.1748 203.087 15.0828V3.99756C203.087 3.90571 203.123 3.81761 203.189 3.75262C203.255 3.68764 203.345 3.65116 203.438 3.65116H208.361C208.454 3.65116 208.544 3.68764 208.61 3.75262C208.676 3.81761 208.714 3.90571 208.714 3.99756V15.0828ZM214.235 3.07965L212.723 1.60733C212.239 1.17179 211.618 0.914702 210.964 0.879883H196.721L196.827 18.2005H211.052C211.703 18.1439 212.32 17.8828 212.81 17.4556L214.304 15.9488C214.741 15.4691 215.001 14.8592 215.043 14.2167V4.88095C215.001 4.23499 214.734 3.6231 214.288 3.14884" fill="#961842"/>
<path d="M192.186 1.03476H188.67C188.485 1.03251 188.302 1.06628 188.132 1.13396C187.961 1.20165 187.807 1.30206 187.675 1.42948C187.544 1.55675 187.44 1.70833 187.37 1.87552C187.299 2.04256 187.262 2.22191 187.262 2.40306V9.57388L180.633 1.4679C180.495 1.32247 180.325 1.20855 180.137 1.13381C179.948 1.05907 179.746 1.0253 179.543 1.03476H176.027C175.842 1.03251 175.66 1.06628 175.489 1.13396C175.32 1.20165 175.164 1.30206 175.033 1.42948C174.903 1.55675 174.797 1.70833 174.727 1.87552C174.656 2.04256 174.62 2.22191 174.62 2.40306V16.9524C174.62 17.32 174.767 17.6723 175.032 17.9323C175.296 18.1921 175.653 18.3381 176.027 18.3381H179.543C179.917 18.3381 180.274 18.1921 180.538 17.9323C180.801 17.6723 180.949 17.32 180.949 16.9524V6.23093L187.28 13.8867V16.8832C187.28 17.2506 187.428 17.6032 187.693 17.863C187.957 18.1229 188.314 18.2688 188.686 18.2688H192.204C192.576 18.2688 192.935 18.1229 193.198 17.863C193.462 17.6032 193.61 17.2506 193.61 16.8832V2.33388C193.592 1.97698 193.433 1.64139 193.166 1.39856C192.9 1.15588 192.549 1.0253 192.186 1.03476Z" fill="#961842"/>
<path d="M165.16 15.1523C165.16 15.2442 165.122 15.3323 165.056 15.3973C164.99 15.4623 164.9 15.4987 164.807 15.4987H159.884C159.791 15.4987 159.701 15.4623 159.635 15.3973C159.569 15.3323 159.533 15.2442 159.533 15.1523V4.06721C159.533 3.97521 159.569 3.88711 159.635 3.82228C159.701 3.75729 159.791 3.72067 159.884 3.72067H164.807C164.9 3.72067 164.99 3.75729 165.056 3.82228C165.122 3.88711 165.16 3.97521 165.16 4.06721V15.1523ZM171.489 16.8844V2.35236C171.489 1.98496 171.341 1.63242 171.077 1.37262C170.813 1.11268 170.456 0.966797 170.082 0.966797H154.609C154.235 0.966797 153.878 1.11268 153.614 1.37262C153.349 1.63242 153.202 1.98496 153.202 2.35236V16.8844C153.202 17.2519 153.349 17.6044 153.614 17.8642C153.878 18.124 154.235 18.27 154.609 18.27H170.082C170.456 18.27 170.813 18.124 171.077 17.8642C171.341 17.6044 171.489 17.2519 171.489 16.8844Z" fill="#961842"/>
<path d="M148.666 1.03624H145.15C144.952 1.03489 144.756 1.07421 144.574 1.15181C144.392 1.2294 144.229 1.34331 144.095 1.48649L138.116 8.72649L132.261 1.57309C132.121 1.39914 131.942 1.25987 131.736 1.16666C131.532 1.07346 131.308 1.02874 131.083 1.03624H127.566C127.382 1.03384 127.2 1.06761 127.029 1.1353C126.859 1.20299 126.704 1.30354 126.572 1.43081C126.442 1.55808 126.338 1.70966 126.267 1.87686C126.196 2.04405 126.16 2.2234 126.16 2.40455V16.9539C126.16 17.3213 126.308 17.6737 126.572 17.9336C126.835 18.1934 127.193 18.3395 127.566 18.3395H131.083C131.456 18.3395 131.814 18.1934 132.077 17.9336C132.341 17.6737 132.489 17.3213 132.489 16.9539V6.23242L136.71 11.4286V16.9539C136.71 17.3213 136.858 17.6737 137.121 17.9336C137.385 18.1934 137.743 18.3395 138.116 18.3395C138.49 18.3395 138.847 18.1934 139.111 17.9336C139.374 17.6737 139.523 17.3213 139.523 16.9539V11.4286L143.743 6.23242V16.8846C143.743 17.252 143.891 17.6045 144.155 17.8643C144.418 18.1241 144.777 18.2701 145.15 18.2701H148.666C149.039 18.2701 149.397 18.1241 149.661 17.8643C149.925 17.6045 150.073 17.252 150.073 16.8846V2.33521C150.073 2.15406 150.037 1.97471 149.965 1.80752C149.895 1.64033 149.791 1.48874 149.66 1.36147C149.529 1.2342 149.374 1.1338 149.203 1.06596C149.033 0.99827 148.85 0.964652 148.666 0.966903" fill="#961842"/>
<path d="M116.698 15.1523C116.698 15.2442 116.661 15.3323 116.595 15.3973C116.529 15.4623 116.44 15.4987 116.347 15.4987H111.423C111.33 15.4987 111.241 15.4623 111.175 15.3973C111.109 15.3323 111.072 15.2442 111.072 15.1523V4.06721C111.072 3.97521 111.109 3.88711 111.175 3.82228C111.241 3.75729 111.33 3.72067 111.423 3.72067H116.347C116.44 3.72067 116.529 3.75729 116.595 3.82228C116.661 3.88711 116.698 3.97521 116.698 4.06721V15.1523ZM122.272 3.18382L120.778 1.69425C120.287 1.27132 119.67 1.01617 119.019 0.966797H104.742V18.3566H118.967C119.617 18.3074 120.234 18.0521 120.725 17.6292L122.22 16.1396C122.667 15.6655 122.934 15.0536 122.975 14.4075V4.95045C122.934 4.30449 122.667 3.69261 122.22 3.21849" fill="#961842"/>
<path d="M88.9348 4.06721C88.9324 4.02249 88.9393 3.97776 88.955 3.93589C88.9708 3.89386 88.995 3.85559 89.0262 3.82318C89.0576 3.79076 89.0951 3.76495 89.1368 3.74739C89.1785 3.72968 89.2235 3.72067 89.2689 3.72067H94.8956C94.9888 3.72067 95.0783 3.75729 95.1442 3.82228C95.2102 3.88711 95.2473 3.97521 95.2473 4.06721V10.06C95.2473 10.1519 95.2102 10.24 95.1442 10.305C95.0783 10.3699 94.9888 10.4066 94.8956 10.4066H89.2689C89.2235 10.4066 89.1785 10.3976 89.1368 10.3799C89.0951 10.3623 89.0576 10.3365 89.0262 10.3041C88.995 10.2716 88.9708 10.2332 88.955 10.1913C88.9393 10.1493 88.9324 10.1047 88.9348 10.06V4.06721ZM100.171 15.4987H89.2689C89.2235 15.4989 89.1785 15.4897 89.1368 15.4722C89.0951 15.4546 89.0576 15.4288 89.0262 15.3964C88.995 15.3638 88.9708 15.3255 88.955 15.2835C88.9393 15.2416 88.9324 15.1969 88.9348 15.1523V13.5242C88.9324 13.4795 88.9393 13.4349 88.955 13.3929C88.9708 13.351 88.995 13.3126 89.0262 13.2802C89.0576 13.2478 89.0951 13.222 89.1368 13.2044C89.1785 13.1869 89.2235 13.1777 89.2689 13.1778H100.171C100.544 13.1778 100.901 13.0318 101.165 12.7719C101.429 12.5121 101.577 12.1595 101.577 11.7921V2.35236C101.577 1.98496 101.429 1.63242 101.165 1.37262C100.901 1.11268 100.544 0.966797 100.171 0.966797H84.0115C83.6384 0.966797 83.2806 1.11268 83.0167 1.37262C82.753 1.63242 82.6047 1.98496 82.6047 2.35236V16.8844C82.6047 17.2519 82.753 17.6044 83.0167 17.8642C83.2806 18.124 83.6384 18.27 84.0115 18.27H100.171C100.544 18.27 100.901 18.124 101.165 17.8642C101.429 17.6044 101.577 17.2519 101.577 16.8844C101.577 16.5169 101.429 16.1645 101.165 15.9046C100.901 15.6448 100.544 15.4987 100.171 15.4987Z" fill="#961842"/>
<path d="M73.3209 10.0595C73.3209 10.1513 73.2838 10.2394 73.2179 10.3044C73.1519 10.3694 73.0625 10.4057 72.9693 10.4057H66.6392C66.546 10.4057 66.4564 10.3694 66.3905 10.3044C66.3246 10.2394 66.2876 10.1513 66.2876 10.0595V4.06651C66.2876 3.97466 66.3246 3.88641 66.3905 3.82157C66.4564 3.75659 66.546 3.72012 66.6392 3.72012H72.9693C73.0625 3.72012 73.1519 3.75659 73.2179 3.82157C73.2838 3.88641 73.3209 3.97466 73.3209 4.06651V10.0595ZM79.4926 16.624L76.6091 13.1597H78.2442C78.6173 13.1597 78.9751 13.0139 79.239 12.7539C79.5028 12.4941 79.651 12.1416 79.651 11.7742V2.3344C79.6328 1.98066 79.4761 1.64762 79.2136 1.40524C78.9513 1.163 78.6038 1.03048 78.2442 1.03528H61.3642C61.1802 1.03303 60.9977 1.0668 60.8272 1.13449C60.6566 1.20218 60.5014 1.30273 60.3705 1.43C60.2397 1.55727 60.1358 1.70885 60.065 1.87605C59.994 2.04309 59.9575 2.22259 59.9575 2.40374V16.9529C59.9575 17.3205 60.1057 17.6729 60.3695 17.9328C60.6333 18.1926 60.9911 18.3386 61.3642 18.3386H64.8808C65.2539 18.3386 65.6117 18.1926 65.8756 17.9328C66.1393 17.6729 66.2876 17.3205 66.2876 16.9529V13.1597H68.7492L72.9164 18.3559H79.141C79.9675 18.2174 80.1257 17.5419 79.4926 16.7625" fill="#961842"/>
<path d="M215.009 26.9307H202.84V28.3162H215.009V26.9307Z" fill="#961842"/>
<path d="M110.158 25.4752H108.312C108.312 25.0075 108.154 24.765 107.38 24.765H104.268C103.74 24.765 103.389 24.9728 103.389 25.5443C103.389 26.116 103.758 26.3239 104.268 26.3239H107.609C109.367 26.3239 110.123 26.4971 110.123 28.5928C110.123 30.1863 109.42 30.8792 107.609 30.8792H103.934C101.982 30.8792 101.402 30.2037 101.402 28.7488H103.16C103.191 28.9601 103.303 29.1517 103.473 29.284C103.643 29.4162 103.859 29.4788 104.075 29.4588H107.134C107.943 29.4588 108.242 29.199 108.242 28.5928C108.242 27.9866 108.136 27.7441 107.081 27.7441H104.444C102.351 27.7441 101.595 27.3805 101.595 25.4752C101.595 23.9509 102.386 23.3447 104.426 23.3447H107.538C109.385 23.3447 110.158 24.0201 110.158 25.4752Z" fill="#961842"/>
<path d="M114.994 23.3447L117.526 29.3896H117.631L120.181 23.3447H123.61V30.8792H121.746V24.8343H121.517L118.88 30.8792H116.277L113.658 24.8343H113.411V30.8792H111.653V23.3447H114.994Z" fill="#961842"/>
<path d="M124.313 30.8792L128.374 23.3447H131.082L135.109 30.8792H132.964L131.979 28.9739H127.443L126.458 30.8792H124.313ZM131.24 27.5537L129.781 24.7477L128.269 27.5537H131.24Z" fill="#961842"/>
<path d="M142.564 30.8792V29.7188C142.564 28.9739 142.177 28.6448 141.104 28.6448H137.588V30.8792H135.83V23.3447H141.544C143.127 23.3447 144.269 23.8471 144.269 25.9947C144.299 26.394 144.208 26.7929 144.008 27.1412C143.807 27.4896 143.507 27.7717 143.144 27.952C143.918 28.2118 144.393 28.5062 144.393 29.3203V30.8792H142.564ZM137.553 27.1379H141.386C142.177 27.1379 142.441 26.8088 142.441 25.9947C142.441 25.1807 142.195 24.8343 141.386 24.8343H137.553V27.1379Z" fill="#961842"/>
<path d="M153.501 23.3447V24.8343H150.318V30.8792H148.56V24.8343H145.272V23.3447H153.501Z" fill="#961842"/>
<path d="M159.956 26.2373H164.685V23.3447H166.444V30.8792H164.685V27.7268H159.956V30.8792H158.108V23.3447H159.956V26.2373Z" fill="#961842"/>
<path d="M173.881 30.8779H170.504C168.465 30.8779 167.692 30.133 167.692 28.3145V25.9415C167.692 23.863 168.43 23.2568 170.504 23.2568H173.881C175.78 23.2568 176.641 23.8111 176.641 25.9415V28.3145C176.641 30.185 176.026 30.8779 173.881 30.8779ZM170.944 29.3883H173.371C174.549 29.3883 174.812 29.1285 174.812 28.1066V26.0975C174.812 25.0062 174.444 24.7464 173.353 24.7464H170.98C169.837 24.7464 169.52 25.0409 169.52 26.1147V28.1239C169.52 29.1111 169.837 29.3883 170.944 29.3883Z" fill="#961842"/>
<path d="M181.371 23.3447L183.905 29.3896H184.028L186.56 23.3447H189.971V30.8792H188.212V24.8343H187.966L185.345 30.8792H182.656L180.035 24.8343H179.878V30.8792H178.119V23.3447H181.371Z" fill="#961842"/>
<path d="M191.358 23.3447H199.218V24.765H193.186V26.4105H198.99V27.7268H193.186V29.4588H199.218V30.8792H191.358V23.3447Z" fill="#961842"/>
</svg>
