<svg width="10" height="18" viewBox="0 0 10 18" fill="none" xmlns="http://www.w3.org/2000/svg">
<path d="M1.70711 0.292892C1.31658 -0.0976321 0.683419 -0.0976322 0.292894 0.292892C-0.09763 0.683416 -0.0976301 1.31658 0.292894 1.7071L1.70711 0.292892ZM9 9L9.70711 9.70711C10.0976 9.31658 10.0976 8.68342 9.70711 8.29289L9 9ZM0.292893 16.2929C-0.0976314 16.6834 -0.0976315 17.3166 0.292892 17.7071C0.683417 18.0976 1.31658 18.0976 1.70711 17.7071L0.292893 16.2929ZM0.292894 1.7071L8.29289 9.70711L9.70711 8.29289L1.70711 0.292892L0.292894 1.7071ZM8.29289 8.29289L0.292893 16.2929L1.70711 17.7071L9.70711 9.70711L8.29289 8.29289Z" fill="white"/>
</svg>
