<svg width="48" height="48" viewBox="0 0 48 48" fill="none" xmlns="http://www.w3.org/2000/svg">
<path d="M37.6025 31.9893C35.0455 31.9893 26.007 34.181 21.2021 33.5441C6.02869 31.521 10.4402 32.0361 9.65344 31.9893C6.69369 31.5959 4.82043 35.9887 4.82043 39.4823C4.82043 42.9759 6.6375 47.3687 9.65344 46.9753L21.2021 45.4299C24.3304 45.0178 25.2296 45.3456 37.4807 46.9753C40.506 47.3687 42.2856 42.9197 42.2856 39.4823C42.2856 35.2768 40.225 31.9893 37.6025 31.9893ZM20.7431 43.6035L12.9597 44.6338C13.7903 43.0436 14.224 41.2763 14.224 39.4823C14.224 37.6883 13.7903 35.921 12.9597 34.3308L20.7431 35.3611C21.385 36.6401 21.7192 38.0513 21.7192 39.4823C21.7192 40.9133 21.385 42.3245 20.7431 43.6035ZM10.4402 44.7368V39.4823H12.3135C12.3135 42.0206 11.4424 43.9594 10.4402 44.7368ZM9.84077 33.9187C10.7774 34.181 11.7609 35.5672 12.1449 37.609H9.50358C9.25517 37.609 9.01694 37.7077 8.84129 37.8834C8.66563 38.059 8.56695 38.2973 8.56695 38.5457V44.7368C5.45734 42.339 6.497 33.4691 9.84077 33.9187ZM22.8693 43.4161C23.7776 40.8722 23.7776 38.0924 22.8693 35.5485C23.4275 35.5864 23.9876 35.5864 24.5459 35.5485C25.1243 36.7825 25.4241 38.1288 25.4241 39.4917C25.4241 40.8546 25.1243 42.2008 24.5459 43.4349C23.9839 43.3974 23.4219 43.3974 22.8693 43.4161ZM37.6025 45.1021L26.5409 43.6222C27.5528 40.955 27.5528 38.0096 26.5409 35.3424L37.6025 33.8625C38.9231 33.8625 40.4124 36.1947 40.4124 39.4823C40.4124 42.7699 38.9606 45.1021 37.6025 45.1021Z" fill="#961842"/>
<path d="M44.1589 20.9183V13.3503L44.5429 13.1724C44.7064 13.0979 44.8451 12.9779 44.9423 12.8268C45.0395 12.6756 45.0912 12.4997 45.0912 12.32C45.0912 12.1403 45.0395 11.9644 44.9423 11.8133C44.8451 11.6622 44.7064 11.5422 44.5429 11.4677C22.1762 1.29591 23.7216 1.84852 23.169 2.10141C0.83976 12.2451 2.01055 11.4583 2.01055 12.32C2.01055 13.1817 1.96372 12.9007 11.3768 17.1811V24.4962C11.3768 30.7154 35.7292 30.7342 35.7292 24.4962V17.1811L42.2856 14.1933V20.9089C41.7376 21.1027 41.2631 21.4617 40.9276 21.9364C40.5921 22.4112 40.4121 22.9783 40.4124 23.5596V27.3061C40.4124 27.5545 40.511 27.7928 40.6867 27.9684C40.8624 28.1441 41.1006 28.2427 41.349 28.2427H45.0955C45.3439 28.2427 45.5822 28.1441 45.7578 27.9684C45.9335 27.7928 46.0321 27.5545 46.0321 27.3061V23.5596C46.0305 22.9799 45.8496 22.4148 45.5143 21.942C45.1789 21.4691 44.7055 21.1115 44.1589 20.9183ZM23.553 3.98403L39.8317 11.3834H23.553C23.3046 11.3834 23.0664 11.4821 22.8907 11.6577C22.7151 11.8334 22.6164 12.0716 22.6164 12.32C22.6164 12.5684 22.7151 12.8067 22.8907 12.9823C23.0664 13.158 23.3046 13.2567 23.553 13.2567H39.8317L23.553 20.656L5.21382 12.32L23.553 3.98403ZM33.856 24.4962C33.856 25.4329 30.2218 27.3061 23.553 27.3061C16.8842 27.3061 13.2501 25.4329 13.2501 24.4962V18.0335C23.909 22.8759 23.3844 22.7916 23.937 22.5387L33.856 18.0335V24.4962ZM44.1589 26.3695H42.2856V23.5596C42.2856 23.3112 42.3843 23.0729 42.56 22.8973C42.7356 22.7216 42.9738 22.623 43.2223 22.623C43.4707 22.623 43.7089 22.7216 43.8846 22.8973C44.0602 23.0729 44.1589 23.3112 44.1589 23.5596V26.3695Z" fill="#961842"/>
</svg>
