<svg width="48" height="48" viewBox="0 0 48 48" fill="none" xmlns="http://www.w3.org/2000/svg">
<rect width="48" height="48" rx="24" fill="#F5F5F5"/>
<path fill-rule="evenodd" clip-rule="evenodd" d="M15.6705 22.8879C20.8531 20.6299 24.309 19.1413 26.0381 18.4221C30.9752 16.3687 32.0011 16.0119 32.6697 16.0001C32.8168 15.9976 33.1456 16.034 33.3586 16.2069C33.6745 16.4632 33.6763 17.0198 33.6413 17.3881C33.3737 20.1992 32.2161 27.021 31.6271 30.1694C31.3779 31.5017 30.8872 31.9484 30.4122 31.9921C29.3798 32.0871 28.5959 31.3098 27.5959 30.6544C26.0313 29.6287 25.1473 28.9902 23.6285 27.9894C21.8733 26.8327 23.0111 26.197 24.0114 25.158C24.2732 24.8862 28.8219 20.7487 28.91 20.3734C28.921 20.3264 28.9312 20.1514 28.8273 20.0591C28.7233 19.9667 28.5699 19.9982 28.4592 20.0234C28.3022 20.059 25.8027 21.7112 20.9604 24.9798C20.2509 25.467 19.6083 25.7044 19.0325 25.6919C18.3977 25.6783 17.1768 25.333 16.2691 25.038C15.1557 24.6761 14.2709 24.4847 14.3479 23.8701C14.3881 23.5499 14.8289 23.2226 15.6705 22.8879Z" fill="#961842"/>
</svg>
