<svg width="48" height="48" viewBox="0 0 48 48" fill="none" xmlns="http://www.w3.org/2000/svg">
<rect width="48" height="48" rx="24" fill="#F5F5F5"/>
<path d="M28.5817 25.985C28.333 25.8608 27.1097 25.2625 26.882 25.1792C26.6534 25.0967 26.4876 25.0558 26.321 25.3042C26.156 25.5517 25.6788 26.1092 25.5339 26.2742C25.3891 26.44 25.2434 26.46 24.9947 26.3367C24.746 26.2117 23.9439 25.9508 22.9935 25.1075C22.2542 24.4509 21.7543 23.64 21.6095 23.3917C21.4646 23.1442 21.5944 23.01 21.7183 22.8867C21.8305 22.7759 21.9678 22.5975 22.0918 22.4534C22.2165 22.3084 22.2575 22.205 22.3413 22.0392C22.4242 21.8742 22.3831 21.73 22.3203 21.6059C22.2575 21.4817 21.7602 20.2625 21.5534 19.7667C21.3507 19.2842 21.1456 19.35 20.9932 19.3417C20.8483 19.335 20.6826 19.3334 20.5159 19.3334C20.3501 19.3334 20.0805 19.395 19.8528 19.6434C19.625 19.8909 18.982 20.49 18.982 21.7092C18.982 22.9275 19.8737 24.105 19.9976 24.2709C20.1224 24.4359 21.7526 26.9375 24.2487 28.01C24.8423 28.265 25.3053 28.4175 25.6671 28.5308C26.2632 28.72 26.8058 28.6933 27.2337 28.6292C27.7118 28.5583 28.7057 28.03 28.9133 27.4517C29.121 26.8733 29.121 26.3775 29.0582 26.2742C28.9962 26.1708 28.8304 26.1092 28.5809 25.985H28.5817ZM24.0418 32.1542H24.0385C22.5563 32.1543 21.1013 31.7577 19.826 31.0058L19.5237 30.8275L16.3914 31.6458L17.227 28.6058L17.0302 28.2942C16.2017 26.9811 15.7633 25.4614 15.7659 23.9109C15.7667 19.3692 19.4802 15.6742 24.0452 15.6742C26.2557 15.6742 28.3339 16.5325 29.8963 18.0892C30.6672 18.853 31.2782 19.7615 31.694 20.7619C32.1098 21.7623 32.3221 22.8349 32.3186 23.9175C32.3161 28.4592 28.6035 32.1542 24.0418 32.1542ZM31.0861 16.9067C30.1636 15.9825 29.0659 15.2496 27.8567 14.7507C26.6475 14.2518 25.3508 13.9966 24.0418 14C18.5533 14 14.0862 18.4459 14.0837 23.91C14.0837 25.6567 14.5417 27.3617 15.4134 28.8642L14 34L19.2792 32.6217C20.7392 33.4133 22.3751 33.8281 24.0377 33.8283H24.0418C29.5296 33.8283 33.9974 29.3825 34 23.9175C34.004 22.6152 33.7486 21.3251 33.2484 20.1217C32.7483 18.9183 32.0133 17.8256 31.0861 16.9067Z" fill="#961842"/>
</svg>
