<svg width="19" height="12" viewBox="0 0 19 12" fill="none" xmlns="http://www.w3.org/2000/svg">
<path d="M10.3278 11.5C4.17789 11.5 0.670084 7.37087 0.523926 0.5H3.6045C3.70569 5.54304 5.97677 7.67918 7.77564 8.11962V0.5H10.6763V4.84935C12.4527 4.66216 14.3191 2.68018 14.9487 0.5H17.8493C17.6121 1.6307 17.1392 2.7013 16.4601 3.64482C15.7811 4.58835 14.9106 5.3845 13.9031 5.98348C15.0277 6.53079 16.0211 7.30546 16.8176 8.25637C17.6141 9.20728 18.1957 10.3128 18.5239 11.5H15.3309C15.0363 10.4688 14.4374 9.54578 13.6094 8.84651C12.7814 8.14723 11.7611 7.70286 10.6763 7.56907V11.5H10.3278Z" fill="#961842"/>
</svg>
