<svg width="48" height="48" viewBox="0 0 48 48" fill="none" xmlns="http://www.w3.org/2000/svg">
<rect width="48" height="48" rx="24" fill="#F5F5F5"/>
<path d="M24.8932 30C18.06 30 14.1624 25.4955 14 18H17.4229C17.5353 23.5015 20.0587 25.8318 22.0575 26.3123V18H25.2805V22.7447C27.2542 22.5405 29.3279 20.3784 30.0275 18H33.2505C32.9869 19.2335 32.4614 20.4014 31.7069 21.4307C30.9524 22.46 29.9852 23.3285 28.8657 23.982C30.1153 24.579 31.2191 25.4241 32.1041 26.4615C32.9891 27.4988 33.6353 28.7049 34 30H30.4522C30.1248 28.8751 29.4594 27.8681 28.5394 27.1053C27.6194 26.3424 26.4858 25.8577 25.2805 25.7117V30H24.8932Z" fill="#961842"/>
</svg>
