<svg width="40" height="40" viewBox="0 0 40 40" fill="none" xmlns="http://www.w3.org/2000/svg">
<path d="M19.8039 25.5C13.654 25.5 10.1462 21.3709 10 14.5H13.0806C13.1818 19.543 15.4528 21.6792 17.2517 22.1196V14.5H20.1524V18.8493C21.9288 18.6622 23.7951 16.6802 24.4247 14.5H27.3254C27.0882 15.6307 26.6152 16.7013 25.9362 17.6448C25.2572 18.5883 24.3867 19.3845 23.3791 19.9835C24.5038 20.5308 25.4972 21.3055 26.2937 22.2564C27.0902 23.2073 27.6718 24.3128 28 25.5H24.807C24.5124 24.4688 23.9135 23.5458 23.0855 22.8465C22.2575 22.1472 21.2372 21.7029 20.1524 21.5691V25.5H19.8039Z" fill="white"/>
<rect x="0.5" y="0.5" width="39" height="39" rx="19.5" stroke="white" stroke-opacity="0.5"/>
</svg>
