<svg width="18" height="34" viewBox="0 0 18 34" fill="none" xmlns="http://www.w3.org/2000/svg">
<path d="M1.70711 0.292891C1.31658 -0.0976347 0.683419 -0.0976348 0.292895 0.292891C-0.0976286 0.683413 -0.0976287 1.31658 0.292895 1.7071L1.70711 0.292891ZM17 17L17.7071 17.7071C18.0976 17.3166 18.0976 16.6834 17.7071 16.2929L17 17ZM0.292893 32.2929C-0.0976314 32.6834 -0.0976315 33.3166 0.292892 33.7071C0.683416 34.0976 1.31658 34.0976 1.70711 33.7071L0.292893 32.2929ZM0.292895 1.7071L16.2929 17.7071L17.7071 16.2929L1.70711 0.292891L0.292895 1.7071ZM16.2929 16.2929L0.292893 32.2929L1.70711 33.7071L17.7071 17.7071L16.2929 16.2929Z" fill="white"/>
</svg>
