<svg width="18" height="34" viewBox="0 0 18 34" fill="none" xmlns="http://www.w3.org/2000/svg">
<path d="M16.2929 33.7071C16.6834 34.0976 17.3166 34.0976 17.7071 33.7071C18.0976 33.3166 18.0976 32.6834 17.7071 32.2929L16.2929 33.7071ZM1 17L0.292893 16.2929C-0.0976311 16.6834 -0.0976311 17.3166 0.292893 17.7071L1 17ZM17.7071 1.70711C18.0976 1.31658 18.0976 0.683417 17.7071 0.292893C17.3166 -0.0976311 16.6834 -0.0976311 16.2929 0.292893L17.7071 1.70711ZM17.7071 32.2929L1.70711 16.2929L0.292893 17.7071L16.2929 33.7071L17.7071 32.2929ZM1.70711 17.7071L17.7071 1.70711L16.2929 0.292893L0.292893 16.2929L1.70711 17.7071Z" fill="white"/>
</svg>
