<svg width="24" height="16" viewBox="0 0 24 16" fill="none" xmlns="http://www.w3.org/2000/svg">
<path d="M11.1045 12.6688L11.5171 10.1925C11.6064 9.6524 11.4543 9.10058 11.1013 8.68378C10.7473 8.26593 10.2284 8.02563 9.6819 8.02563H2.62193C2.07542 8.02563 1.55656 8.26593 1.2025 8.68378C0.8495 9.10058 0.697455 9.6524 0.786768 10.1925L1.19931 12.6688C1.52041 14.5912 3.18333 16 5.13226 16H7.17157C9.1205 16 10.7834 14.5912 11.1045 12.6688ZM9.94346 9.92991L9.53092 12.4062C9.33847 13.5598 8.34114 14.4051 7.17157 14.4051H5.13226C3.96269 14.4051 2.96536 13.5598 2.77291 12.4062L2.36037 9.92991C2.34762 9.85336 2.36888 9.77468 2.41992 9.71407C2.46989 9.65453 2.54432 9.62051 2.62193 9.62051H9.6819C9.75951 9.62051 9.83394 9.65453 9.88391 9.71407C9.93495 9.77468 9.95622 9.85336 9.94346 9.92991Z" fill="white"/>
<path d="M22.8003 12.6688L23.2129 10.1925C23.3022 9.6524 23.1501 9.10058 22.7971 8.68378C22.4431 8.26593 21.9242 8.02563 21.3777 8.02563H14.3177C13.7712 8.02563 13.2524 8.26593 12.8983 8.68378C12.5453 9.10058 12.3933 9.6524 12.4826 10.1925L12.8951 12.6688C13.2162 14.5912 14.8791 16 16.8281 16H18.8674C20.8163 16 22.4792 14.5912 22.8003 12.6688ZM21.6393 9.92991L21.2267 12.4062C21.0343 13.5598 20.0369 14.4051 18.8674 14.4051H16.8281C15.6585 14.4051 14.6612 13.5598 14.4687 12.4062L14.0562 9.92991C14.0434 9.85336 14.0647 9.77468 14.1157 9.71407C14.1657 9.65453 14.2401 9.62051 14.3177 9.62051H21.3777C21.4553 9.62051 21.5297 9.65453 21.5797 9.71407C21.6308 9.77468 21.652 9.85336 21.6393 9.92991Z" fill="white"/>
<path d="M13.2545 9.0889H10.7452C10.305 9.0889 9.94775 9.44615 9.94775 9.88633C9.94775 10.3265 10.305 10.6838 10.7452 10.6838H13.2545C13.6946 10.6838 14.0519 10.3265 14.0519 9.88633C14.0519 9.44615 13.6946 9.0889 13.2545 9.0889Z" fill="white"/>
<path d="M22.3432 8.62957L20.5379 1.41012C20.4007 0.862544 20.0232 0.406411 19.5097 0.17037C18.9972 -0.0656707 18.405 -0.0561019 17.901 0.196951L16.96 0.666907C16.5656 0.863608 16.4061 1.34313 16.6028 1.73653C16.7995 2.131 17.279 2.29049 17.6724 2.09379L18.6134 1.62277C18.6857 1.58662 18.7707 1.58555 18.8441 1.61958C18.9175 1.6536 18.9706 1.71846 18.9908 1.79608L20.7952 9.01659C20.9025 9.44402 21.3353 9.70345 21.7627 9.59712C22.1891 9.48973 22.4496 9.05699 22.3432 8.62957Z" fill="white"/>
<path d="M3.20467 9.01659L5.009 1.79608C5.0292 1.71846 5.08236 1.6536 5.15573 1.61958C5.22909 1.58555 5.31415 1.58662 5.38645 1.62277L6.32742 2.09379C6.72083 2.29049 7.20035 2.131 7.39705 1.73653C7.59375 1.34313 7.43427 0.863608 7.0398 0.666907L6.09883 0.196951C5.59485 -0.0561019 5.00262 -0.0656707 4.49013 0.17037C3.97658 0.406411 3.59913 0.862544 3.46197 1.41012L1.65658 8.62957C1.55025 9.05699 1.81075 9.48973 2.23711 9.59712C2.66454 9.70345 3.09728 9.44402 3.20467 9.01659Z" fill="white"/>
</svg>
