<svg width="48" height="48" viewBox="0 0 48 48" fill="none" xmlns="http://www.w3.org/2000/svg">
<g clip-path="url(#clip0_239_24)">
<path d="M38.4 4.79989H33.3776C33.094 4.30648 32.569 4.0016 32 3.99989L29.3712 4.02549C28.6759 1.64446 26.4956 0.00568923 24.0152 -0.000228067C21.5347 -0.00614535 19.3466 1.6222 18.64 3.99989H16C15.4309 4.0016 14.9059 4.30648 14.6224 4.79989H9.59998C7.39193 4.80253 5.60262 6.59184 5.59998 8.79989V43.9999C5.60262 46.2079 7.39193 47.9972 9.59998 47.9999H38.4C40.608 47.9972 42.3973 46.2079 42.4 43.9999V8.79989C42.3973 6.59184 40.608 4.80253 38.4 4.79989ZM16 11.1999H32C32.8836 11.1999 33.6 10.4835 33.6 9.59989H37.6V43.1999H10.4V9.59989H14.4C14.4 10.4835 15.1163 11.1999 16 11.1999ZM18.64 5.59989C19.3418 5.60187 19.9618 5.14342 20.1656 4.47189C20.6649 2.76994 22.2263 1.60078 24 1.60078C25.7737 1.60078 27.3351 2.76994 27.8344 4.47189C28.0382 5.14342 28.6582 5.60187 29.36 5.59989H32V9.59989H16V5.59989H18.64ZM40.8 43.9999C40.8 45.3254 39.7255 46.3999 38.4 46.3999H9.59998C8.27449 46.3999 7.19998 45.3254 7.19998 43.9999V8.79989C7.19998 7.4744 8.27449 6.39989 9.59998 6.39989H14.4V7.99989H10.4C9.51632 7.99989 8.79998 8.71623 8.79998 9.59989V43.1999C8.79998 44.0835 9.51632 44.7999 10.4 44.7999H37.6C38.4836 44.7999 39.2 44.0835 39.2 43.1999V9.59989C39.2 8.71623 38.4836 7.99989 37.6 7.99989H33.6V6.39989H38.4C39.7255 6.39989 40.8 7.4744 40.8 8.79989V43.9999Z" fill="#961842"/>
<path d="M24 7.99995C25.3255 7.99995 26.4 6.92543 26.4 5.59995C26.4 4.27447 25.3255 3.19995 24 3.19995C22.6745 3.19995 21.6 4.27447 21.6 5.59995C21.6 6.92543 22.6745 7.99995 24 7.99995ZM24 4.79995C24.4418 4.79995 24.8 5.15812 24.8 5.59995C24.8 6.04178 24.4418 6.39995 24 6.39995C23.5581 6.39995 23.2 6.04178 23.2 5.59995C23.2 5.15812 23.5581 4.79995 24 4.79995Z" fill="#961842"/>
<path d="M15.2 31.9199V33.9999C15.2 37.7554 18.2444 40.7999 22 40.7999C25.7555 40.7999 28.8 37.7554 28.8 33.9999V28.7519C32.9445 28.2645 36.0519 24.7262 36 20.5535V15.9999C36 14.6744 34.9255 13.5999 33.6 13.5999H30.4C29.9582 13.5999 29.6 13.958 29.6 14.3999C29.6 14.8417 29.9582 15.1999 30.4 15.1999H33.6C34.0418 15.1999 34.4 15.558 34.4 15.9999V20.5535C34.4605 23.9896 31.8517 26.8867 28.428 27.1855C26.6602 27.3039 24.9225 26.6843 23.6285 25.4742C22.3345 24.264 21.6 22.5716 21.6 20.7999V15.9999C21.6 15.558 21.9582 15.1999 22.4 15.1999H25.6C26.0418 15.1999 26.4 14.8417 26.4 14.3999C26.4 13.958 26.0418 13.5999 25.6 13.5999H22.4C21.0745 13.5999 20 14.6744 20 15.9999V20.7999C20.0032 23.0119 20.9186 25.1247 22.5304 26.6399C23.8084 27.8453 25.4513 28.5912 27.2 28.7599V33.9999C27.2 36.8717 24.8719 39.1999 22 39.1999C19.1281 39.1999 16.8 36.8717 16.8 33.9999V31.9199C18.812 31.5092 20.1861 29.6417 19.9797 27.5986C19.7733 25.5556 18.0534 24.0007 16 24.0007C13.9465 24.0007 12.2266 25.5556 12.0202 27.5986C11.8138 29.6417 13.188 31.5092 15.2 31.9199ZM16 25.5999C17.3255 25.5999 18.4 26.6744 18.4 27.9999C18.4 29.3253 17.3255 30.3999 16 30.3999C14.6745 30.3999 13.6 29.3253 13.6 27.9999C13.6 26.6744 14.6745 25.5999 16 25.5999Z" fill="#961842"/>
</g>
<defs>
<clipPath id="clip0_239_24">
<rect width="48" height="48" fill="white"/>
</clipPath>
</defs>
</svg>
