<svg width="48" height="48" viewBox="0 0 48 48" fill="none" xmlns="http://www.w3.org/2000/svg">
<path d="M38.8132 13.9453C39.3309 13.9453 39.7507 13.5256 39.7507 13.0078V2.8125C39.7507 1.26169 38.489 0 36.9382 0H2.81323C1.26242 0 0.000732422 1.26169 0.000732422 2.8125V45.1875C0.000732422 46.7383 1.26242 48 2.81323 48H36.9382C38.489 48 39.7507 46.7383 39.7507 45.1875V38.2808C39.7507 37.763 39.3309 37.3433 38.8132 37.3433C38.2955 37.3433 37.8757 37.763 37.8757 38.2808V45.1875C37.8757 45.7044 37.4552 46.125 36.9382 46.125H2.81323C2.29629 46.125 1.87573 45.7044 1.87573 45.1875V2.8125C1.87573 2.29556 2.29629 1.875 2.81323 1.875H36.9382C37.4552 1.875 37.8757 2.29556 37.8757 2.8125V13.0078C37.8757 13.5256 38.2955 13.9453 38.8132 13.9453Z" fill="#961842"/>
<path d="M19.8757 5.0625C15.1199 5.0625 11.2507 8.93166 11.2507 13.6875C11.2507 16.1547 12.2923 18.383 13.9584 19.9565C13.9896 19.9898 14.0228 20.0214 14.0591 20.0502C15.5939 21.4545 17.6364 22.3124 19.8756 22.3124C22.1149 22.3124 24.1574 21.4544 25.6922 20.0502C25.7285 20.0214 25.7616 19.9897 25.7929 19.9565C27.4592 18.383 28.5007 16.1547 28.5007 13.6875C28.5007 8.93166 24.6316 5.0625 19.8757 5.0625ZM19.8757 20.4375C18.3449 20.4375 16.9321 19.9245 15.7985 19.0624C16.6224 17.6013 18.16 16.6875 19.8757 16.6875C21.5915 16.6875 23.129 17.6013 23.953 19.0624C22.8193 19.9245 21.4066 20.4375 19.8757 20.4375ZM18.3757 13.3125V12.7031C18.3757 11.8761 19.0487 11.2031 19.8757 11.2031C20.7028 11.2031 21.3757 11.8761 21.3757 12.7031V13.3125C21.3757 14.1396 20.7028 14.8125 19.8757 14.8125C19.0487 14.8125 18.3757 14.1396 18.3757 13.3125ZM25.3076 17.689C24.6162 16.6636 23.658 15.8661 22.5455 15.3737C22.987 14.803 23.2507 14.0882 23.2507 13.3125V12.7031C23.2507 10.8421 21.7368 9.32812 19.8757 9.32812C18.0147 9.32812 16.5007 10.8421 16.5007 12.7031V13.3125C16.5007 14.0882 16.7645 14.803 17.206 15.3737C16.0935 15.8661 15.1353 16.6636 14.4439 17.689C13.6161 16.5684 13.1257 15.1844 13.1257 13.6875C13.1257 9.96553 16.1538 6.9375 19.8757 6.9375C23.5977 6.9375 26.6257 9.96553 26.6257 13.6875C26.6257 15.1844 26.1353 16.5684 25.3076 17.689Z" fill="#961842"/>
<path d="M24.9382 41.0625H19.8757C19.358 41.0625 18.9382 41.4822 18.9382 42C18.9382 42.5178 19.358 42.9375 19.8757 42.9375H24.9382C25.4559 42.9375 25.8757 42.5178 25.8757 42C25.8757 41.4822 25.4559 41.0625 24.9382 41.0625Z" fill="#961842"/>
<path d="M24.9382 35.8125H11.6257C11.108 35.8125 10.6882 36.2322 10.6882 36.75C10.6882 37.2678 11.108 37.6875 11.6257 37.6875H24.9382C25.4559 37.6875 25.8757 37.2678 25.8757 36.75C25.8757 36.2322 25.4559 35.8125 24.9382 35.8125Z" fill="#961842"/>
<path d="M24.9382 30.5625H11.6257C11.108 30.5625 10.6882 30.9822 10.6882 31.5C10.6882 32.0178 11.108 32.4375 11.6257 32.4375H24.9382C25.4559 32.4375 25.8757 32.0178 25.8757 31.5C25.8757 30.9822 25.4559 30.5625 24.9382 30.5625Z" fill="#961842"/>
<path d="M8.28451 25.5872C8.11022 25.4128 7.86835 25.3125 7.62085 25.3125C7.37419 25.3125 7.13232 25.4128 6.95804 25.5872C6.78366 25.7616 6.68335 26.0034 6.68335 26.25C6.68335 26.4966 6.78357 26.7384 6.95804 26.9128C7.13335 27.0872 7.37419 27.1875 7.62085 27.1875C7.86835 27.1875 8.10929 27.0872 8.28451 26.9128C8.45888 26.7384 8.55929 26.4966 8.55929 26.25C8.55929 26.0034 8.45897 25.7616 8.28451 25.5872Z" fill="#961842"/>
<path d="M8.28451 30.8372C8.10929 30.6628 7.86835 30.5625 7.62085 30.5625C7.37419 30.5625 7.13335 30.6628 6.95804 30.8372C6.78366 31.0116 6.68335 31.2534 6.68335 31.5C6.68335 31.7466 6.78357 31.9884 6.95804 32.1628C7.13335 32.3372 7.37419 32.4375 7.62085 32.4375C7.86835 32.4375 8.10929 32.3372 8.28451 32.1628C8.45888 31.9884 8.55929 31.7466 8.55929 31.5C8.55929 31.2534 8.45897 31.0116 8.28451 30.8372Z" fill="#961842"/>
<path d="M8.28451 36.0872C8.10929 35.9128 7.86835 35.8125 7.62085 35.8125C7.37419 35.8125 7.13335 35.9128 6.95804 36.0872C6.78366 36.2616 6.68335 36.5034 6.68335 36.75C6.68335 36.9966 6.78357 37.2384 6.95804 37.4128C7.13232 37.5872 7.37419 37.6875 7.62085 37.6875C7.86835 37.6875 8.11022 37.5872 8.28451 37.4128C8.45888 37.2384 8.55929 36.9966 8.55929 36.75C8.55929 36.5034 8.45897 36.2616 8.28451 36.0872Z" fill="#961842"/>
<path d="M24.9382 25.3125H11.6257C11.108 25.3125 10.6882 25.7322 10.6882 26.25C10.6882 26.7678 11.108 27.1875 11.6257 27.1875H24.9382C25.4559 27.1875 25.8757 26.7678 25.8757 26.25C25.8757 25.7322 25.4559 25.3125 24.9382 25.3125Z" fill="#961842"/>
<path d="M46.0316 12.2177C45.1208 11.6918 44.0598 11.5521 43.0437 11.8243C42.0278 12.0966 41.1786 12.7481 40.6529 13.6589L28.8552 34.0929C28.7906 34.205 28.7497 34.3292 28.7354 34.4577L27.905 41.8962C27.8637 42.2663 28.0454 42.6259 28.3679 42.8121C28.5135 42.8961 28.6752 42.9378 28.8366 42.9378C29.0327 42.9378 29.2281 42.8764 29.3926 42.7551L35.4192 38.3167C35.5234 38.24 35.6106 38.1426 35.6751 38.0305L47.4727 17.5965C48.5584 15.7162 47.9119 13.3033 46.0316 12.2177ZM30.0061 39.9746L30.4398 36.0904L33.1531 37.6569L30.0061 39.9746ZM34.5202 36.2811L30.9478 34.2186L40.4151 17.8207L43.9875 19.8832L34.5202 36.2811ZM45.849 16.6589L44.9249 18.2595L41.3526 16.197L42.2766 14.5964C42.5521 14.1193 42.9968 13.7781 43.529 13.6355C44.0613 13.4928 44.617 13.5661 45.094 13.8415C45.5711 14.117 45.9124 14.5617 46.055 15.0938C46.1976 15.626 46.1244 16.1818 45.849 16.6589Z" fill="#961842"/>
</svg>
