<svg width="40" height="40" viewBox="0 0 40 40" fill="none" xmlns="http://www.w3.org/2000/svg">
<path fill-rule="evenodd" clip-rule="evenodd" d="M26.8236 13.4282C27.68 13.6589 28.3553 14.3341 28.5858 15.1906C29.0142 16.7552 28.9977 20.0165 28.9977 20.0165C28.9977 20.0165 28.9977 23.2611 28.586 24.8258C28.3553 25.6823 27.6801 26.3576 26.8236 26.5881C25.2588 27 19.0001 27 19.0001 27C19.0001 27 12.7577 27 11.1766 26.5718C10.32 26.3411 9.64484 25.6658 9.41418 24.8094C9.00244 23.2611 9.00244 20 9.00244 20C9.00244 20 9.00244 16.7552 9.41418 15.1906C9.64469 14.3342 10.3365 13.6424 11.1765 13.4119C12.7412 13 18.9999 13 18.9999 13C18.9999 13 25.2588 13 26.8236 13.4282ZM22.2118 20L17.0072 22.9977V17.0024L22.2118 20Z" fill="white"/>
<rect x="0.5" y="0.5" width="39" height="39" rx="19.5" stroke="white" stroke-opacity="0.5"/>
</svg>
