<svg width="21" height="14" viewBox="0 0 21 14" fill="none" xmlns="http://www.w3.org/2000/svg">
<path fill-rule="evenodd" clip-rule="evenodd" d="M18.3472 0.428213C19.2037 0.658872 19.879 1.33407 20.1095 2.19065C20.5379 3.75522 20.5214 7.01648 20.5214 7.01648C20.5214 7.01648 20.5214 10.2611 20.1097 11.8258C19.879 12.6823 19.2038 13.3576 18.3472 13.5881C16.7825 14 10.5238 14 10.5238 14C10.5238 14 4.28134 14 2.70029 13.5718C1.84371 13.3411 1.16852 12.6658 0.937861 11.8094C0.526123 10.2611 0.526123 7 0.526123 7C0.526123 7 0.526123 3.75522 0.937861 2.19065C1.16837 1.33422 1.86019 0.642396 2.70014 0.41189C4.26487 0 10.5236 0 10.5236 0C10.5236 0 16.7825 0 18.3472 0.428213ZM13.7355 7.00001L8.53087 9.99767V4.00235L13.7355 7.00001Z" fill="#961842"/>
</svg>
